<svg version="1.1" xmlns="http://www.w3.org/2000/svg" viewBox="0 0 634.125 445.20043182373047" width="634.125" height="445.20043182373047">
  <!-- svg-source:excalidraw -->
  
  <defs>
    <style>
      @font-face {
        font-family: "Virgil";
        src: url("https://excalidraw.com/Virgil.woff2");
      }
      @font-face {
        font-family: "Cascadia";
        src: url("https://excalidraw.com/Cascadia.woff2");
      }
    </style>
  </defs>
  <rect x="0" y="0" width="634.125" height="445.20043182373047" fill="#fff"></rect><g stroke-linecap="round" transform="translate(10 178.40071868896484) rotate(0 306.70526123046875 128.3998565673828)"><path d="M-0.13 0.66 C140.51 1.74, 279.67 0.42, 613.86 -0.37 M-0.06 -0.08 C211.85 -1.32, 423.85 -1.7, 613.37 0.18 M614.69 -0.84 C614.46 99.02, 615.94 197.01, 613.83 257.88 M613.45 -0.22 C614.76 85.5, 616.1 170.71, 613.74 257.55 M613.84 256.72 C446.3 258.21, 278.39 258.43, -0.02 256.69 M613.65 256.96 C406.4 259.33, 199.5 259.31, -0.33 257.09 M0.64 255.7 C-1.08 155.57, -2.07 54.31, 0.53 0.48 M-0.16 256.47 C0.55 190.15, 0.85 122.34, -0.17 0.46" stroke="#a61e4d" stroke-width="1" fill="none"></path></g><g transform="translate(33.56072998046875 202.82097625732422) rotate(0 173 15)"><text x="0" y="23" font-family="Poppins, -apple-system, BlinkMacSystemFont, Segoe UI, Roboto, Helvetica Neue, Arial, Noto Sans, sans-serif, Apple Color Emoji, Segoe UI Emoji, Segoe UI Symbol, Noto Color Emoji" font-size="20px" fill="#a61e4d" text-anchor="start" style="white-space: pre;" direction="ltr">米国シカゴForesoft社 dbFLEX PaaS</text></g><g stroke-linecap="round" transform="translate(41.272705078125 259.11559295654297) rotate(0 133.4388427734375 67.68177795410156)"><path d="M0.05 1.48 C86.75 -1.56, 175.3 -2.57, 266.44 1.25 M-0.2 0.2 C68.34 0.37, 135.71 1.11, 267.44 0.63 M267.85 0.12 C265.62 29.91, 268.76 65.09, 265.68 134.27 M266.68 -0.64 C266.26 50.83, 267.17 101.29, 266.93 136.02 M265.91 136.02 C207.03 135.65, 142.85 134.28, 0.65 134.72 M266.12 135.74 C174.68 133.27, 82.34 133.95, 0.53 134.77 M-1.68 136.9 C1.38 90.52, -0.74 47.78, 1.51 -0.64 M-0.49 136.3 C0.4 95.82, 0.62 58.7, -0.31 -0.88" stroke="#a61e4d" stroke-width="1" fill="none"></path></g><g transform="translate(66.36724853515625 306.9460220336914) rotate(0 105.5 15)"><text x="105.5" y="23" font-family="Poppins, -apple-system, BlinkMacSystemFont, Segoe UI, Roboto, Helvetica Neue, Arial, Noto Sans, sans-serif, Apple Color Emoji, Segoe UI Emoji, Segoe UI Symbol, Noto Color Emoji" font-size="20px" fill="#a61e4d" text-anchor="middle" style="white-space: pre;" direction="ltr">シカゴSteadfast DC</text></g><g stroke-linecap="round" transform="translate(327.91375732421875 261.08609771728516) rotate(0 133.4388427734375 67.68177795410156)"><path d="M0.87 -0.72 C101.64 -2.81, 200.6 -1.46, 268.34 -0.48 M0.64 0.39 C78.84 -1.17, 156.79 -1.96, 267.54 -0.61 M267.9 0.3 C268.8 43.51, 266.98 85.46, 268.11 137.25 M266.3 0.2 C267.33 29.44, 268.71 59.08, 267.8 135.67 M267.81 136.34 C186.28 135.95, 106.59 135.31, -0.1 133.85 M267.06 134.73 C180.13 135.45, 93.73 135.9, 0.77 134.71 M1.44 135.03 C1.67 84.94, -1.66 38.71, 1.85 0.01 M-0.77 136.16 C0.5 105.39, -0.45 74.38, -0.21 -0.42" stroke="#a61e4d" stroke-width="1" fill="none"></path></g><g transform="translate(339.50830078125 311.4165267944336) rotate(0 119 12.5)"><text x="119" y="18" font-family="Poppins, -apple-system, BlinkMacSystemFont, Segoe UI, Roboto, Helvetica Neue, Arial, Noto Sans, sans-serif, Apple Color Emoji, Segoe UI Emoji, Segoe UI Symbol, Noto Color Emoji" font-size="20px" fill="#a61e4d" text-anchor="middle" style="white-space: pre;" direction="ltr">Microsoft EU Azure DC</text></g><g stroke-linecap="round" transform="translate(10.49493408203125 79.34980010986328) rotate(0 149.71389770507812 47.00902557373047)"><path d="M0.49 -0.46 C85.54 3.18, 171.98 0.35, 299.24 -0.21 M-0.23 0.2 C61.85 -1.57, 122.63 -0.98, 298.83 -0.55 M298.65 1.2 C301.28 33.15, 299.45 66.24, 297.68 92.68 M298.91 0.23 C300.12 21.88, 299.68 41.99, 299.33 94.83 M299.36 94.23 C207.29 96.12, 111.42 94.86, -0.94 95.26 M299.42 93.53 C195.44 95.63, 92.14 95.02, 0.46 94.5 M1.84 93.82 C-0.03 64.94, -0.66 36.72, -1.31 -0.02 M0 94.8 C0.64 67.66, -0.42 41.26, -0.13 -0.46" stroke="#000000" stroke-width="1" fill="none"></path></g><g transform="translate(65.7454833984375 98.4872055053711) rotate(0 82.5 27.5)"><text x="0" y="20.5" font-family="Poppins, -apple-system, BlinkMacSystemFont, Segoe UI, Roboto, Helvetica Neue, Arial, Noto Sans, sans-serif, Apple Color Emoji, Segoe UI Emoji, Segoe UI Symbol, Noto Color Emoji" font-size="20px" fill="#087f5b" text-anchor="start" style="white-space: pre;" direction="ltr">Foresoftブランド</text><text x="0" y="48" font-family="Poppins, -apple-system, BlinkMacSystemFont, Segoe UI, Roboto, Helvetica Neue, Arial, Noto Sans, sans-serif, Apple Color Emoji, Segoe UI Emoji, Segoe UI Symbol, Noto Color Emoji" font-size="20px" fill="#087f5b" text-anchor="start" style="white-space: pre;" direction="ltr">Teamdesk</text></g><g stroke-linecap="round" transform="translate(316.9521484375 79.40972900390625) rotate(0 153.58642578125 47.00902557373047)"><path d="M0.13 0.64 C76.63 -1.54, 153.82 -2.84, 307.64 -0.29 M0.1 -0.11 C79.82 -0.17, 160.05 -1.12, 307.13 0.29 M307.64 1.6 C305.69 34.1, 306.62 66.19, 305.67 95.53 M307.55 0.03 C308.92 25.81, 308.06 49.56, 307.81 94.71 M307.79 94.79 C203.91 95.6, 101.72 95.29, -0.77 94.22 M307.55 93.8 C242.73 93.71, 179.71 94.12, -0.45 94.22 M0.01 93.36 C0.08 76.22, 0.64 54.91, 1.43 -0.4 M-0.48 94.19 C1.29 74.56, -0.02 54.51, 0.63 -0.71" stroke="#364fc7" stroke-width="1" fill="none"></path></g><g transform="translate(381.68865966796875 100.92716979980469) rotate(0 94 27.5)"><text x="0" y="20.5" font-family="Poppins, -apple-system, BlinkMacSystemFont, Segoe UI, Roboto, Helvetica Neue, Arial, Noto Sans, sans-serif, Apple Color Emoji, Segoe UI Emoji, Segoe UI Symbol, Noto Color Emoji" font-size="20px" fill="#364fc7" text-anchor="start" style="white-space: pre;" direction="ltr">eSolia OEMブランド</text><text x="0" y="48" font-family="Poppins, -apple-system, BlinkMacSystemFont, Segoe UI, Roboto, Helvetica Neue, Arial, Noto Sans, sans-serif, Apple Color Emoji, Segoe UI Emoji, Segoe UI Symbol, Noto Color Emoji" font-size="20px" fill="#364fc7" text-anchor="start" style="white-space: pre;" direction="ltr">PROdb</text></g><g stroke-linecap="round" transform="translate(21.657806396484375 10.372520446777344) rotate(0 40.15223693847656 26.907943725585938)"><path d="M23.82 1.67 C30.59 -1.07, 40.88 -1.59, 48.81 -0.15 C56.74 1.3, 66.3 5.79, 71.39 10.34 C76.47 14.9, 79.21 21.7, 79.31 27.19 C79.4 32.67, 76.94 38.95, 71.95 43.23 C66.97 47.52, 57.7 51.62, 49.39 52.91 C41.08 54.2, 29.65 53.48, 22.08 50.97 C14.51 48.46, 7.5 42.87, 3.98 37.83 C0.46 32.79, -0.84 26.23, 0.94 20.72 C2.72 15.21, 10 8.14, 14.64 4.77 C19.28 1.4, 25.78 1.12, 28.77 0.49 C31.76 -0.15, 32.48 0.48, 32.57 0.98 M22.17 1.6 C29.03 -1.05, 40.7 -0.82, 49.24 0.89 C57.78 2.6, 68.03 7.44, 73.43 11.87 C78.83 16.31, 82.29 21.93, 81.66 27.51 C81.04 33.09, 75.14 41.29, 69.69 45.36 C64.25 49.42, 56.72 50.8, 49.01 51.9 C41.3 53, 31.25 54.02, 23.44 51.96 C15.63 49.9, 6.07 44.77, 2.16 39.54 C-1.74 34.31, -2.18 26.06, 0 20.58 C2.19 15.1, 11.45 9.89, 15.28 6.67 C19.1 3.45, 21.66 1.65, 22.96 1.27 C24.27 0.89, 22.83 3.73, 23.1 4.39" stroke="#087f5b" stroke-width="1" fill="none"></path></g><g transform="translate(33.75468444824219 21.998878479003906) rotate(0 26.5 15)"><text x="26.5" y="23" font-family="Poppins, -apple-system, BlinkMacSystemFont, Segoe UI, Roboto, Helvetica Neue, Arial, Noto Sans, sans-serif, Apple Color Emoji, Segoe UI Emoji, Segoe UI Symbol, Noto Color Emoji" font-size="20px" fill="#087f5b" text-anchor="middle" style="white-space: pre;" direction="ltr">顧客A</text></g><g stroke-linecap="round" transform="translate(114.75163269042969 10.843360900878906) rotate(0 40.15223693847656 26.907943725585938)"><path d="M51.33 0.64 C58.83 1.69, 68.07 6.51, 72.96 11.36 C77.85 16.22, 81.19 23.95, 80.67 29.75 C80.14 35.55, 75.46 42.28, 69.79 46.15 C64.13 50.03, 54.95 52.47, 46.66 52.99 C38.37 53.51, 27.45 52.16, 20.06 49.26 C12.66 46.37, 5.34 40.64, 2.31 35.6 C-0.72 30.56, -0.67 24.32, 1.88 19 C4.44 13.68, 10.58 7, 17.65 3.69 C24.72 0.39, 37.82 -0.56, 44.3 -0.81 C50.79 -1.06, 53.68 1.25, 56.56 2.19 C59.44 3.13, 61.89 4.25, 61.59 4.82 M58.7 2.28 C65.78 4.17, 72.04 9.36, 75.52 14.54 C78.99 19.72, 81.11 27.73, 79.55 33.39 C77.98 39.04, 72.6 44.9, 66.13 48.44 C59.65 51.99, 49.18 54.65, 40.7 54.68 C32.22 54.7, 22.09 52.43, 15.24 48.59 C8.39 44.75, 1.32 37.33, -0.4 31.65 C-2.12 25.97, 1.16 19.55, 4.9 14.5 C8.64 9.45, 14.78 3.6, 22.05 1.36 C29.32 -0.88, 42.34 1.06, 48.52 1.05 C54.7 1.04, 57.63 0.97, 59.12 1.27 C60.61 1.57, 57.97 2.27, 57.48 2.87" stroke="#087f5b" stroke-width="1" fill="none"></path></g><g transform="translate(126.13006591796875 22.188133239746094) rotate(0 27.5 15)"><text x="27.5" y="23" font-family="Poppins, -apple-system, BlinkMacSystemFont, Segoe UI, Roboto, Helvetica Neue, Arial, Noto Sans, sans-serif, Apple Color Emoji, Segoe UI Emoji, Segoe UI Symbol, Noto Color Emoji" font-size="20px" fill="#087f5b" text-anchor="middle" style="white-space: pre;" direction="ltr">顧客B</text></g><g transform="translate(201.1572265625 23.279136657714844) rotate(0 8 12.5)"><text x="0" y="18" font-family="Poppins, -apple-system, BlinkMacSystemFont, Segoe UI, Roboto, Helvetica Neue, Arial, Noto Sans, sans-serif, Apple Color Emoji, Segoe UI Emoji, Segoe UI Symbol, Noto Color Emoji" font-size="20px" fill="#087f5b" text-anchor="start" style="white-space: pre;" direction="ltr">...</text></g><g stroke-linecap="round" transform="translate(223.63706970214844 11.066749572753906) rotate(0 40.15223693847656 26.907943725585938)"><path d="M22.27 3.45 C29.16 0.41, 39.43 -1.5, 47.67 -0.34 C55.92 0.82, 66.36 6.1, 71.74 10.41 C77.12 14.71, 79.85 20.1, 79.94 25.51 C80.03 30.91, 77.16 38.26, 72.28 42.83 C67.39 47.4, 58.89 51.45, 50.62 52.92 C42.36 54.38, 30.57 53.87, 22.71 51.61 C14.84 49.36, 6.99 44.59, 3.44 39.41 C-0.11 34.23, -0.48 26.1, 1.42 20.54 C3.32 14.99, 10.1 9.39, 14.87 6.08 C19.63 2.78, 25.87 1.62, 29.98 0.72 C34.1 -0.19, 39.27 0.26, 39.55 0.67 M29.24 2 C36.51 -0.06, 47.32 -0.59, 55.1 1.47 C62.88 3.53, 71.98 9.39, 75.92 14.36 C79.86 19.33, 80 25.95, 78.72 31.28 C77.45 36.61, 74.19 42.58, 68.29 46.32 C62.4 50.07, 51.84 53.08, 43.36 53.76 C34.87 54.44, 24.42 53.31, 17.4 50.4 C10.37 47.5, 3.59 42, 1.2 36.33 C-1.18 30.65, 0.12 21.96, 3.09 16.36 C6.07 10.76, 14.73 5.45, 19.04 2.73 C23.36 0, 27.65 0.1, 28.97 -0.01 C30.29 -0.12, 27.18 1.3, 26.96 2.06" stroke="#087f5b" stroke-width="1" fill="none"></path></g><g transform="translate(238.0155029296875 22.69310760498047) rotate(0 24.5 15)"><text x="24.5" y="23" font-family="Poppins, -apple-system, BlinkMacSystemFont, Segoe UI, Roboto, Helvetica Neue, Arial, Noto Sans, sans-serif, Apple Color Emoji, Segoe UI Emoji, Segoe UI Symbol, Noto Color Emoji" font-size="20px" fill="#087f5b" text-anchor="middle" style="white-space: pre;" direction="ltr">顧客?</text></g><g stroke-linecap="round" transform="translate(332.65409088134766 10) rotate(0 40.15223693847656 26.907943725585938)"><path d="M49.51 0.91 C57.39 1.73, 66.27 6.3, 71.33 10.8 C76.39 15.29, 79.89 22.31, 79.89 27.87 C79.88 33.43, 76.48 39.85, 71.31 44.18 C66.13 48.51, 56.95 52.57, 48.82 53.85 C40.7 55.13, 29.93 54.26, 22.57 51.85 C15.21 49.44, 8.15 44.52, 4.68 39.38 C1.21 34.24, 0.08 26.59, 1.73 21 C3.37 15.42, 7.98 9.39, 14.56 5.85 C21.15 2.31, 34.45 0.39, 41.22 -0.24 C47.98 -0.87, 51.93 1.17, 55.15 2.07 C58.38 2.97, 60.89 4.78, 60.58 5.17 M42.38 0.38 C50.27 0.82, 61.13 4.51, 67.14 8.16 C73.15 11.82, 77.18 17, 78.45 22.31 C79.73 27.62, 78.51 34.86, 74.78 40.02 C71.05 45.18, 63.83 50.9, 56.08 53.25 C48.32 55.6, 36.31 55.94, 28.24 54.15 C20.17 52.36, 12.28 47.36, 7.63 42.49 C2.98 37.63, 0.04 30.49, 0.34 24.96 C0.65 19.43, 4.01 13.43, 9.47 9.31 C14.92 5.19, 27.61 1.64, 33.08 0.24 C38.55 -1.16, 40.66 1.02, 42.3 0.93 C43.95 0.84, 43.09 -0.61, 42.93 -0.3" stroke="#364fc7" stroke-width="1" fill="none"></path></g><g transform="translate(344.75096893310547 21.626358032226562) rotate(0 26.5 15)"><text x="26.5" y="23" font-family="Poppins, -apple-system, BlinkMacSystemFont, Segoe UI, Roboto, Helvetica Neue, Arial, Noto Sans, sans-serif, Apple Color Emoji, Segoe UI Emoji, Segoe UI Symbol, Noto Color Emoji" font-size="20px" fill="#364fc7" text-anchor="middle" style="white-space: pre;" direction="ltr">顧客A</text></g><g stroke-linecap="round" transform="translate(425.74791717529297 10.470840454101562) rotate(0 40.15223693847656 26.907943725585938)"><path d="M55.71 2.82 C63.06 4.71, 71.15 10.21, 75.1 15.11 C79.06 20, 80.91 26.74, 79.45 32.2 C77.99 37.67, 72.61 44.17, 66.34 47.89 C60.06 51.61, 49.98 54.25, 41.8 54.52 C33.61 54.79, 23.84 52.9, 17.22 49.51 C10.61 46.11, 4.54 39.7, 2.1 34.16 C-0.34 28.63, -0.74 21.5, 2.6 16.29 C5.95 11.08, 14.72 5.55, 22.15 2.91 C29.58 0.28, 40.97 0.29, 47.19 0.49 C53.41 0.68, 56.92 3.29, 59.47 4.1 C62.02 4.91, 62.73 5.05, 62.49 5.36 M20.86 4.4 C27.43 1.43, 37.6 -0.74, 45.79 0.01 C53.98 0.77, 64.09 4.45, 70.01 8.95 C75.92 13.44, 80.88 21.1, 81.28 26.97 C81.68 32.84, 77.37 39.79, 72.4 44.15 C67.43 48.51, 59.41 51.9, 51.46 53.14 C43.5 54.39, 32.64 53.75, 24.68 51.61 C16.71 49.47, 7.84 45.24, 3.67 40.31 C-0.49 35.38, -1.9 27.51, -0.31 22.04 C1.28 16.58, 9.65 10.79, 13.22 7.51 C16.79 4.24, 19.97 3, 21.12 2.37 C22.26 1.75, 19.97 3.24, 20.09 3.79" stroke="#364fc7" stroke-width="1" fill="none"></path></g><g transform="translate(437.12635040283203 21.81561279296875) rotate(0 27.5 15)"><text x="27.5" y="23" font-family="Poppins, -apple-system, BlinkMacSystemFont, Segoe UI, Roboto, Helvetica Neue, Arial, Noto Sans, sans-serif, Apple Color Emoji, Segoe UI Emoji, Segoe UI Symbol, Noto Color Emoji" font-size="20px" fill="#364fc7" text-anchor="middle" style="white-space: pre;" direction="ltr">顧客B</text></g><g transform="translate(512.1535110473633 22.9066162109375) rotate(0 8 12.5)"><text x="0" y="18" font-family="Poppins, -apple-system, BlinkMacSystemFont, Segoe UI, Roboto, Helvetica Neue, Arial, Noto Sans, sans-serif, Apple Color Emoji, Segoe UI Emoji, Segoe UI Symbol, Noto Color Emoji" font-size="20px" fill="#364fc7" text-anchor="start" style="white-space: pre;" direction="ltr">...</text></g><g stroke-linecap="round" transform="translate(534.6333541870117 10.694229125976562) rotate(0 40.15223693847656 26.907943725585938)"><path d="M36.57 -0.03 C44.36 -0.94, 54.94 0.94, 61.97 3.94 C69 6.94, 75.95 12.52, 78.75 17.96 C81.55 23.4, 81.5 31.17, 78.77 36.58 C76.03 41.98, 69.5 47.67, 62.33 50.4 C55.17 53.13, 44.19 53.56, 35.76 52.96 C27.32 52.35, 17.7 50.67, 11.74 46.76 C5.78 42.85, 0.91 35.3, -0.01 29.52 C-0.92 23.74, 1.65 16.86, 6.26 12.08 C10.88 7.29, 21.56 2.78, 27.67 0.8 C33.77 -1.18, 39.12 0.27, 42.9 0.2 C46.68 0.14, 50.42 -0.05, 50.35 0.42 M38.54 -0.27 C46.24 -0.38, 57.09 3.05, 64.06 6.4 C71.03 9.76, 78 14.53, 80.38 19.86 C82.75 25.2, 81.88 33.22, 78.3 38.42 C74.72 43.62, 66.57 48.77, 58.89 51.06 C51.22 53.35, 40.38 53.45, 32.24 52.16 C24.1 50.86, 15.46 47.47, 10.07 43.3 C4.69 39.12, 0.12 32.52, -0.06 27.11 C-0.24 21.7, 4.09 15.43, 8.99 10.85 C13.89 6.26, 24.33 1.57, 29.33 -0.41 C34.32 -2.4, 37.37 -1.34, 38.98 -1.04 C40.59 -0.75, 38.9 0.71, 39.01 1.35" stroke="#364fc7" stroke-width="1" fill="none"></path></g><g transform="translate(549.0117874145508 22.320587158203125) rotate(0 24.5 15)"><text x="24.5" y="23" font-family="Poppins, -apple-system, BlinkMacSystemFont, Segoe UI, Roboto, Helvetica Neue, Arial, Noto Sans, sans-serif, Apple Color Emoji, Segoe UI Emoji, Segoe UI Symbol, Noto Color Emoji" font-size="20px" fill="#364fc7" text-anchor="middle" style="white-space: pre;" direction="ltr">顧客?</text></g></svg>