<?xml version="1.0" standalone="no"?>
<!DOCTYPE svg PUBLIC "-//W3C//DTD SVG 1.1//EN" "http://www.w3.org/Graphics/SVG/1.1/DTD/svg11.dtd">
<svg xmlns="http://www.w3.org/2000/svg">
<defs >
<font id="MPLUS2" horiz-adv-x="968" ><font-face
    font-family="M PLUS 2 SemiBold"
    units-per-em="1000"
    panose-1="0 0 0 0 0 0 0 0 0 0"
    ascent="1160"
    descent="-288"
    alphabetic="0" />
<glyph unicode=" " glyph-name="space" horiz-adv-x="277" />
<glyph unicode="!" glyph-name="exclam" horiz-adv-x="338" d="M113 216L95 730H243L226 216H113ZM169 -10Q133 -10 112 10T91 67Q91 102 112 122T169 143Q205 143 226 123T247 67Q247 31 226 11T169 -10Z" />
<glyph unicode="&quot;" glyph-name="quotedbl" horiz-adv-x="518" d="M98 470L81 770H219L202 470H98ZM316 470L299 770H437L420 470H316Z" />
<glyph unicode="#" glyph-name="numbersign" horiz-adv-x="681" d="M102 0L133 176H41V280H152L185 470H94V574H203L231 730H345L317 574H435L462 730H576L549 574H640V470H530L497 280H587V176H478L447 0H333L365 176H246L216 0H102ZM257 245L233 278H414L379
245L425 506L449 472H268L303 506L257 245Z" />
<glyph unicode="$" glyph-name="dollar" horiz-adv-x="644" d="M313 -10Q238 -10 171 8T55 62L82 171Q132 137 193 119T313 101Q388 101 427 126T467 197Q467 224 452 244T403 281T311 316Q219 347 163 380T81 454T55 548Q55 642 125 691T328 740Q398 740 462
726T576 686L548 577Q491 606 442 617T334 629Q260 629 223 609T185 548Q185 525 199 506T246 471T333 437Q428 405 484 371T566 296T592 201Q592 101 519 46T313 -10ZM275 -105V48H379V-105H275ZM275 48V373H379V48H275ZM275 373V682H379V373H275ZM275 682V835H379V682H275Z"
/>
<glyph unicode="%" glyph-name="percent" horiz-adv-x="928" d="M212 0L597 730H719L334 0H212ZM213 286Q125 286 83 341T41 511Q41 625 83 680T213 736Q301 736 343 681T386 511Q386 397 344 342T213 286ZM213 382Q247 382 262 411T278 511Q278 581 263 610T213
640Q180 640 165 611T149 511Q149 441 164 412T213 382ZM715 -6Q627 -6 585 49T542 219Q542 333 584 388T715 444Q803 444 845 389T887 219Q887 105 845 50T715 -6ZM715 90Q748 90 763 119T779 219Q779 289 764 318T715 348Q681 348 666 319T650 219Q650 149 665
120T715 90Z" />
<glyph unicode="&amp;" glyph-name="ampersand" horiz-adv-x="739" d="M300 -10Q220 -10 162 12T73 75T41 172Q41 215 62 252T132 328T267 417Q328 453 362 478T411 526T425 571Q425 608 396 628T315 649Q263 649 234 629T204 571Q204 557 209 543T228 511T266
467T327 406L751 0H608L197 385Q157 423 133 454T97 514T85 574Q85 651 146 695T313 740Q419 740 481 695T544 574Q544 535 523 499T455 426T329 342Q268 307 233 281T183 232T168 183Q168 140 205 115T306 90Q365 90 421 111T526 176V401H637V108Q576 66 520 41T411
3T300 -10Z" />
<glyph unicode="&apos;" glyph-name="quotesingle" horiz-adv-x="305" d="M98 470L81 770H224L206 470H98Z" />
<glyph unicode="(" glyph-name="parenleft" horiz-adv-x="409" d="M238 -110Q168 -19 130 93T92 330Q92 455 130 567T238 770H354Q284 671 250 564T216 330Q216 204 250 97T354 -110H238Z" />
<glyph unicode=")" glyph-name="parenright" horiz-adv-x="409" d="M171 -110H55Q126 -11 159 96T193 330Q193 456 160 563T55 770H171Q242 680 279 568T316 330Q316 206 279 94T171 -110Z" />
<glyph unicode="*" glyph-name="asterisk" horiz-adv-x="525" d="M172 322L88 382L184 509L32 554L64 653L213 602L211 759H314L312 602L461 653L493 554L341 509L437 382L353 322L263 452L172 322Z" />
<glyph unicode="+" glyph-name="plus" horiz-adv-x="695" d="M292 0V234H57V346H292V580H404V346H638V234H404V0H292Z" />
<glyph unicode="," glyph-name="comma" horiz-adv-x="321" d="M45 -170L113 141H256L153 -170H45Z" />
<glyph unicode="-" glyph-name="hyphen" horiz-adv-x="431" d="M57 234V346H374V234H57Z" />
<glyph unicode="." glyph-name="period" horiz-adv-x="335" d="M168 -10Q132 -10 111 11T89 67Q89 103 110 124T168 145Q204 145 225 124T246 67Q246 32 225 11T168 -10Z" />
<glyph unicode="/" glyph-name="slash" horiz-adv-x="502" d="M12 -40L368 770H490L134 -40H12Z" />
<glyph unicode="0" glyph-name="zero" horiz-adv-x="643" d="M322 -10Q176 -10 105 82T34 365Q34 556 105 648T322 740Q468 740 538 648T609 365Q609 174 539 82T322 -10ZM322 101Q405 101 443 165T481 365Q481 502 443 565T322 629Q239 629 201 566T162 365Q162
229 200 165T322 101Z" />
<glyph unicode="1" glyph-name="one" horiz-adv-x="643" d="M347 0V590H345L89 439L53 548L347 730H474V0H347Z" />
<glyph unicode="2" glyph-name="two" horiz-adv-x="643" d="M68 111Q169 187 239 246T351 352T412 438T431 513Q431 629 304 629Q203 629 81 547L45 654Q161 740 323 740Q439 740 499 687T559 528Q559 481 542 434T488 336T393 231T251 113V111H567V0H68V111Z" />
<glyph unicode="3" glyph-name="three" horiz-adv-x="643" d="M286 -10Q222 -10 163 5T39 53L74 156Q127 127 177 113T280 99Q360 99 402 128T444 214Q444 274 390 299T209 325H164V429H209Q316 429 375 459T434 545Q434 588 397 609T289 631Q256 631 227 626T164
609T86 575L56 679Q101 701 140 714T218 734T301 740Q427 740 492 696T558 567Q558 500 517 454T395 386V384Q482 373 526 329T571 207Q571 105 496 48T286 -10Z" />
<glyph unicode="4" glyph-name="four" horiz-adv-x="643" d="M375 0V133H10V244L375 730H500V244H627V133H500V0H375ZM151 242H377V538H375L151 244V242Z" />
<glyph unicode="5" glyph-name="five" horiz-adv-x="643" d="M286 -10Q223 -10 173 2T73 39L105 145Q154 120 194 110T280 99Q368 99 415 135T463 241Q463 301 427 332T322 364Q285 364 260 353T211 314H94L118 730H556V621H230L219 441H221Q251 455 279 461T343
468Q460 468 525 407T590 237Q590 117 512 54T286 -10Z" />
<glyph unicode="6" glyph-name="six" horiz-adv-x="643" d="M321 -10Q231 -10 169 22T76 116T44 270Q44 408 97 510T251 672T489 739L510 638Q386 632 309 585T194 448L196 447Q229 469 268 479T352 490Q428 490 484 461T569 377T599 245Q599 165 566 108T471
21T321 -10ZM321 97Q395 97 435 136T475 243Q475 313 435 351T321 389Q273 389 239 373T187 324T169 247Q169 208 184 174T233 119T321 97Z" />
<glyph unicode="7" glyph-name="seven" horiz-adv-x="643" d="M160 0Q191 90 222 168T287 319T362 464T449 616V619H55V730H588V619Q547 553 514 496T453 384T400 271T349 147T296 0H160Z" />
<glyph unicode="8" glyph-name="eight" horiz-adv-x="643" d="M322 -10Q232 -10 167 15T65 86T29 196Q29 259 68 303T190 376V378Q127 408 91 456T55 561Q55 616 88 656T180 718T322 740Q403 740 462 718T555 655T589 561Q589 507 554 465T450 392V390Q614 333
614 196Q614 132 579 86T479 15T322 -10ZM322 93Q397 93 442 123T487 202Q487 248 445 278T311 327Q156 290 156 202Q156 153 201 123T322 93ZM323 438Q392 454 429 483T466 549Q466 590 427 613T322 637Q256 637 218 614T179 549Q179 510 215 482T323 438Z" />
<glyph unicode="9" glyph-name="nine" horiz-adv-x="643" d="M322 740Q412 740 474 708T567 614T599 460Q599 322 546 220T393 58T155 -9L133 92Q257 99 335 145T450 282L448 283Q414 262 375 251T292 240Q215 240 160 269T75 354T45 485Q45 565 78 621T173 709T322
740ZM322 633Q248 633 209 595T169 487Q169 418 208 380T322 341Q370 341 404 357T456 406T475 483Q475 522 460 556T411 611T322 633Z" />
<glyph unicode=":" glyph-name="colon" horiz-adv-x="368" d="M184 375Q148 375 127 396T106 453Q106 488 127 509T184 530Q220 530 241 509T262 453Q262 417 241 396T184 375ZM184 -10Q148 -10 127 11T106 67Q106 103 127 124T184 145Q220 145 241 124T262 67Q262
32 241 11T184 -10Z" />
<glyph unicode=";" glyph-name="semicolon" horiz-adv-x="372" d="M47 -170L128 141H271L155 -170H47ZM194 375Q158 375 137 396T116 453Q116 488 137 509T194 530Q230 530 251 509T272 453Q272 417 251 396T194 375Z" />
<glyph unicode="&lt;" glyph-name="less" horiz-adv-x="718" d="M637 6L57 220V360L637 574V453L152 291V289L637 127V6Z" />
<glyph unicode="=" glyph-name="equal" horiz-adv-x="759" d="M89 354V462H669V354H89ZM89 118V226H669V118H89Z" />
<glyph unicode="&gt;" glyph-name="greater" horiz-adv-x="718" d="M81 6V127L566 289V291L81 453V574L661 360V220L81 6Z" />
<glyph unicode="?" glyph-name="question" horiz-adv-x="581" d="M217 216Q217 259 226 296T259 368T326 434Q377 470 398 498T419 555Q419 594 385 611T275 629Q222 629 170 621T61 593L35 702Q92 720 159 730T292 740Q550 740 550 573Q550 517 521 472T423 380Q392
359 375 333T350 277T341 216H217ZM279 -10Q243 -10 222 10T201 67Q201 102 222 122T279 143Q315 143 336 123T357 67Q357 31 336 11T279 -10Z" />
<glyph unicode="@" glyph-name="at" horiz-adv-x="839" d="M420 -113Q338 -113 268 -86T148 -8T69 111T41 260Q41 341 69 409T147 528T268 605T420 633Q503 633 572 606T692 528T771 410T799 260Q799 160 753 110T608 60Q556 60 524 76T479 125H477Q428 60 345
60Q293 60 259 88T213 163T212 264Q233 359 287 411T413 463Q440 463 464 450T501 413H502L513 457H617L561 210Q552 168 561 153T609 138Q662 138 685 167T709 260Q709 346 673 411T571 513T420 550Q335 550 269 513T167 411T130 260Q130 175 166 110T269 7T420
-30Q475 -30 521 -14T605 31L658 -36Q610 -73 550 -93T420 -113ZM363 152Q403 152 428 180T469 269Q477 299 474 322T458 360T419 375Q384 375 355 345T313 257Q306 230 309 206T325 167T363 152Z" />
<glyph unicode="A" glyph-name="A" horiz-adv-x="710" d="M12 0L271 730H440L698 0H561L356 624H354L149 0H12ZM154 175V286H557V175H154Z" />
<glyph unicode="B" glyph-name="B" horiz-adv-x="666" d="M297 -10Q251 -10 192 -6T81 4V726Q119 731 156 734T228 738T292 740Q445 740 523 693T601 552Q601 487 565 445T462 389V387Q545 374 587 329T629 207Q629 99 546 45T297 -10ZM166 107Q195 103 233 100T303
97Q406 97 454 126T502 218Q502 278 458 303T312 329H143V433H312Q396 433 436 457T476 531Q476 583 434 608T303 633Q288 633 271 632T229 629T165 623L206 691V39L166 107Z" />
<glyph unicode="C" glyph-name="C" horiz-adv-x="713" d="M423 -10Q304 -10 218 35T87 164T41 365Q41 483 86 566T218 695T423 740Q559 740 664 681L635 571Q533 629 427 629Q348 629 290 598T201 507T170 365Q170 283 201 224T290 133T427 101Q530 101 635 159L664
49Q559 -10 423 -10Z" />
<glyph unicode="D" glyph-name="D" horiz-adv-x="708" d="M289 -10Q248 -10 193 -7T81 4V726Q137 733 192 736T289 740Q421 740 504 701T627 578T667 365Q667 235 628 152T505 30T289 -10ZM297 100Q385 100 438 126T516 210T540 365Q540 461 516 519T439 604T297
630Q268 630 230 628T147 620L206 683V47L147 110Q192 105 230 103T297 100Z" />
<glyph unicode="E" glyph-name="E" horiz-adv-x="634" d="M81 0V730H569V622H206V434H549V328H206V108H569V0H81Z" />
<glyph unicode="F" glyph-name="F" horiz-adv-x="641" d="M81 0V730H587V619H206V411H567V303H206V0H81Z" />
<glyph unicode="G" glyph-name="G" horiz-adv-x="773" d="M438 -10Q314 -10 225 35T89 164T41 365Q41 482 88 566T222 695T431 740Q498 740 558 726T665 682L636 577Q594 602 540 615T431 629Q350 629 293 598T205 508T174 365Q174 281 204 222T294 132T438 101Q482
101 523 109T597 135L580 95V320H348V425H704V47Q651 20 581 5T438 -10Z" />
<glyph unicode="H" glyph-name="H" horiz-adv-x="730" d="M524 0V730H649V0H524ZM81 0V730H206V0H81ZM143 325V437H587V325H143Z" />
<glyph unicode="I" glyph-name="I" horiz-adv-x="308" d="M89 0V730H219V0H89Z" />
<glyph unicode="J" glyph-name="J" horiz-adv-x="603" d="M246 -10Q119 -10 15 48L39 159Q97 130 144 117T238 104Q297 104 333 125T386 192T402 315V730H530V292Q530 138 461 64T246 -10Z" />
<glyph unicode="K" glyph-name="K" horiz-adv-x="710" d="M81 0V730H206V413H208L526 730H681L332 381L691 0H536L208 348H206V0H81Z" />
<glyph unicode="L" glyph-name="L" horiz-adv-x="633" d="M81 0V730H209V111H597V0H81Z" />
<glyph unicode="M" glyph-name="M" horiz-adv-x="885" d="M43 0L133 730H286L441 229H443L599 730H752L842 0H715L663 545H661L507 80H378L224 545H222L170 0H43Z" />
<glyph unicode="N" glyph-name="N" horiz-adv-x="748" d="M81 0V730H214L541 206H543V730H667V0H534L208 524H206V0H81Z" />
<glyph unicode="O" glyph-name="O" horiz-adv-x="833" d="M417 -10Q302 -10 218 36T87 166T41 365Q41 480 87 564T217 694T417 740Q533 740 617 694T747 564T793 365Q793 250 747 166T617 36T417 -10ZM417 101Q494 101 549 133T635 224T665 365Q665 447 635 506T550
597T417 629Q339 629 284 597T199 506T169 365Q169 283 198 224T283 133T417 101Z" />
<glyph unicode="P" glyph-name="P" horiz-adv-x="648" d="M81 726Q119 731 158 734T233 738T296 740Q461 740 540 677T619 484Q619 356 543 292T314 228Q280 228 240 231T143 242L145 351Q200 344 235 341T299 337Q401 337 446 372T492 484Q492 562 447 596T299
630Q267 630 228 627T147 617L206 683V0H81V726Z" />
<glyph unicode="Q" glyph-name="Q" horiz-adv-x="826" d="M697 -136Q662 -89 622 -62T532 -22T417 -10Q333 -10 264 17T145 94T68 213T41 365Q41 448 68 517T145 636T264 713T417 740Q500 740 569 713T689 636T766 517T793 365Q793 292 771 231T707 123T602 46V44Q662
32 713 3T797 -66L697 -136ZM417 101Q491 101 546 134T633 227T665 365Q665 444 634 503T547 595T417 629Q344 629 288 596T200 503T169 365Q169 287 200 228T287 135T417 101Z" />
<glyph unicode="R" glyph-name="R" horiz-adv-x="693" d="M81 726Q117 730 157 733T236 738T306 740Q468 740 543 685T619 511Q619 392 544 337T306 282Q268 282 221 285T129 292L147 399Q199 393 239 390T312 386Q407 386 449 415T492 508Q492 573 450 601T312
630Q280 630 240 627T147 617L206 683V0H81V726ZM503 0L150 342H302L661 0H503Z" />
<glyph unicode="S" glyph-name="S" horiz-adv-x="649" d="M310 -10Q238 -10 169 5T52 46L82 158Q116 141 156 128T238 108T318 101Q390 101 428 126T467 200Q467 226 455 244T420 275T361 300T281 324Q229 338 188 356T116 400T70 460T54 540Q54 637 127 688T334
740Q402 740 468 728T582 694L551 582Q505 604 447 616T333 629Q260 629 222 606T184 539Q184 514 195 496T228 465T282 441T358 418Q413 402 457 384T533 340T580 281T597 199Q597 100 522 45T310 -10Z" />
<glyph unicode="T" glyph-name="T" horiz-adv-x="670" d="M270 0V619H29V730H641V619H399V0H270Z" />
<glyph unicode="U" glyph-name="U" horiz-adv-x="733" d="M367 -10Q217 -10 145 64T73 292V730H198V315Q198 235 214 189T267 122T367 101Q429 101 466 121T519 188T535 315V730H660V292Q660 138 588 64T367 -10Z" />
<glyph unicode="V" glyph-name="V" horiz-adv-x="699" d="M268 0L12 730H149L348 125H350L550 730H687L431 0H268Z" />
<glyph unicode="W" glyph-name="W" horiz-adv-x="941" d="M196 0L29 730H157L274 164H276L394 670H547L665 164H667L784 730H912L745 0H593L472 506H470L349 0H196Z" />
<glyph unicode="X" glyph-name="X" horiz-adv-x="712" d="M43 0L264 367L45 730H187L355 438H357L525 730H667L448 367L669 0H528L357 296H355L184 0H43Z" />
<glyph unicode="Y" glyph-name="Y" horiz-adv-x="690" d="M280 0V270L7 730H149L344 381H346L541 730H682L410 270V0H280Z" />
<glyph unicode="Z" glyph-name="Z" horiz-adv-x="653" d="M65 0V111L437 618V619H65V730H588V619L216 112V111H588V0H65Z" />
<glyph unicode="[" glyph-name="bracketleft" horiz-adv-x="481" d="M117 -110V770H423V669H233V-9H423V-110H117Z" />
<glyph unicode="\" glyph-name="backslash" horiz-adv-x="502" d="M490 -40H368L12 770H134L490 -40Z" />
<glyph unicode="]" glyph-name="bracketright" horiz-adv-x="481" d="M364 -110H59V-9H249V669H59V770H364V-110Z" />
<glyph unicode="^" glyph-name="asciicircum" horiz-adv-x="637" d="M12 280L237 730H401L625 280H488L319 643H317L150 280H12Z" />
<glyph unicode="_" glyph-name="underscore" horiz-adv-x="606" d="M0 -171V-78H606V-171H0Z" />
<glyph unicode="`" glyph-name="grave" horiz-adv-x="305" d="M395 570L274 790H428L514 570H395Z" />
<glyph unicode="a" glyph-name="a" horiz-adv-x="557" d="M197 -10Q119 -10 75 32T30 148Q30 239 101 288T303 337H376Q376 389 349 410T257 432Q207 432 162 420T68 382L53 482Q102 506 155 518T272 530Q354 530 403 510T475 446T498 328V0H381L380 60H378Q351
29 300 10T197 -10ZM241 86Q278 86 309 99T358 136T376 188V251H321Q235 251 192 229T148 160Q148 126 172 106T241 86Z" />
<glyph unicode="b" glyph-name="b" horiz-adv-x="620" d="M363 -10Q311 -10 267 8T193 61H191L190 0H73V730H196V459H198Q227 494 269 512T363 530Q467 530 525 459T583 260Q583 132 525 61T363 -10ZM331 90Q395 90 429 134T463 260Q463 342 429 386T331 430Q293
430 262 414T214 371T196 307V213Q196 178 213 150T262 106T331 90Z" />
<glyph unicode="c" glyph-name="c" horiz-adv-x="542" d="M322 -10Q232 -10 169 22T71 114T37 260Q37 345 71 405T168 498T322 530Q367 530 406 522T484 493L463 397Q428 415 396 423T330 432Q250 432 206 387T162 260Q162 178 206 133T330 88Q363 88 395 96T463
123L484 27Q446 8 407 -1T322 -10Z" />
<glyph unicode="d" glyph-name="d" horiz-adv-x="620" d="M257 -10Q153 -10 95 61T37 260Q37 388 95 459T257 530Q309 530 351 512T422 459H425V730H546V0H431L429 61H427Q398 27 354 9T257 -10ZM289 90Q328 90 358 106T407 150T425 213V307Q425 343 407 370T359
414T289 430Q226 430 192 386T157 260Q157 178 191 134T289 90Z" />
<glyph unicode="e" glyph-name="e" horiz-adv-x="569" d="M313 -10Q180 -10 109 60T37 260Q37 386 105 458T293 530Q408 530 471 462T534 269Q534 255 533 238T531 213H105V302H437L419 275Q419 357 388 396T293 436Q226 436 192 395T157 272V237Q157 163 196
126T314 88Q360 88 406 100T489 133L508 37Q470 15 420 3T313 -10Z" />
<glyph unicode="f" glyph-name="f" horiz-adv-x="469" d="M155 0V402H22V500H155V579Q155 674 202 722T342 770Q370 770 397 766T447 755L433 656Q397 668 362 668Q316 668 298 647T279 573V500H443V402H279V0H155Z" />
<glyph unicode="g" glyph-name="g" horiz-adv-x="620" d="M270 -220Q208 -220 157 -206T68 -164L91 -68Q131 -96 171 -109T260 -122Q345 -122 385 -79T425 57V87H423Q393 54 351 37T257 20Q153 20 95 87T37 275Q37 396 95 463T257 530Q309 530 353 513T427 463H429L430
520H546V57Q546 -81 477 -150T270 -220ZM289 120Q329 120 359 134T407 172T425 228V322Q425 353 407 377T359 416T289 430Q227 430 192 390T157 275Q157 200 192 160T289 120Z" />
<glyph unicode="h" glyph-name="h" horiz-adv-x="612" d="M73 0V730H196V459H198Q229 495 271 512T368 530Q464 530 509 479T553 320V0H431V297Q432 365 407 397T330 429Q291 429 261 413T214 370T196 307V0H73Z" />
<glyph unicode="i" glyph-name="i" horiz-adv-x="318" d="M97 0V515H221V0H97ZM159 589Q123 589 102 609T81 665Q81 700 102 721T159 742Q195 742 216 721T237 665Q237 630 216 610T159 589Z" />
<glyph unicode="j" glyph-name="j" horiz-adv-x="332" d="M-84 -117Q-23 -111 15 -101T74 -73T103 -23T111 56V515H235V56Q235 -17 221 -66T173 -147T81 -195T-66 -220L-84 -117ZM173 589Q137 589 116 609T95 665Q95 700 116 721T173 742Q209 742 230 721T251
665Q251 630 230 610T173 589Z" />
<glyph unicode="k" glyph-name="k" horiz-adv-x="596" d="M73 0V730H196V309H198L412 520H565L303 270L575 0H422L198 232H196V0H73Z" />
<glyph unicode="l" glyph-name="l" horiz-adv-x="286" d="M81 0V730H205V0H81Z" />
<glyph unicode="m" glyph-name="m" horiz-adv-x="869" d="M73 0V520H188L189 450H191Q217 490 256 510T345 530Q395 530 432 510T485 450H487Q514 492 554 511T651 530Q736 530 773 482T810 321V0H690V304Q690 371 672 400T611 429Q559 429 530 390T501 282V0H382V325Q382
375 361 402T302 429Q255 429 224 388T193 282V0H73Z" />
<glyph unicode="n" glyph-name="n" horiz-adv-x="612" d="M73 0V520H190L191 450H193Q228 491 271 510T371 530Q466 530 509 475T553 300V0H431V277Q431 354 407 391T333 429Q295 429 264 410T214 360T196 290V0H73Z" />
<glyph unicode="o" glyph-name="o" horiz-adv-x="601" d="M300 -10Q220 -10 161 23T69 117T37 260Q37 343 69 403T160 497T300 530Q381 530 440 497T531 404T564 260Q564 178 532 117T440 23T300 -10ZM300 88Q367 88 404 133T441 260Q441 343 404 387T300 432Q233
432 196 388T159 260Q159 178 196 133T300 88Z" />
<glyph unicode="p" glyph-name="p" horiz-adv-x="620" d="M363 530Q467 530 525 459T583 260Q583 132 525 61T363 -10Q312 -10 270 8T198 61H196V-210H73V520H190L191 459H193Q223 494 267 512T363 530ZM331 430Q293 430 262 414T214 371T196 307V213Q196 178
213 150T262 106T331 90Q395 90 429 134T463 260Q463 342 429 386T331 430Z" />
<glyph unicode="q" glyph-name="q" horiz-adv-x="620" d="M425 -210V61H422Q393 27 351 9T257 -10Q153 -10 95 61T37 260Q37 388 95 459T257 530Q309 530 353 512T427 459H429L431 520H546V-210H425ZM289 90Q328 90 358 106T407 150T425 213V307Q425 343 407 370T359
414T289 430Q226 430 192 386T157 260Q157 178 191 134T289 90Z" />
<glyph unicode="r" glyph-name="r" horiz-adv-x="443" d="M73 0V520H191L192 422H194Q220 456 255 480T334 517T424 530V424Q361 424 310 400T228 336T197 245V0H73Z" />
<glyph unicode="s" glyph-name="s" horiz-adv-x="502" d="M242 -10Q187 -10 135 1T39 32L57 129Q104 109 150 99T240 88Q291 88 316 102T341 146Q341 164 332 176T301 197T237 216Q167 233 123 255T58 309T37 382Q37 454 92 492T253 530Q305 530 354 521T448 491L431
395Q388 414 345 423T258 432Q209 432 186 420T162 380Q162 365 171 353T203 332T262 314Q315 302 353 286T416 249T453 203T465 145Q465 71 407 31T242 -10Z" />
<glyph unicode="t" glyph-name="t" horiz-adv-x="481" d="M316 -10Q220 -10 177 30T133 162V422H17V520H133V690H256V520H432V422H256V179Q256 133 276 114T342 94Q361 94 380 97T418 108L432 9Q401 -1 374 -5T316 -10Z" />
<glyph unicode="u" glyph-name="u" horiz-adv-x="602" d="M235 -10Q144 -10 102 46T59 220V520H182V243Q182 165 204 128T274 91Q310 91 340 110T388 160T406 230V520H529V0H412L411 70H409Q375 30 333 10T235 -10Z" />
<glyph unicode="v" glyph-name="v" horiz-adv-x="544" d="M186 0L8 520H140L271 85H273L405 520H536L358 0H186Z" />
<glyph unicode="w" glyph-name="w" horiz-adv-x="790" d="M157 0L20 520H151L231 116H233L315 520H475L557 116H559L640 520H770L633 0H478L396 396H394L312 0H157Z" />
<glyph unicode="x" glyph-name="x" horiz-adv-x="558" d="M30 0L195 262L32 520H168L278 326H280L390 520H526L363 262L528 0H392L280 197H278L167 0H30Z" />
<glyph unicode="y" glyph-name="y" horiz-adv-x="555" d="M51 -130Q111 -120 148 -101T207 -45T240 49L246 -39L7 520H139L285 125H287L416 520H547L347 1Q319 -71 283 -118T198 -191T76 -230L51 -130Z" />
<glyph unicode="z" glyph-name="z" horiz-adv-x="550" d="M57 0V98L335 420V422H57V520H493V422L215 100V98H493V0H57Z" />
<glyph unicode="{" glyph-name="braceleft" horiz-adv-x="515" d="M336 -110Q258 -110 223 -73T187 47V157Q187 217 167 246T101 275H57V385H101Q146 385 166 414T187 503V613Q187 697 222 733T336 770H445V669H397Q357 669 337 661T310 632T303 567V491Q303 426
280 388T207 331V329Q257 310 280 272T303 169V93Q303 50 310 29T337 -1T397 -9H445V-110H336Z" />
<glyph unicode="|" glyph-name="bar" horiz-adv-x="350" d="M117 -210V810H233V-210H117Z" />
<glyph unicode="}" glyph-name="braceright" horiz-adv-x="515" d="M179 -110H70V-9H118Q158 -9 178 -1T205 28T213 93V169Q213 234 235 272T308 329V331Q258 350 236 388T213 491V567Q213 610 206 631T178 661T118 669H70V770H179Q258 770 293 734T328 613V503Q328
443 349 414T414 385H458V275H414Q370 275 349 246T328 157V47Q328 -36 293 -73T179 -110Z" />
<glyph unicode="~" glyph-name="asciitilde" horiz-adv-x="721" d="M57 209Q57 309 91 356T194 403Q232 403 281 390T391 350Q434 332 461 324T509 316Q537 316 547 332T557 393H664Q664 328 649 285T603 222T527 201Q489 201 441 214T330 254Q287 273 260 280T212
288Q184 288 174 272T164 209H57Z" />
<glyph unicode="&#xa0;" glyph-name="uni00A0" horiz-adv-x="277" />
<glyph unicode="&#xa1;" glyph-name="exclamdown" horiz-adv-x="338" d="M113 304H226L243 -210H95L113 304ZM169 530Q205 530 226 510T247 453Q247 418 226 398T169 377Q133 377 112 397T91 453Q91 489 112 509T169 530Z" />
<glyph unicode="&#xa2;" glyph-name="cent" horiz-adv-x="574" d="M327 -10Q236 -10 171 22T72 115T37 260Q37 345 71 405T171 497T327 530Q377 530 425 521T515 492L493 397Q455 414 415 423T336 432Q252 432 206 387T160 260Q160 179 206 134T336 88Q374 88
414 97T493 123L515 28Q474 9 426 0T327 -10ZM297 -105V625H387V-105H297Z" />
<glyph unicode="&#xa3;" glyph-name="sterling" horiz-adv-x="670" d="M89 108Q121 110 144 130T179 184T192 264V533Q192 632 254 686T432 740Q506 740 579 714L557 608Q528 621 502 626T446 632Q378 632 348 604T317 514V264Q317 211 298 170T245 110V108H604V0H89V108ZM89
333V431H541V333H89Z" />
<glyph unicode="&#xa4;" glyph-name="currency" horiz-adv-x="702" d="M353 128Q287 128 233 159T147 245T115 365Q115 431 147 485T233 570T353 602Q418 602 472 571T558 485T590 365Q590 299 558 245T473 160T353 128ZM353 238Q388 238 416 255T462 301T480
365Q480 400 463 428T416 474T353 492Q318 492 289 475T243 430T226 365Q226 330 243 302T289 256T353 238ZM134 73L59 147L178 267L252 191L134 73ZM568 73L449 192L523 267L642 147L568 73ZM178 462L59 582L134 656L252 536L178 462ZM523 462L449 537L568 657L643
582L523 462Z" />
<glyph unicode="&#xa5;" glyph-name="yen" horiz-adv-x="690" d="M280 0V288L7 730H149L344 390H346L541 730H682L410 288V0H280ZM61 118V213H627V118H61ZM61 288V383H627V288H61Z" />
<glyph unicode="&#xa6;" glyph-name="brokenbar" horiz-adv-x="350" d="M117 370V810H233V370H117ZM117 -220V220H233V-220H117Z" />
<glyph unicode="&#xa7;" glyph-name="section" horiz-adv-x="570" d="M335 200Q365 210 384 235T403 293Q403 318 392 334T352 363T275 385Q201 401 155 425T87 483T66 567Q66 649 123 694T285 740Q338 740 391 729T494 696L466 600Q421 621 380 630T296 640Q238
640 210 622T182 567Q182 544 192 528T227 500T289 482Q398 463 451 417T504 297Q504 231 462 187T342 127L335 200ZM285 -120Q232 -120 179 -109T76 -76L104 20Q150 -1 190 -10T274 -20Q332 -20 360 -2T388 53Q388 77 378 93T344 121T281 138Q172 158 119 204T66
323Q66 389 108 433T229 493L235 420Q205 410 186 385T167 327Q167 302 178 286T218 258T295 235Q370 219 416 196T483 137T504 53Q504 -29 448 -74T285 -120Z" />
<glyph unicode="&#xa8;" glyph-name="dieresis" horiz-adv-x="463" d="M107 589Q71 589 50 609T29 665Q29 700 50 720T107 741Q143 741 164 721T185 665Q185 630 164 610T107 589ZM355 589Q319 589 298 609T277 665Q277 700 298 720T355 741Q392 741 413 721T434
665Q434 630 413 610T355 589Z" />
<glyph unicode="&#xa9;" glyph-name="copyright" horiz-adv-x="843" d="M422 -6Q341 -6 272 22T151 100T70 219T41 365Q41 444 70 511T150 629T271 708T422 736Q503 736 572 708T693 630T774 512T803 365Q803 287 774 219T693 101T572 22T422 -6ZM441 140Q370
140 319 167T240 244T212 365Q212 436 239 486T318 563T441 590Q523 590 586 554L553 463Q499 494 444 494Q385 494 353 461T321 365Q321 303 353 270T444 236Q499 236 553 267L586 177Q524 140 441 140ZM422 68Q487 68 543 90T640 153T705 248T728 365Q728 428
705 482T641 576T543 639T422 662Q356 662 300 640T203 577T138 482T115 365Q115 302 138 248T202 154T300 91T422 68Z" />
<glyph unicode="&#xaa;" glyph-name="ordfeminine" horiz-adv-x="454" d="M160 306Q98 306 63 340T27 432Q27 505 84 544T246 583H293Q293 610 287 624T266 644T220 650Q184 650 146 644T74 627L58 714Q95 725 141 731T234 738Q327 738 364 702T401 576V314H298L297
352H295Q272 331 235 319T160 306ZM196 392Q223 392 245 401T280 427T293 464V505H259Q195 505 164 489T132 441Q132 417 148 405T196 392Z" />
<glyph unicode="&#xab;" glyph-name="guillemotleft" horiz-adv-x="515" d="M165 0L8 260L165 520H277L118 260L277 0H165ZM373 0L216 260L373 520H485L326 260L485 0H373Z" />
<glyph unicode="&#xac;" glyph-name="logicalnot" horiz-adv-x="730" d="M529 118V351H57V462H640V118H529Z" />
<glyph unicode="&#xad;" glyph-name="uni00AD" horiz-adv-x="431" d="M57 234V346H374V234H57Z" />
<glyph unicode="&#xae;" glyph-name="registered" horiz-adv-x="843" d="M422 -6Q341 -6 272 22T151 100T70 219T41 365Q41 444 70 511T150 629T271 708T422 736Q503 736 572 708T693 630T774 512T803 365Q803 287 774 219T693 101T572 22T422 -6ZM422 68Q487
68 543 90T640 153T705 248T728 365Q728 428 705 482T641 576T543 639T422 662Q356 662 300 640T203 577T138 482T115 365Q115 302 138 248T202 154T300 91T422 68ZM276 146V584H410Q509 584 555 550T601 444Q601 373 557 338T424 302H313V386H413Q455 386 473
399T492 440Q492 469 474 482T413 495H382V146H276ZM489 146L353 350H461L611 146H489Z" />
<glyph unicode="&#xaf;" glyph-name="overscore" horiz-adv-x="443" d="M29 618V712H414V618H29Z" />
<glyph unicode="&#xb0;" glyph-name="degree" horiz-adv-x="425" d="M213 389Q163 389 123 412T60 475T37 565Q37 615 60 654T123 717T213 740Q263 740 302 717T365 655T388 565Q388 515 365 475T303 412T213 389ZM212 475Q238 475 258 486T290 518T302 564Q302
590 291 610T259 642T212 654Q186 654 166 643T135 611T123 565Q123 539 134 519T166 487T212 475Z" />
<glyph unicode="&#xb1;" glyph-name="plusminus" horiz-adv-x="759" d="M324 192V407H89V515H324V730H435V515H669V407H435V192H324ZM89 0V108H669V0H89Z" />
<glyph unicode="&#xb2;" glyph-name="uni00B2" horiz-adv-x="383" d="M40 387Q92 426 128 456T185 510T216 554T226 593Q226 616 212 628T169 640Q120 640 57 598L26 686Q58 709 101 722T187 736Q256 736 295 703T335 609Q335 576 321 543T276 471T197 389V387H339V292H40V387Z"
/>
<glyph unicode="&#xb3;" glyph-name="uni00B3" horiz-adv-x="383" d="M172 286Q133 286 98 295T24 324L55 411Q83 397 112 389T168 381Q200 381 217 393T234 427Q234 452 211 462T125 472H98V564H125Q173 564 201 577T229 612Q229 627 215 634T174 642Q148 642
121 635T60 611L34 699Q75 719 108 727T181 736Q256 736 295 710T335 632Q335 592 311 565T240 523V522Q291 516 317 489T343 416Q343 355 298 321T172 286Z" />
<glyph unicode="&#xb4;" glyph-name="acute" horiz-adv-x="309" d="M163 570H43L129 790H283L163 570Z" />
<glyph unicode="&#xb5;" glyph-name="uni00B5" horiz-adv-x="593" d="M66 -220V520H188V223Q188 155 211 123T284 91Q322 91 351 107T396 150T413 212V520H535V0H419L418 61H415Q384 26 343 8T246 -10Q169 -10 127 26L188 73V-220H66Z" />
<glyph unicode="&#xb6;" glyph-name="paragraph" horiz-adv-x="647" d="M242 270Q179 270 127 301T43 384T12 500Q12 564 43 616T126 699T242 730H566V-110H461V636H347V-110H242V270Z" />
<glyph unicode="&#xb7;" glyph-name="middot" horiz-adv-x="271" d="M136 209Q100 209 79 230T57 286Q57 322 78 343T136 364Q172 364 193 343T214 286Q214 251 193 230T136 209Z" />
<glyph unicode="&#xb8;" glyph-name="cedilla" horiz-adv-x="401" d="M174 -217Q109 -217 57 -197L74 -104Q95 -113 118 -118T164 -123Q186 -123 200 -119T222 -107T230 -87Q230 -68 209 -45T147 0L257 28Q300 -4 322 -37T344 -107Q344 -142 324 -166T266 -204T174 -217Z" />
<glyph unicode="&#xb9;" glyph-name="uni00B9" horiz-adv-x="383" d="M161 292V591H159L49 483L12 585L161 730H268V292H161Z" />
<glyph unicode="&#xba;" glyph-name="ordmasculine" horiz-adv-x="488" d="M243 306Q147 306 90 364T33 522Q33 622 90 680T243 738Q341 738 397 680T454 522Q454 423 398 365T243 306ZM244 394Q294 394 320 427T347 522Q347 584 321 617T244 650Q195 650 168
617T141 522Q141 460 168 427T244 394Z" />
<glyph unicode="&#xbb;" glyph-name="guillemotright" horiz-adv-x="515" d="M351 0H238L398 260L238 520H351L507 260L351 0ZM143 0H30L190 260L30 520H143L299 260L143 0Z" />
<glyph unicode="&#xbc;" glyph-name="onequarter" horiz-adv-x="877" d="M189 0L586 730H698L302 0H189ZM172 292V591H170L60 483L24 585L172 730H280V292H172ZM677 0V68H466V163L686 438H784V163H837V68H784V0H677ZM573 157H683V296H681L573 159V157Z" />
<glyph unicode="&#xbd;" glyph-name="onehalf" horiz-adv-x="907" d="M189 0L586 730H698L302 0H189ZM172 292V591H170L60 483L24 585L172 730H280V292H172ZM551 95Q603 134 638 164T696 218T727 262T737 301Q737 324 723 336T679 348Q631 348 568 306L537 394Q569
417 612 430T698 444Q767 444 806 411T846 317Q846 284 832 251T787 179T708 97V95H850V0H551V95Z" />
<glyph unicode="&#xbe;" glyph-name="threequarters" horiz-adv-x="898" d="M209 0L606 730H718L322 0H209ZM698 0V68H486V163L706 438H804V163H857V68H804V0H698ZM593 157H703V296H701L593 159V157ZM189 286Q150 286 115 295T41 324L72 411Q100 397 129 389T185
381Q217 381 234 393T251 427Q251 452 228 462T142 472H115V564H142Q190 564 218 577T246 612Q246 627 232 634T191 642Q165 642 138 635T77 611L51 699Q92 719 125 727T198 736Q273 736 312 710T352 632Q352 592 328 565T257 523V522Q308 516 334 489T360 416Q360
355 315 321T189 286Z" />
<glyph unicode="&#xbf;" glyph-name="questiondown" horiz-adv-x="581" d="M365 304Q365 262 356 224T323 152T255 86Q204 50 183 23T162 -35Q162 -74 196 -91T306 -109Q360 -109 411 -101T521 -73L546 -182Q489 -200 423 -210T289 -220Q32 -220 32 -53Q32 4 61
48T158 140Q189 162 206 188T232 243T240 304H365ZM302 530Q338 530 359 510T380 453Q380 418 359 398T302 377Q266 377 245 397T224 453Q224 489 245 509T302 530Z" />
<glyph unicode="&#xc0;" glyph-name="Agrave" horiz-adv-x="710" d="M12 0L271 730H440L698 0H561L356 624H354L149 0H12ZM154 175V286H557V175H154ZM301 780L180 1000H334L420 780H301Z" />
<glyph unicode="&#xc1;" glyph-name="Aacute" horiz-adv-x="710" d="M12 0L271 730H440L698 0H561L356 624H354L149 0H12ZM154 175V286H557V175H154ZM415 780H295L381 1000H535L415 780Z" />
<glyph unicode="&#xc2;" glyph-name="Acircumflex" horiz-adv-x="710" d="M12 0L271 730H440L698 0H561L356 624H354L149 0H12ZM154 175V286H557V175H154ZM126 780L281 1000H428L584 780H441L356 914H354L269 780H126Z" />
<glyph unicode="&#xc3;" glyph-name="Atilde" horiz-adv-x="710" d="M12 0L271 730H440L698 0H561L356 624H354L149 0H12ZM154 175V286H557V175H154ZM474 787Q448 787 418 799T346 837Q320 854 298 864T265 874Q251 874 245 856T238 796H130Q130 982 236 982Q262
982 292 970T364 931Q391 914 412 904T445 894Q459 894 465 913T472 972H580Q580 787 474 787Z" />
<glyph unicode="&#xc4;" glyph-name="Adieresis" horiz-adv-x="710" d="M12 0L271 730H440L698 0H561L356 624H354L149 0H12ZM154 175V286H557V175H154ZM231 799Q195 799 174 819T153 875Q153 910 174 930T231 951Q267 951 288 931T309 875Q309 840 288 820T231
799ZM479 799Q443 799 422 819T401 875Q401 910 422 930T479 951Q516 951 537 931T558 875Q558 840 537 820T479 799Z" />
<glyph unicode="&#xc5;" glyph-name="Aring" horiz-adv-x="710" d="M12 0L271 730H440L698 0H561L356 624H354L149 0H12ZM154 175V286H557V175H154ZM356 671Q315 671 280 691T224 747T203 824Q203 867 223 901T279 956T356 977Q399 977 434 957T489 902T510 824Q510
782 490 747T434 692T356 671ZM356 762Q382 762 400 780T418 824Q418 850 400 868T356 886Q331 886 313 868T295 824Q295 799 313 781T356 762Z" />
<glyph unicode="&#xc6;" glyph-name="AE" horiz-adv-x="910" d="M12 0L331 730H845V622H557V434H824V328H557V108H845V0H433V629H410L150 0H12ZM168 175V286H501V175H168Z" />
<glyph unicode="&#xc7;" glyph-name="Ccedilla" horiz-adv-x="713" d="M423 -10Q304 -10 218 35T87 164T41 365Q41 483 86 566T218 695T423 740Q559 740 664 681L635 571Q533 629 427 629Q348 629 290 598T201 507T170 365Q170 283 201 224T290 133T427 101Q530
101 635 159L664 49Q559 -10 423 -10ZM355 -217Q290 -217 238 -197L255 -104Q276 -113 299 -118T345 -123Q367 -123 381 -119T403 -107T411 -87Q411 -68 390 -45T328 0L438 28Q481 -4 503 -37T525 -107Q525 -142 505 -166T447 -204T355 -217Z" />
<glyph unicode="&#xc8;" glyph-name="Egrave" horiz-adv-x="634" d="M81 0V730H569V622H206V434H549V328H206V108H569V0H81ZM270 780L149 1000H303L389 780H270Z" />
<glyph unicode="&#xc9;" glyph-name="Eacute" horiz-adv-x="634" d="M81 0V730H569V622H206V434H549V328H206V108H569V0H81ZM385 780H265L351 1000H505L385 780Z" />
<glyph unicode="&#xca;" glyph-name="Ecircumflex" horiz-adv-x="634" d="M81 0V730H569V622H206V434H549V328H206V108H569V0H81ZM96 780L251 1000H398L554 780H411L326 914H324L239 780H96Z" />
<glyph unicode="&#xcb;" glyph-name="Edieresis" horiz-adv-x="634" d="M81 0V730H569V622H206V434H549V328H206V108H569V0H81ZM201 799Q165 799 144 819T123 875Q123 910 144 930T201 951Q237 951 258 931T279 875Q279 840 258 820T201 799ZM449 799Q413 799
392 819T371 875Q371 910 392 930T449 951Q486 951 507 931T528 875Q528 840 507 820T449 799Z" />
<glyph unicode="&#xcc;" glyph-name="Igrave" horiz-adv-x="308" d="M89 0V730H219V0H89ZM100 780L-21 1000H133L219 780H100Z" />
<glyph unicode="&#xcd;" glyph-name="Iacute" horiz-adv-x="308" d="M89 0V730H219V0H89ZM214 780H94L180 1000H334L214 780Z" />
<glyph unicode="&#xce;" glyph-name="Icircumflex" horiz-adv-x="308" d="M89 0V730H219V0H89ZM-74 780L81 1000H228L384 780H241L156 914H154L69 780H-74Z" />
<glyph unicode="&#xcf;" glyph-name="Idieresis" horiz-adv-x="308" d="M89 0V730H219V0H89ZM30 799Q-6 799 -27 819T-48 875Q-48 910 -27 930T30 951Q66 951 87 931T108 875Q108 840 87 820T30 799ZM278 799Q242 799 221 819T200 875Q200 910 221 930T278 951Q315
951 336 931T357 875Q357 840 336 820T278 799Z" />
<glyph unicode="&#xd0;" glyph-name="Eth" horiz-adv-x="765" d="M27 316V414H446V316H27ZM346 -10Q304 -10 249 -7T137 4V726Q193 733 248 736T346 740Q477 740 560 701T684 578T724 365Q724 235 684 152T561 30T346 -10ZM354 100Q441 100 495 126T573 210T597
365Q597 461 573 519T495 604T354 630Q324 630 286 628T203 620L262 683V47L203 110Q248 105 286 103T354 100Z" />
<glyph unicode="&#xd1;" glyph-name="Ntilde" horiz-adv-x="748" d="M81 0V730H214L541 206H543V730H667V0H534L208 524H206V0H81ZM493 787Q467 787 437 799T365 837Q339 854 317 864T284 874Q270 874 264 856T257 796H149Q149 982 255 982Q281 982 311 970T383
931Q410 914 431 904T464 894Q478 894 484 913T491 972H599Q599 787 493 787Z" />
<glyph unicode="&#xd2;" glyph-name="Ograve" horiz-adv-x="833" d="M417 -10Q302 -10 218 36T87 166T41 365Q41 480 87 564T217 694T417 740Q533 740 617 694T747 564T793 365Q793 250 747 166T617 36T417 -10ZM417 101Q494 101 549 133T635 224T665 365Q665
447 635 506T550 597T417 629Q339 629 284 597T199 506T169 365Q169 283 198 224T283 133T417 101ZM362 780L241 1000H395L481 780H362Z" />
<glyph unicode="&#xd3;" glyph-name="Oacute" horiz-adv-x="833" d="M417 -10Q302 -10 218 36T87 166T41 365Q41 480 87 564T217 694T417 740Q533 740 617 694T747 564T793 365Q793 250 747 166T617 36T417 -10ZM417 101Q494 101 549 133T635 224T665 365Q665
447 635 506T550 597T417 629Q339 629 284 597T199 506T169 365Q169 283 198 224T283 133T417 101ZM477 780H357L443 1000H597L477 780Z" />
<glyph unicode="&#xd4;" glyph-name="Ocircumflex" horiz-adv-x="833" d="M417 -10Q302 -10 218 36T87 166T41 365Q41 480 87 564T217 694T417 740Q533 740 617 694T747 564T793 365Q793 250 747 166T617 36T417 -10ZM417 101Q494 101 549 133T635 224T665 365Q665
447 635 506T550 597T417 629Q339 629 284 597T199 506T169 365Q169 283 198 224T283 133T417 101ZM188 780L343 1000H490L646 780H503L418 914H416L331 780H188Z" />
<glyph unicode="&#xd5;" glyph-name="Otilde" horiz-adv-x="833" d="M417 -10Q302 -10 218 36T87 166T41 365Q41 480 87 564T217 694T417 740Q533 740 617 694T747 564T793 365Q793 250 747 166T617 36T417 -10ZM417 101Q494 101 549 133T635 224T665 365Q665
447 635 506T550 597T417 629Q339 629 284 597T199 506T169 365Q169 283 198 224T283 133T417 101ZM536 787Q510 787 480 799T408 837Q382 854 360 864T327 874Q313 874 307 856T300 796H192Q192 982 298 982Q324 982 354 970T426 931Q453 914 474 904T507 894Q521
894 527 913T534 972H642Q642 787 536 787Z" />
<glyph unicode="&#xd6;" glyph-name="Odieresis" horiz-adv-x="833" d="M417 -10Q302 -10 218 36T87 166T41 365Q41 480 87 564T217 694T417 740Q533 740 617 694T747 564T793 365Q793 250 747 166T617 36T417 -10ZM417 101Q494 101 549 133T635 224T665 365Q665
447 635 506T550 597T417 629Q339 629 284 597T199 506T169 365Q169 283 198 224T283 133T417 101ZM292 799Q256 799 235 819T214 875Q214 910 235 930T292 951Q328 951 349 931T370 875Q370 840 349 820T292 799ZM540 799Q504 799 483 819T462 875Q462 910 483
930T540 951Q577 951 598 931T619 875Q619 840 598 820T540 799Z" />
<glyph unicode="&#xd7;" glyph-name="multiply" horiz-adv-x="611" d="M108 15L30 93L227 290L30 487L108 565L305 369L503 565L581 487L384 290L581 93L503 15L305 211L108 15Z" />
<glyph unicode="&#xd8;" glyph-name="Oslash" horiz-adv-x="806" d="M175 -41L94 21L157 104L159 102L598 690L596 691L655 771L735 710L673 626L671 628L232 40L234 39L175 -41ZM417 -10Q302 -10 218 36T87 166T41 365Q41 480 87 564T217 694T417 740Q533 740
617 694T747 564T793 365Q793 250 747 166T617 36T417 -10ZM417 101Q494 101 549 133T635 224T665 365Q665 447 635 506T550 597T417 629Q339 629 284 597T199 506T169 365Q169 283 198 224T283 133T417 101Z" />
<glyph unicode="&#xd9;" glyph-name="Ugrave" horiz-adv-x="733" d="M367 -10Q217 -10 145 64T73 292V730H198V315Q198 235 214 189T267 122T367 101Q429 101 466 121T519 188T535 315V730H660V292Q660 138 588 64T367 -10ZM312 780L191 1000H345L431 780H312Z" />
<glyph unicode="&#xda;" glyph-name="Uacute" horiz-adv-x="733" d="M367 -10Q217 -10 145 64T73 292V730H198V315Q198 235 214 189T267 122T367 101Q429 101 466 121T519 188T535 315V730H660V292Q660 138 588 64T367 -10ZM426 780H306L392 1000H546L426 780Z" />
<glyph unicode="&#xdb;" glyph-name="Ucircumflex" horiz-adv-x="733" d="M367 -10Q217 -10 145 64T73 292V730H198V315Q198 235 214 189T267 122T367 101Q429 101 466 121T519 188T535 315V730H660V292Q660 138 588 64T367 -10ZM138 780L293 1000H440L596 780H453L368
914H366L281 780H138Z" />
<glyph unicode="&#xdc;" glyph-name="Udieresis" horiz-adv-x="733" d="M367 -10Q217 -10 145 64T73 292V730H198V315Q198 235 214 189T267 122T367 101Q429 101 466 121T519 188T535 315V730H660V292Q660 138 588 64T367 -10ZM242 799Q206 799 185 819T164 875Q164
910 185 930T242 951Q278 951 299 931T320 875Q320 840 299 820T242 799ZM490 799Q454 799 433 819T412 875Q412 910 433 930T490 951Q527 951 548 931T569 875Q569 840 548 820T490 799Z" />
<glyph unicode="&#xdd;" glyph-name="Yacute" horiz-adv-x="690" d="M280 0V270L7 730H149L344 381H346L541 730H682L410 270V0H280ZM405 780H285L371 1000H525L405 780Z" />
<glyph unicode="&#xde;" glyph-name="Thorn" horiz-adv-x="648" d="M314 118Q280 118 240 121T143 132L145 241Q200 234 235 231T299 228Q401 228 446 263T492 375Q492 452 447 487T299 522Q271 522 236 519T145 509L143 618Q200 625 240 628T314 632Q467 632
543 568T619 375Q619 247 543 183T314 118ZM81 0V730H206V0H81Z" />
<glyph unicode="&#xdf;" glyph-name="germandbls" horiz-adv-x="613" d="M378 -10Q351 -10 318 -6T248 7L262 111Q288 104 313 100T358 95Q402 95 427 114T453 166Q453 180 447 194T421 231T363 296Q332 331 319 353T306 394Q306 412 316 431T356 487Q386 522
394 544T403 582Q403 618 381 636T314 654Q256 654 226 617T196 508V0H73V510Q73 633 133 696T309 760Q413 760 467 717T522 591Q522 566 515 538T475 468Q450 435 440 421T430 399Q430 390 441 374T485 322Q519 286 538 258T566 204T574 152Q574 76 522 33T378
-10Z" />
<glyph unicode="&#xe0;" glyph-name="agrave" horiz-adv-x="557" d="M197 -10Q119 -10 75 32T30 148Q30 239 101 288T303 337H376Q376 389 349 410T257 432Q207 432 162 420T68 382L53 482Q102 506 155 518T272 530Q354 530 403 510T475 446T498 328V0H381L380
60H378Q351 29 300 10T197 -10ZM241 86Q278 86 309 99T358 136T376 188V251H321Q235 251 192 229T148 160Q148 126 172 106T241 86ZM215 570L94 790H248L334 570H215Z" />
<glyph unicode="&#xe1;" glyph-name="aacute" horiz-adv-x="557" d="M197 -10Q119 -10 75 32T30 148Q30 239 101 288T303 337H376Q376 389 349 410T257 432Q207 432 162 420T68 382L53 482Q102 506 155 518T272 530Q354 530 403 510T475 446T498 328V0H381L380
60H378Q351 29 300 10T197 -10ZM241 86Q278 86 309 99T358 136T376 188V251H321Q235 251 192 229T148 160Q148 126 172 106T241 86ZM330 570H210L296 790H450L330 570Z" />
<glyph unicode="&#xe2;" glyph-name="acircumflex" horiz-adv-x="557" d="M197 -10Q119 -10 75 32T30 148Q30 239 101 288T303 337H376Q376 389 349 410T257 432Q207 432 162 420T68 382L53 482Q102 506 155 518T272 530Q354 530 403 510T475 446T498 328V0H381L380
60H378Q351 29 300 10T197 -10ZM241 86Q278 86 309 99T358 136T376 188V251H321Q235 251 192 229T148 160Q148 126 172 106T241 86ZM41 570L196 790H343L499 570H356L271 704H269L184 570H41Z" />
<glyph unicode="&#xe3;" glyph-name="atilde" horiz-adv-x="557" d="M197 -10Q119 -10 75 32T30 148Q30 239 101 288T303 337H376Q376 389 349 410T257 432Q207 432 162 420T68 382L53 482Q102 506 155 518T272 530Q354 530 403 510T475 446T498 328V0H381L380
60H378Q351 29 300 10T197 -10ZM241 86Q278 86 309 99T358 136T376 188V251H321Q235 251 192 229T148 160Q148 126 172 106T241 86ZM389 577Q363 577 333 589T261 627Q235 644 213 654T180 664Q166 664 160 646T153 586H45Q45 772 151 772Q177 772 207 760T279
721Q306 704 327 694T360 684Q374 684 380 703T387 762H495Q495 577 389 577Z" />
<glyph unicode="&#xe4;" glyph-name="adieresis" horiz-adv-x="557" d="M197 -10Q119 -10 75 32T30 148Q30 239 101 288T303 337H376Q376 389 349 410T257 432Q207 432 162 420T68 382L53 482Q102 506 155 518T272 530Q354 530 403 510T475 446T498 328V0H381L380
60H378Q351 29 300 10T197 -10ZM241 86Q278 86 309 99T358 136T376 188V251H321Q235 251 192 229T148 160Q148 126 172 106T241 86ZM145 589Q109 589 88 609T67 665Q67 700 88 720T145 741Q181 741 202 721T223 665Q223 630 202 610T145 589ZM393 589Q357 589 336
609T315 665Q315 700 336 720T393 741Q430 741 451 721T472 665Q472 630 451 610T393 589Z" />
<glyph unicode="&#xe5;" glyph-name="aring" horiz-adv-x="557" d="M197 -10Q119 -10 75 32T30 148Q30 239 101 288T303 337H376Q376 389 349 410T257 432Q207 432 162 420T68 382L53 482Q102 506 155 518T272 530Q354 530 403 510T475 446T498 328V0H381L380
60H378Q351 29 300 10T197 -10ZM241 86Q278 86 309 99T358 136T376 188V251H321Q235 251 192 229T148 160Q148 126 172 106T241 86ZM270 585Q229 585 194 605T138 661T117 738Q117 781 137 815T193 870T270 891Q313 891 348 871T403 816T424 738Q424 696 404 661T348
606T270 585ZM270 676Q296 676 314 694T332 738Q332 764 314 782T270 800Q245 800 227 782T209 738Q209 713 227 695T270 676Z" />
<glyph unicode="&#xe6;" glyph-name="ae" horiz-adv-x="907" d="M240 86Q279 86 309 99T357 136T375 188V251H321Q235 251 192 229T149 160Q149 125 172 106T240 86ZM219 -10Q130 -10 80 31T30 148Q30 239 101 288T304 337H375Q375 389 349 410T257 432Q214 432
174 424T94 399L74 497Q119 513 167 521T272 530Q354 530 403 510T473 446T495 328V260Q495 179 461 118T365 24T219 -10ZM651 -10Q519 -10 447 60T375 260Q375 386 443 458T631 530Q746 530 809 462T872 269Q872 255 872 238T869 213H443V302H776L758 275Q758
357 727 396T631 436Q564 436 530 395T495 272V237Q495 163 534 126T652 88Q699 88 744 100T827 133L846 37Q808 15 758 3T651 -10Z" />
<glyph unicode="&#xe7;" glyph-name="ccedilla" horiz-adv-x="542" d="M322 -10Q232 -10 169 22T71 114T37 260Q37 345 71 405T168 498T322 530Q367 530 406 522T484 493L463 397Q428 415 396 423T330 432Q250 432 206 387T162 260Q162 178 206 133T330 88Q363
88 395 96T463 123L484 27Q446 8 407 -1T322 -10ZM266 -217Q201 -217 149 -197L166 -104Q187 -113 210 -118T256 -123Q278 -123 292 -119T314 -107T322 -87Q322 -68 301 -45T239 0L349 28Q392 -4 414 -37T436 -107Q436 -142 416 -166T358 -204T266 -217Z" />
<glyph unicode="&#xe8;" glyph-name="egrave" horiz-adv-x="569" d="M313 -10Q180 -10 109 60T37 260Q37 386 105 458T293 530Q408 530 471 462T534 269Q534 255 533 238T531 213H105V302H437L419 275Q419 357 388 396T293 436Q226 436 192 395T157 272V237Q157
163 196 126T314 88Q360 88 406 100T489 133L508 37Q470 15 420 3T313 -10ZM234 570L113 790H267L353 570H234Z" />
<glyph unicode="&#xe9;" glyph-name="eacute" horiz-adv-x="569" d="M313 -10Q180 -10 109 60T37 260Q37 386 105 458T293 530Q408 530 471 462T534 269Q534 255 533 238T531 213H105V302H437L419 275Q419 357 388 396T293 436Q226 436 192 395T157 272V237Q157
163 196 126T314 88Q360 88 406 100T489 133L508 37Q470 15 420 3T313 -10ZM349 570H229L315 790H469L349 570Z" />
<glyph unicode="&#xea;" glyph-name="ecircumflex" horiz-adv-x="569" d="M313 -10Q180 -10 109 60T37 260Q37 386 105 458T293 530Q408 530 471 462T534 269Q534 255 533 238T531 213H105V302H437L419 275Q419 357 388 396T293 436Q226 436 192 395T157 272V237Q157
163 196 126T314 88Q360 88 406 100T489 133L508 37Q470 15 420 3T313 -10ZM60 570L215 790H362L518 570H375L290 704H288L203 570H60Z" />
<glyph unicode="&#xeb;" glyph-name="edieresis" horiz-adv-x="569" d="M313 -10Q180 -10 109 60T37 260Q37 386 105 458T293 530Q408 530 471 462T534 269Q534 255 533 238T531 213H105V302H437L419 275Q419 357 388 396T293 436Q226 436 192 395T157 272V237Q157
163 196 126T314 88Q360 88 406 100T489 133L508 37Q470 15 420 3T313 -10ZM164 589Q128 589 107 609T86 665Q86 700 107 720T164 741Q200 741 221 721T242 665Q242 630 221 610T164 589ZM412 589Q376 589 355 609T334 665Q334 700 355 720T412 741Q449 741 470
721T491 665Q491 630 470 610T412 589Z" />
<glyph unicode="&#xec;" glyph-name="igrave" horiz-adv-x="286" d="M81 0V520H205V0H81ZM345 570L224 790H378L464 570H345Z" />
<glyph unicode="&#xed;" glyph-name="iacute" horiz-adv-x="286" d="M81 0V520H205V0H81ZM203 570H83L169 790H323L203 570Z" />
<glyph unicode="&#xee;" glyph-name="icircumflex" horiz-adv-x="286" d="M81 0V520H205V0H81ZM170 570L325 790H472L628 570H485L400 704H398L313 570H170Z" />
<glyph unicode="&#xef;" glyph-name="idieresis" horiz-adv-x="286" d="M81 0V520H205V0H81ZM275 589Q239 589 218 609T197 665Q197 700 218 720T275 741Q311 741 332 721T353 665Q353 630 332 610T275 589ZM523 589Q487 589 466 609T445 665Q445 700 466 720T523
741Q560 741 581 721T602 665Q602 630 581 610T523 589Z" />
<glyph unicode="&#xf0;" glyph-name="eth" horiz-adv-x="601" d="M295 -10Q174 -10 106 57T37 244Q37 355 101 417T278 480Q319 480 351 470T408 440L410 441Q396 493 369 536T303 612T217 666T116 694L139 790Q214 781 278 752T393 676T480 567T535 428T554 266Q554
132 488 61T295 -10ZM295 87Q361 87 396 128T432 244Q432 317 398 352T295 388Q227 388 193 353T159 244Q159 169 194 128T295 87ZM120 487L80 578L520 753L560 662L120 487Z" />
<glyph unicode="&#xf1;" glyph-name="ntilde" horiz-adv-x="612" d="M73 0V520H190L191 450H193Q228 491 271 510T371 530Q466 530 509 475T553 300V0H431V277Q431 354 407 391T333 429Q295 429 264 410T214 360T196 290V0H73ZM428 577Q402 577 372 589T300 627Q274
644 252 654T219 664Q205 664 199 646T192 586H84Q84 772 190 772Q216 772 246 760T318 721Q345 704 366 694T399 684Q413 684 419 703T426 762H534Q534 577 428 577Z" />
<glyph unicode="&#xf2;" glyph-name="ograve" horiz-adv-x="601" d="M300 -10Q220 -10 161 23T69 117T37 260Q37 343 69 403T160 497T300 530Q381 530 440 497T531 404T564 260Q564 178 532 117T440 23T300 -10ZM300 88Q367 88 404 133T441 260Q441 343 404 387T300
432Q233 432 196 388T159 260Q159 178 196 133T300 88ZM246 570L125 790H279L365 570H246Z" />
<glyph unicode="&#xf3;" glyph-name="oacute" horiz-adv-x="601" d="M300 -10Q220 -10 161 23T69 117T37 260Q37 343 69 403T160 497T300 530Q381 530 440 497T531 404T564 260Q564 178 532 117T440 23T300 -10ZM300 88Q367 88 404 133T441 260Q441 343 404 387T300
432Q233 432 196 388T159 260Q159 178 196 133T300 88ZM360 570H240L326 790H480L360 570Z" />
<glyph unicode="&#xf4;" glyph-name="ocircumflex" horiz-adv-x="601" d="M300 -10Q220 -10 161 23T69 117T37 260Q37 343 69 403T160 497T300 530Q381 530 440 497T531 404T564 260Q564 178 532 117T440 23T300 -10ZM300 88Q367 88 404 133T441 260Q441 343 404
387T300 432Q233 432 196 388T159 260Q159 178 196 133T300 88ZM72 570L227 790H374L530 570H387L302 704H300L215 570H72Z" />
<glyph unicode="&#xf5;" glyph-name="otilde" horiz-adv-x="601" d="M300 -10Q220 -10 161 23T69 117T37 260Q37 343 69 403T160 497T300 530Q381 530 440 497T531 404T564 260Q564 178 532 117T440 23T300 -10ZM300 88Q367 88 404 133T441 260Q441 343 404 387T300
432Q233 432 196 388T159 260Q159 178 196 133T300 88ZM419 577Q393 577 363 589T291 627Q265 644 243 654T210 664Q196 664 190 646T183 586H75Q75 772 181 772Q207 772 237 760T309 721Q336 704 357 694T390 684Q404 684 410 703T417 762H525Q525 577 419 577Z"
/>
<glyph unicode="&#xf6;" glyph-name="odieresis" horiz-adv-x="601" d="M300 -10Q220 -10 161 23T69 117T37 260Q37 343 69 403T160 497T300 530Q381 530 440 497T531 404T564 260Q564 178 532 117T440 23T300 -10ZM300 88Q367 88 404 133T441 260Q441 343 404
387T300 432Q233 432 196 388T159 260Q159 178 196 133T300 88ZM176 589Q140 589 119 609T98 665Q98 700 119 720T176 741Q212 741 233 721T254 665Q254 630 233 610T176 589ZM424 589Q388 589 367 609T346 665Q346 700 367 720T424 741Q461 741 482 721T503 665Q503
630 482 610T424 589Z" />
<glyph unicode="&#xf7;" glyph-name="divide" horiz-adv-x="694" d="M57 234V346H637V234H57ZM347 -3Q317 -3 296 18T274 70Q274 100 295 121T347 142Q377 142 398 121T420 70Q420 40 399 19T347 -3ZM347 438Q317 438 296 459T274 511Q274 541 295 562T347 583Q377
583 398 562T420 511Q420 481 399 460T347 438Z" />
<glyph unicode="&#xf8;" glyph-name="oslash" horiz-adv-x="583" d="M138 -35L71 15L121 82L122 81L424 487L422 488L471 555L538 505L489 438L488 439L186 33L187 32L138 -35ZM300 -10Q220 -10 161 23T69 117T37 260Q37 343 69 403T160 497T300 530Q381 530 440
497T531 404T564 260Q564 178 532 117T440 23T300 -10ZM300 88Q367 88 404 133T441 260Q441 343 404 387T300 432Q233 432 196 388T159 260Q159 178 196 133T300 88Z" />
<glyph unicode="&#xf9;" glyph-name="ugrave" horiz-adv-x="602" d="M235 -10Q144 -10 102 46T59 220V520H182V243Q182 165 204 128T274 91Q310 91 340 110T388 160T406 230V520H529V0H412L411 70H409Q375 30 333 10T235 -10ZM243 570L122 790H276L362 570H243Z" />
<glyph unicode="&#xfa;" glyph-name="uacute" horiz-adv-x="602" d="M235 -10Q144 -10 102 46T59 220V520H182V243Q182 165 204 128T274 91Q310 91 340 110T388 160T406 230V520H529V0H412L411 70H409Q375 30 333 10T235 -10ZM358 570H238L324 790H478L358 570Z" />
<glyph unicode="&#xfb;" glyph-name="ucircumflex" horiz-adv-x="602" d="M235 -10Q144 -10 102 46T59 220V520H182V243Q182 165 204 128T274 91Q310 91 340 110T388 160T406 230V520H529V0H412L411 70H409Q375 30 333 10T235 -10ZM69 570L224 790H371L527 570H384L299
704H297L212 570H69Z" />
<glyph unicode="&#xfc;" glyph-name="udieresis" horiz-adv-x="602" d="M235 -10Q144 -10 102 46T59 220V520H182V243Q182 165 204 128T274 91Q310 91 340 110T388 160T406 230V520H529V0H412L411 70H409Q375 30 333 10T235 -10ZM173 589Q137 589 116 609T95 665Q95
700 116 720T173 741Q209 741 230 721T251 665Q251 630 230 610T173 589ZM421 589Q385 589 364 609T343 665Q343 700 364 720T421 741Q458 741 479 721T500 665Q500 630 479 610T421 589Z" />
<glyph unicode="&#xfd;" glyph-name="yacute" horiz-adv-x="555" d="M51 -130Q111 -120 148 -101T207 -45T240 49L246 -39L7 520H139L285 125H287L416 520H547L347 1Q319 -71 283 -118T198 -191T76 -230L51 -130ZM335 570H215L301 790H455L335 570Z" />
<glyph unicode="&#xfe;" glyph-name="thorn" horiz-adv-x="618" d="M73 -240V760H196V453H198Q229 492 270 511T362 530Q466 530 523 459T581 260Q581 132 524 61T362 -10Q311 -10 270 9T198 67H196V-240H73ZM328 90Q392 90 426 134T460 260Q460 342 426 386T328
430Q287 430 257 411T212 358T196 280V240Q196 195 211 162T257 109T328 90Z" />
<glyph unicode="&#xff;" glyph-name="ydieresis" horiz-adv-x="555" d="M51 -130Q111 -120 148 -101T207 -45T240 49L246 -39L7 520H139L285 125H287L416 520H547L347 1Q319 -71 283 -118T198 -191T76 -230L51 -130ZM150 589Q114 589 93 609T72 665Q72 700 93
720T150 741Q186 741 207 721T228 665Q228 630 207 610T150 589ZM398 589Q362 589 341 609T320 665Q320 700 341 720T398 741Q435 741 456 721T477 665Q477 630 456 610T398 589Z" />
<glyph unicode="&#x2013;" glyph-name="endash" horiz-adv-x="500" d="M0 234V346H500V234H0Z" />
<glyph unicode="&#x2014;" glyph-name="emdash" horiz-adv-x="1000" d="M0 234V346H1000V234H0Z" />
<glyph unicode="&#x2018;" glyph-name="quoteleft" horiz-adv-x="292" d="M250 770L169 470H26L141 770H250Z" />
<glyph unicode="&#x2019;" glyph-name="quoteright" horiz-adv-x="292" d="M43 470L124 770H267L151 470H43Z" />
<glyph unicode="&#x201a;" glyph-name="quotesinglbase" horiz-adv-x="333" d="M45 -100L126 200H269L153 -100H45Z" />
<glyph unicode="&#x201c;" glyph-name="quotedblleft" horiz-adv-x="513" d="M250 770L169 470H26L141 770H250ZM470 770L389 470H246L362 770H470Z" />
<glyph unicode="&#x201d;" glyph-name="quotedblright" horiz-adv-x="513" d="M43 470L124 770H267L151 470H43ZM264 470L345 770H488L372 470H264Z" />
<glyph unicode="&#x201e;" glyph-name="quotedblbase" horiz-adv-x="554" d="M45 -100L126 200H269L153 -100H45ZM266 -100L347 200H490L374 -100H266Z" />
<glyph unicode="&#x2022;" glyph-name="bullet" horiz-adv-x="357" d="M179 183Q148 183 124 197T85 235T71 290Q71 321 85 345T123 383T179 397Q210 397 234 384T272 346T286 291Q286 260 272 236T234 197T179 183Z" />
<glyph unicode="&#x2039;" glyph-name="guilsinglleft" horiz-adv-x="314" d="M168 0L8 260L168 520H284L120 260L284 0H168Z" />
<glyph unicode="&#x203a;" glyph-name="guilsinglright" horiz-adv-x="314" d="M146 0H30L193 260L30 520H146L306 260L146 0Z" />
</font>
</defs>
</svg>
