<?xml version="1.0" standalone="no"?>
<!DOCTYPE svg PUBLIC "-//W3C//DTD SVG 1.1//EN" "http://www.w3.org/Graphics/SVG/1.1/DTD/svg11.dtd">
<svg xmlns="http://www.w3.org/2000/svg">
<defs >
<font id="MPLUS2" horiz-adv-x="968" ><font-face
    font-family="M PLUS 2 Light"
    units-per-em="1000"
    panose-1="0 0 0 0 0 0 0 0 0 0"
    ascent="1160"
    descent="-288"
    alphabetic="0" />
<glyph unicode=" " glyph-name="space" horiz-adv-x="293" />
<glyph unicode="!" glyph-name="exclam" horiz-adv-x="317" d="M135 197L130 730H187L182 197H135ZM159 -6Q138 -6 125 7T112 41Q112 61 125 74T159 87Q179 87 192 74T205 41Q205 20 192 7T159 -6Z" />
<glyph unicode="&quot;" glyph-name="quotedbl" horiz-adv-x="448" d="M106 470L102 770H156L151 470H106ZM297 470L292 770H347L342 470H297Z" />
<glyph unicode="#" glyph-name="numbersign" horiz-adv-x="668" d="M133 0L169 203H51V248H177L221 502H104V547H230L262 730H309L277 547H453L485 730H532L500 547H617V502H492L448 248H564V203H439L403 0H356L392 203H216L180 0H133ZM221 229L206 248H418L397
229L448 522L463 502H251L272 522L221 229Z" />
<glyph unicode="$" glyph-name="dollar" horiz-adv-x="636" d="M315 -10Q246 -10 182 8T70 61L86 104Q133 72 192 54T315 36Q412 36 464 75T517 185Q517 226 498 256T434 312T313 362Q228 391 177 421T102 487T78 571Q78 653 141 696T320 740Q386 740 445 726T555
682L540 638Q488 667 436 680T322 694Q228 694 179 663T130 571Q130 537 149 510T210 458T324 410Q413 380 466 348T543 278T567 186Q567 93 501 42T315 -10ZM308 -105V15H353V-105H308ZM308 15V382H353V15H308ZM308 382V715H353V382H308ZM308 715V835H353V715H308Z"
/>
<glyph unicode="%" glyph-name="percent" horiz-adv-x="876" d="M207 0L618 730H670L259 0H207ZM216 286Q134 286 93 342T51 511Q51 623 92 679T216 736Q298 736 339 680T381 511Q381 399 340 343T216 286ZM216 329Q275 329 304 373T334 511Q334 604 305 648T216
693Q157 693 128 649T98 511Q98 418 127 374T216 329ZM660 -6Q578 -6 537 50T495 219Q495 331 536 387T660 444Q742 444 783 388T825 219Q825 107 784 51T660 -6ZM660 37Q719 37 748 81T778 219Q778 312 749 356T660 401Q601 401 572 357T542 219Q542 126 571 82T660
37Z" />
<glyph unicode="&amp;" glyph-name="ampersand" horiz-adv-x="697" d="M285 -10Q214 -10 161 11T80 72T51 165Q51 206 71 242T142 318T278 411Q345 453 382 483T434 538T450 592Q450 641 411 670T301 700Q232 700 192 671T152 592Q152 576 157 562T176 528T213
484T274 421L701 0H639L226 405Q178 452 152 484T115 541T104 593Q104 660 157 700T301 740Q391 740 444 700T498 593Q498 558 480 526T419 458T303 377Q225 330 181 295T119 231T101 168Q101 106 151 70T287 33Q360 33 428 60T543 134V422H589V109Q549 72 500
45T397 4T285 -10Z" />
<glyph unicode="&apos;" glyph-name="quotesingle" horiz-adv-x="260" d="M107 470L102 770H158L153 470H107Z" />
<glyph unicode="(" glyph-name="parenleft" horiz-adv-x="390" d="M257 -110Q189 -13 155 96T120 330Q120 455 154 564T257 770H309Q239 671 205 564T171 330Q171 204 205 97T309 -110H257Z" />
<glyph unicode=")" glyph-name="parenright" horiz-adv-x="390" d="M132 -110H81Q152 -11 185 96T219 330Q219 456 186 563T81 770H132Q201 674 235 565T270 330Q270 206 236 97T132 -110Z" />
<glyph unicode="*" glyph-name="asterisk" horiz-adv-x="504" d="M144 351L107 378L217 527L41 583L54 626L230 568V753H274L273 568L450 626L463 583L286 527L396 378L360 351L252 502L144 351Z" />
<glyph unicode="+" glyph-name="plus" horiz-adv-x="708" d="M331 0V267H64V313H331V580H377V313H644V267H377V0H331Z" />
<glyph unicode="," glyph-name="comma" horiz-adv-x="315" d="M56 -170L153 130H210L104 -170H56Z" />
<glyph unicode="-" glyph-name="hyphen" horiz-adv-x="411" d="M64 267V313H347V267H64Z" />
<glyph unicode="." glyph-name="period" horiz-adv-x="317" d="M159 -6Q138 -6 125 7T112 41Q112 61 125 74T159 87Q179 87 192 74T205 41Q205 20 192 7T159 -6Z" />
<glyph unicode="/" glyph-name="slash" horiz-adv-x="442" d="M19 -40L371 770H423L70 -40H19Z" />
<glyph unicode="0" glyph-name="zero" horiz-adv-x="627" d="M313 -10Q177 -10 108 84T38 365Q38 552 107 646T313 740Q450 740 519 646T588 365Q588 179 519 85T313 -10ZM313 36Q426 36 482 118T538 365Q538 530 482 612T313 694Q201 694 145 612T89 365Q89 201
145 119T313 36Z" />
<glyph unicode="1" glyph-name="one" horiz-adv-x="627" d="M378 0V670H376L84 500L65 542L378 730H428V0H378Z" />
<glyph unicode="2" glyph-name="two" horiz-adv-x="627" d="M70 46Q189 140 269 211T398 338T467 441T488 532Q488 694 306 694Q187 694 75 616L56 658Q168 740 311 740Q423 740 480 689T538 537Q538 487 519 438T454 332T333 206T149 48V46H548V0H70V46Z" />
<glyph unicode="3" glyph-name="three" horiz-adv-x="627" d="M275 -10Q211 -10 158 5T48 54L65 96Q118 64 166 50T273 36Q381 36 438 80T496 207Q496 290 430 327T214 364H164V409H214Q339 409 410 451T481 566Q481 627 432 660T291 694Q254 694 221 688T154
669T83 635L67 678Q105 700 141 713T216 733T295 740Q407 740 469 696T531 573Q531 505 485 458T349 391V389Q451 375 498 330T546 205Q546 103 475 47T275 -10Z" />
<glyph unicode="4" glyph-name="four" horiz-adv-x="627" d="M421 0V152H10V198L421 730H471V198H615V152H471V0H421ZM72 198H421V647H419L72 200V198Z" />
<glyph unicode="5" glyph-name="five" horiz-adv-x="627" d="M287 -10Q228 -10 178 3T82 43L99 86Q143 60 188 48T285 36Q393 36 454 86T515 226Q515 313 461 360T305 407Q257 407 222 396T153 358H103L130 730H532V684H175L155 412H157Q192 433 229 442T311 452Q431
452 498 393T565 225Q565 115 492 53T287 -10Z" />
<glyph unicode="6" glyph-name="six" horiz-adv-x="627" d="M313 -10Q232 -10 173 20T81 112T48 263Q48 401 97 503T239 665T465 740L474 697Q332 681 242 611T118 420L120 419Q153 452 204 470T322 489Q401 489 458 459T547 374T578 241Q578 164 546 108T455
21T313 -10ZM313 36Q414 36 471 90T529 240Q529 335 472 390T313 445Q245 445 197 421T124 352T98 249Q98 192 120 144T190 66T313 36Z" />
<glyph unicode="7" glyph-name="seven" horiz-adv-x="627" d="M179 0Q216 100 254 191T334 366T420 528T515 682V684H55V730H572V684Q531 623 495 562T424 436T358 302T295 158T233 0H179Z" />
<glyph unicode="8" glyph-name="eight" horiz-adv-x="627" d="M313 -10Q228 -10 165 14T68 84T33 192Q33 265 83 313T236 386V388Q156 412 110 460T64 571Q64 623 94 661T181 719T313 740Q389 740 445 720T532 661T564 571Q564 509 518 463T391 392V390Q593 340
593 192Q593 130 559 85T462 15T313 -10ZM313 35Q419 35 481 78T543 193Q543 262 486 304T311 364Q84 329 84 193Q84 121 146 78T313 35ZM313 412Q405 426 459 468T514 568Q514 627 460 661T313 695Q221 695 167 661T113 568Q113 509 167 468T313 412Z" />
<glyph unicode="9" glyph-name="nine" horiz-adv-x="627" d="M314 740Q395 740 454 709T546 618T579 467Q579 329 530 227T388 65T162 -10L153 33Q296 49 385 119T509 310L507 311Q474 278 423 260T305 241Q226 241 169 271T80 357T49 489Q49 567 81 623T172 709T314
740ZM314 694Q213 694 156 640T98 490Q98 395 155 340T314 285Q382 285 430 309T503 378T529 481Q529 538 507 586T437 664T314 694Z" />
<glyph unicode=":" glyph-name="colon" horiz-adv-x="341" d="M171 433Q150 433 137 446T124 479Q124 500 137 513T171 526Q191 526 204 513T217 479Q217 459 204 446T171 433ZM171 -6Q150 -6 137 7T124 41Q124 61 137 74T171 87Q191 87 204 74T217 41Q217 20
204 7T171 -6Z" />
<glyph unicode=";" glyph-name="semicolon" horiz-adv-x="350" d="M57 -170L158 130H216L105 -170H57ZM181 433Q160 433 147 446T134 479Q134 500 147 513T181 526Q201 526 214 513T227 479Q227 459 214 446T181 433Z" />
<glyph unicode="&lt;" glyph-name="less" horiz-adv-x="745" d="M644 23L64 261V319L644 557V506L106 291V289L644 74V23Z" />
<glyph unicode="=" glyph-name="equal" horiz-adv-x="804" d="M112 379V425H692V379H112ZM112 155V201H692V155H112Z" />
<glyph unicode="&gt;" glyph-name="greater" horiz-adv-x="745" d="M102 23V74L639 289V291L102 506V557L682 319V261L102 23Z" />
<glyph unicode="?" glyph-name="question" horiz-adv-x="554" d="M230 197Q230 244 239 283T273 356T345 422Q411 466 438 502T465 580Q465 638 417 666T267 694Q211 694 158 686T51 659L39 703Q92 721 151 730T272 740Q517 740 517 585Q517 531 486 487T381 395Q339
367 317 337T288 273T280 197H230ZM255 -6Q235 -6 222 7T208 41Q208 61 221 74T255 87Q275 87 288 74T301 41Q301 20 288 7T255 -6Z" />
<glyph unicode="@" glyph-name="at" horiz-adv-x="840" d="M420 -108Q339 -108 272 -81T155 -5T78 112T51 260Q51 341 78 408T154 525T271 601T420 628Q501 628 569 601T686 525T762 409T789 260Q789 158 743 108T604 58Q547 58 521 78T492 142H491Q438 58 344
58Q293 58 261 88T220 166T226 268Q251 364 305 418T429 473Q469 473 498 454T544 400H545L562 461H608L537 200Q521 142 535 119T604 96Q678 96 713 135T748 260Q748 357 706 430T591 546T420 588Q324 588 250 546T134 431T92 260Q92 164 134 90T250 -26T420 -68Q476
-68 526 -53T616 -9L640 -41Q594 -73 538 -90T420 -108ZM350 100Q407 100 445 141T509 272Q521 316 517 352T491 410T431 432Q378 432 335 387T269 262Q257 221 262 184T289 123T350 100Z" />
<glyph unicode="A" glyph-name="A" horiz-adv-x="691" d="M19 0L312 730H380L672 0H618L347 686H345L74 0H19ZM138 219V266H553V219H138Z" />
<glyph unicode="B" glyph-name="B" horiz-adv-x="650" d="M285 -10Q243 -10 197 -7T102 4V726Q145 732 177 735T235 739T283 740Q427 740 499 694T572 554Q572 488 536 448T430 391V389Q520 374 564 328T608 202Q608 95 529 43T285 -10ZM128 48Q171 42 210 39T287
36Q427 36 492 77T558 206Q558 289 497 327T303 365H127V410H303Q414 410 468 444T522 548Q522 622 464 658T287 694Q268 694 248 693T200 690T127 682L151 712V18L128 48Z" />
<glyph unicode="C" glyph-name="C" horiz-adv-x="719" d="M424 -10Q310 -10 227 36T97 166T51 365Q51 479 97 563T226 694T424 740Q555 740 658 677L641 633Q543 694 425 694Q327 694 254 654T142 540T102 365Q102 265 141 191T254 77T425 36Q542 36 641 97L658
53Q555 -10 424 -10Z" />
<glyph unicode="D" glyph-name="D" horiz-adv-x="706" d="M268 -10Q232 -10 191 -7T102 4V726Q150 734 191 737T268 740Q397 740 483 698T612 573T655 365Q655 241 612 158T483 32T268 -10ZM271 36Q383 36 457 72T568 181T605 365Q605 476 568 549T457 658T271
694Q238 694 202 691T123 681L151 707V23L123 49Q165 43 201 40T271 36Z" />
<glyph unicode="E" glyph-name="E" horiz-adv-x="626" d="M102 0V730H548V684H151V410H528V365H151V46H548V0H102Z" />
<glyph unicode="F" glyph-name="F" horiz-adv-x="634" d="M102 0V730H575V684H151V386H555V340H151V0H102Z" />
<glyph unicode="G" glyph-name="G" horiz-adv-x="784" d="M437 -10Q318 -10 232 35T98 165T51 365Q51 481 97 565T230 694T435 740Q501 740 559 725T666 681L651 638Q606 666 552 680T435 694Q332 694 258 655T143 541T103 365Q103 263 143 189T258 76T437 36Q496
36 556 48T661 83L648 59V359H346V404H698V45Q646 19 576 5T437 -10Z" />
<glyph unicode="H" glyph-name="H" horiz-adv-x="730" d="M579 0V730H628V0H579ZM102 0V730H151V0H102ZM127 364V411H603V364H127Z" />
<glyph unicode="I" glyph-name="I" horiz-adv-x="275" d="M112 0V730H163V0H112Z" />
<glyph unicode="J" glyph-name="J" horiz-adv-x="609" d="M253 -10Q122 -10 28 57L43 100Q90 68 141 53T251 37Q325 37 373 63T444 146T467 290V730H518V283Q518 135 453 63T253 -10Z" />
<glyph unicode="K" glyph-name="K" horiz-adv-x="691" d="M102 0V730H151V407H153L583 730H652L199 387L662 0H594L153 368H151V0H102Z" />
<glyph unicode="L" glyph-name="L" horiz-adv-x="634" d="M102 0V730H152V46H585V0H102Z" />
<glyph unicode="M" glyph-name="M" horiz-adv-x="876" d="M60 0L151 730H216L437 137H439L660 730H725L816 0H765L687 657H686L468 80H408L190 657H189L111 0H60Z" />
<glyph unicode="N" glyph-name="N" horiz-adv-x="757" d="M102 0V730H162L603 73H605V730H655V0H595L153 657H151V0H102Z" />
<glyph unicode="O" glyph-name="O" horiz-adv-x="845" d="M423 -10Q311 -10 228 37T98 168T51 365Q51 478 97 562T227 693T423 740Q534 740 618 693T748 562T794 365Q794 253 748 169T618 37T423 -10ZM423 36Q520 36 592 77T704 192T744 365Q744 464 704 538T592
653T423 694Q326 694 254 653T142 538T102 365Q102 266 141 192T253 77T423 36Z" />
<glyph unicode="P" glyph-name="P" horiz-adv-x="630" d="M102 726Q138 731 171 734T234 738T290 740Q450 740 524 683T598 503Q598 380 525 323T295 265Q259 265 221 268T127 279L129 325Q187 318 222 315T290 312Q427 312 487 357T548 503Q548 604 488 649T290
694Q253 694 212 691T123 680L151 707V0H102V726Z" />
<glyph unicode="Q" glyph-name="Q" horiz-adv-x="843" d="M753 -122Q717 -83 669 -59T559 -22T423 -10Q341 -10 273 17T156 95T79 214T51 365Q51 447 78 516T155 635T273 712T423 740Q504 740 572 713T690 635T767 516T794 365Q794 281 765 211T681 90T549 16V14Q627
3 689 -24T793 -92L753 -122ZM423 36Q517 36 589 78T703 194T744 365Q744 462 703 536T590 652T423 694Q329 694 257 652T143 536T102 365Q102 269 143 195T256 78T423 36Z" />
<glyph unicode="R" glyph-name="R" horiz-adv-x="672" d="M102 726Q137 731 171 734T237 738T300 740Q456 740 527 691T598 531Q598 422 527 373T300 323Q260 323 216 326T120 335L128 381Q183 374 223 371T301 368Q433 368 490 406T548 531Q548 617 491 655T301
694Q264 694 222 691T123 680L151 707V0H102V726ZM562 0L125 357H193L632 0H562Z" />
<glyph unicode="S" glyph-name="S" horiz-adv-x="636" d="M306 -10Q243 -10 179 3T70 38L84 83Q114 69 151 59T229 42T308 36Q407 36 461 76T515 188Q515 229 498 256T452 301T384 331T301 356Q257 368 216 382T142 419T91 474T72 555Q72 643 139 691T324 740Q385
740 446 728T550 695L534 650Q495 670 438 682T324 694Q228 694 176 658T124 555Q124 517 139 492T183 449T248 420T327 397Q374 384 416 369T493 331T546 274T566 188Q566 94 498 42T306 -10Z" />
<glyph unicode="T" glyph-name="T" horiz-adv-x="667" d="M308 0V684H32V730H635V684H359V0H308Z" />
<glyph unicode="U" glyph-name="U" horiz-adv-x="737" d="M368 -10Q226 -10 159 61T92 283V730H141V290Q141 200 164 145T238 63T368 36Q448 36 498 62T572 144T595 290V730H645V283Q645 133 578 62T368 -10Z" />
<glyph unicode="V" glyph-name="V" horiz-adv-x="688" d="M310 0L19 730H74L343 48H345L614 730H669L378 0H310Z" />
<glyph unicode="W" glyph-name="W" horiz-adv-x="912" d="M216 0L33 730H85L249 65H251L423 670H489L661 65H663L827 730H879L696 0H629L457 605H455L282 0H216Z" />
<glyph unicode="X" glyph-name="X" horiz-adv-x="721" d="M64 0L326 368L69 730H127L360 402H362L594 730H652L395 368L657 0H599L362 335H360L122 0H64Z" />
<glyph unicode="Y" glyph-name="Y" horiz-adv-x="673" d="M311 0V289L11 730H70L335 336H337L603 730H661L362 289V0H311Z" />
<glyph unicode="Z" glyph-name="Z" horiz-adv-x="669" d="M81 0V46L527 682V684H81V730H588V684L143 48V46H588V0H81Z" />
<glyph unicode="[" glyph-name="bracketleft" horiz-adv-x="458" d="M137 -110V770H389V725H185V-65H389V-110H137Z" />
<glyph unicode="\" glyph-name="backslash" horiz-adv-x="442" d="M423 -40H371L19 770H70L423 -40Z" />
<glyph unicode="]" glyph-name="bracketright" horiz-adv-x="458" d="M320 -110H69V-65H272V725H69V770H320V-110Z" />
<glyph unicode="^" glyph-name="asciicircum" horiz-adv-x="584" d="M19 280L258 730H326L565 280H510L293 695H291L75 280H19Z" />
<glyph unicode="_" glyph-name="underscore" horiz-adv-x="573" d="M0 -128V-87H573V-128H0Z" />
<glyph unicode="`" glyph-name="grave" horiz-adv-x="261" d="M406 570L285 790H346L457 570H406Z" />
<glyph unicode="a" glyph-name="a" horiz-adv-x="538" d="M210 -10Q131 -10 84 32T37 146Q37 235 111 282T325 329H414Q414 415 379 451T257 487Q202 487 156 474T65 433L53 474Q99 503 150 516T261 530Q334 530 378 510T443 444T464 326V0H416V82H414Q388 42
331 16T210 -10ZM223 32Q277 32 320 53T388 110T414 189V289H330Q209 289 148 253T86 149Q86 95 122 64T223 32Z" />
<glyph unicode="b" glyph-name="b" horiz-adv-x="598" d="M332 -10Q271 -10 219 14T141 79H139V0H92V730H141V441H143Q169 482 220 506T332 530Q436 530 494 459T552 260Q552 133 494 62T332 -10ZM323 33Q409 33 456 92T503 260Q503 369 456 428T323 487Q270 487
229 465T165 405T141 316V204Q141 154 164 116T229 55T323 33Z" />
<glyph unicode="c" glyph-name="c" horiz-adv-x="533" d="M311 -10Q229 -10 170 22T78 115T46 260Q46 344 78 404T169 497T311 530Q351 530 387 522T460 494L447 454Q414 471 381 479T313 487Q211 487 154 427T96 260Q96 154 153 94T313 33Q348 33 381 41T447
66L460 26Q424 7 388 -1T311 -10Z" />
<glyph unicode="d" glyph-name="d" horiz-adv-x="598" d="M266 -10Q163 -10 105 61T46 260Q46 388 104 459T266 530Q327 530 378 506T455 441H457V730H506V0H459V79H457Q431 39 379 15T266 -10ZM275 33Q328 33 369 55T433 115T457 204V316Q457 366 434 404T369
465T275 487Q190 487 143 428T95 260Q95 151 142 92T275 33Z" />
<glyph unicode="e" glyph-name="e" horiz-adv-x="554" d="M298 -10Q177 -10 112 60T46 260Q46 386 110 458T287 530Q395 530 452 463T510 268Q510 261 510 255T509 244H73V285H475L463 270Q463 378 419 433T287 488Q196 488 146 430T95 263V253Q95 146 147 90T298
33Q348 33 393 46T474 86L488 46Q451 19 402 5T298 -10Z" />
<glyph unicode="f" glyph-name="f" horiz-adv-x="455" d="M183 0V457H28V500H183V608Q183 690 222 730T339 770Q363 770 384 767T428 755L419 713Q381 726 345 726Q285 726 259 698T232 606V500H425V457H232V0H183Z" />
<glyph unicode="g" glyph-name="g" horiz-adv-x="598" d="M265 -220Q207 -220 161 -206T75 -163L91 -123Q129 -151 169 -164T262 -177Q364 -177 410 -124T457 45V105H455Q430 66 380 43T267 20Q163 20 105 87T46 275Q46 395 104 462T267 530Q329 530 379 507T456
445H458V520H506V45Q506 -91 448 -155T265 -220ZM275 63Q328 63 369 83T433 139T457 221V329Q457 375 434 410T369 466T275 487Q190 487 142 432T94 275Q94 174 142 119T275 63Z" />
<glyph unicode="h" glyph-name="h" horiz-adv-x="596" d="M92 0V730H141V441H143Q171 483 223 506T340 530Q434 530 478 479T522 320V0H473V313Q473 402 438 444T330 487Q275 487 232 465T165 405T141 316V0H92Z" />
<glyph unicode="i" glyph-name="i" horiz-adv-x="295" d="M123 0V520H172V0H123ZM148 643Q127 643 114 656T101 689Q101 710 114 723T148 736Q168 736 181 723T194 689Q194 669 181 656T148 643Z" />
<glyph unicode="j" glyph-name="j" horiz-adv-x="304" d="M-89 -176Q-22 -168 20 -155T87 -118T121 -56T131 41V520H181V41Q181 -27 168 -73T126 -149T45 -195T-82 -220L-89 -176ZM156 643Q136 643 123 656T109 689Q109 710 122 723T156 736Q176 736 189 723T202
689Q202 669 189 656T156 643Z" />
<glyph unicode="k" glyph-name="k" horiz-adv-x="569" d="M92 0V730H142V287H144L451 520H520L191 270L535 0H466L144 253H142V0H92Z" />
<glyph unicode="l" glyph-name="l" horiz-adv-x="252" d="M101 0V730H151V0H101Z" />
<glyph unicode="m" glyph-name="m" horiz-adv-x="868" d="M92 0V520H138L139 436H141Q164 481 207 505T308 530Q365 530 404 506T458 436H460Q482 483 525 506T633 530Q720 530 757 480T794 313V0H746V308Q746 405 718 446T622 487Q545 487 506 437T467 287V0H419V350Q419
413 386 450T296 487Q226 487 183 432T140 287V0H92Z" />
<glyph unicode="n" glyph-name="n" horiz-adv-x="596" d="M92 0V520H141V436H143Q169 480 219 505T334 530Q429 530 475 473T522 300V0H472V293Q472 391 436 439T324 487Q270 487 229 464T164 399T141 303V0H92Z" />
<glyph unicode="o" glyph-name="o" horiz-adv-x="586" d="M293 -10Q218 -10 163 23T77 117T46 260Q46 343 76 403T162 497T293 530Q369 530 424 497T509 404T540 260Q540 178 510 117T424 23T293 -10ZM293 33Q385 33 438 94T491 260Q491 366 438 426T293 487Q201
487 148 427T95 260Q95 155 148 94T293 33Z" />
<glyph unicode="p" glyph-name="p" horiz-adv-x="598" d="M332 530Q436 530 494 459T552 260Q552 133 494 62T332 -10Q271 -10 220 14T143 79H141V-210H92V520H139V441H141Q167 482 219 506T332 530ZM323 487Q270 487 229 465T165 405T141 316V204Q141 154 164
116T229 55T323 33Q409 33 456 92T503 260Q503 369 456 428T323 487Z" />
<glyph unicode="q" glyph-name="q" horiz-adv-x="598" d="M457 -210V79H455Q430 39 379 15T266 -10Q163 -10 105 61T46 260Q46 388 104 459T266 530Q327 530 379 506T457 441H459V520H506V-210H457ZM275 33Q328 33 369 55T433 115T457 204V316Q457 366 434 404T369
465T275 487Q190 487 143 428T95 260Q95 151 142 92T275 33Z" />
<glyph unicode="r" glyph-name="r" horiz-adv-x="403" d="M92 0V520H140V402H142Q163 441 199 469T284 514T385 530V485Q317 485 262 457T174 379T141 270V0H92Z" />
<glyph unicode="s" glyph-name="s" horiz-adv-x="479" d="M233 -10Q183 -10 135 1T48 33L60 74Q98 55 142 44T233 33Q305 33 344 60T383 136Q383 173 364 193T310 225T231 248Q179 260 137 276T71 320T46 393Q46 458 96 494T237 530Q285 530 333 520T417 490L404
449Q373 467 328 477T238 487Q170 487 133 463T96 393Q96 361 115 342T166 312T241 291Q281 282 316 270T377 241T418 198T433 136Q433 67 380 29T233 -10Z" />
<glyph unicode="t" glyph-name="t" horiz-adv-x="472" d="M329 -10Q244 -10 206 28T168 153V477H34V520H168V690H217V520H422V477H217V158Q217 91 244 63T337 35Q359 35 377 38T414 49L424 8Q401 -2 379 -6T329 -10Z" />
<glyph unicode="u" glyph-name="u" horiz-adv-x="586" d="M257 -10Q166 -10 120 47T74 220V520H123V227Q123 129 159 81T267 33Q320 33 360 56T422 121T445 217V520H494V0H445L444 84H445Q420 40 370 15T257 -10Z" />
<glyph unicode="v" glyph-name="v" horiz-adv-x="514" d="M222 0L14 520H67L256 37H258L447 520H500L292 0H222Z" />
<glyph unicode="w" glyph-name="w" horiz-adv-x="757" d="M182 0L29 520H82L213 49H215L344 520H413L542 49H544L675 520H728L575 0H509L380 468H378L248 0H182Z" />
<glyph unicode="x" glyph-name="x" horiz-adv-x="531" d="M37 0L232 263L41 520H100L265 293H267L432 520H490L299 263L494 0H436L267 233H265L96 0H37Z" />
<glyph unicode="y" glyph-name="y" horiz-adv-x="524" d="M52 -188Q102 -176 138 -153T201 -87T253 20L255 -18L20 520H73L270 55H272L457 520H510L296 1Q267 -70 234 -117T159 -191T62 -230L52 -188Z" />
<glyph unicode="z" glyph-name="z" horiz-adv-x="521" d="M59 0V43L397 475V477H59V520H462V477L123 45V43H462V0H59Z" />
<glyph unicode="{" glyph-name="braceleft" horiz-adv-x="493" d="M322 -110Q255 -110 225 -76T194 35V180Q194 239 172 273T112 307H64V353H112Q150 353 172 387T194 480V625Q194 701 224 735T322 770H410V725H340Q303 725 282 715T251 679T242 610V476Q242 421
224 385T171 331V329Q206 312 224 276T242 184V50Q242 7 251 -18T281 -54T340 -65H410V-110H322Z" />
<glyph unicode="|" glyph-name="bar" horiz-adv-x="323" d="M137 -210V810H185V-210H137Z" />
<glyph unicode="}" glyph-name="braceright" horiz-adv-x="493" d="M171 -110H83V-65H153Q190 -65 211 -55T242 -19T252 50V184Q252 239 270 275T322 329V331Q288 348 270 384T252 476V610Q252 654 243 679T212 714T153 725H83V770H171Q239 770 269 736T300 625V480Q300
421 321 387T381 353H430V307H381Q343 307 322 273T300 180V35Q300 -41 270 -75T171 -110Z" />
<glyph unicode="~" glyph-name="asciitilde" horiz-adv-x="701" d="M64 228Q64 302 92 339T178 376Q211 376 255 363T362 321Q418 296 455 285T518 273Q556 273 574 295T592 366H637Q637 313 622 282T580 237T523 224Q490 224 446 237T339 279Q283 305 247 316T183
328Q143 328 126 305T109 228H64Z" />
<glyph unicode="&#xa0;" glyph-name="uni00A0" horiz-adv-x="293" />
<glyph unicode="&#xa1;" glyph-name="exclamdown" horiz-adv-x="317" d="M135 323H182L187 -210H130L135 323ZM159 526Q179 526 192 513T205 479Q205 459 192 446T159 433Q138 433 125 446T112 479Q112 500 125 513T159 526Z" />
<glyph unicode="&#xa2;" glyph-name="cent" horiz-adv-x="556" d="M321 -10Q236 -10 175 23T80 116T46 260Q46 344 79 404T174 497T321 530Q365 530 405 521T483 494L470 454Q435 471 399 479T324 487Q217 487 157 427T96 260Q96 154 156 94T324 33Q362 33 398
41T470 66L483 26Q445 8 405 -1T321 -10ZM296 -105V625H336V-105H296Z" />
<glyph unicode="&#xa3;" glyph-name="sterling" horiz-adv-x="680" d="M112 46Q142 48 168 69T210 128T227 219V545Q227 639 282 689T442 740Q508 740 569 714L556 670Q530 683 503 688T446 694Q362 694 320 655T277 539V219Q277 161 256 117T198 48V46H602V0H112V46ZM112
366V409H541V366H112Z" />
<glyph unicode="&#xa4;" glyph-name="currency" horiz-adv-x="689" d="M345 140Q283 140 232 170T150 251T120 365Q120 427 150 478T231 560T345 590Q407 590 458 560T540 479T570 365Q570 303 540 252T459 170T345 140ZM345 186Q394 186 434 210T499 275T524
365Q524 414 500 454T435 519T345 544Q296 544 256 520T191 455T166 365Q166 316 190 276T255 211T345 186ZM106 94L73 127L183 237L216 203L106 94ZM582 94L473 204L505 237L615 127L582 94ZM183 493L73 604L106 636L216 526L183 493ZM505 493L473 526L582 636L615
603L505 493Z" />
<glyph unicode="&#xa5;" glyph-name="yen" horiz-adv-x="673" d="M311 0V315L11 730H70L335 360H337L603 730H661L362 315V0H311ZM69 140V183H603V140H69ZM69 310V353H603V310H69Z" />
<glyph unicode="&#xa6;" glyph-name="brokenbar" horiz-adv-x="323" d="M137 370V810H185V370H137ZM137 -220V220H185V-220H137Z" />
<glyph unicode="&#xa7;" glyph-name="section" horiz-adv-x="552" d="M354 171Q389 188 408 217T428 285Q428 320 413 345T363 387T272 417Q208 431 167 453T108 507T89 583Q89 656 139 698T276 740Q324 740 368 729T458 694L442 654Q400 677 361 687T279 697Q212
697 174 667T136 583Q136 554 147 531T190 490T279 459Q378 438 424 396T471 285Q471 233 442 194T361 135L354 171ZM276 -120Q228 -120 184 -109T95 -74L110 -34Q153 -56 191 -66T273 -77Q341 -77 378 -47T416 37Q416 67 405 90T362 131T274 161Q174 182 128 224T81
335Q81 387 110 426T192 485L198 449Q164 432 144 403T124 335Q124 300 140 275T190 233T280 203Q346 189 386 167T445 113T464 37Q464 -35 414 -77T276 -120Z" />
<glyph unicode="&#xa8;" glyph-name="dieresis" horiz-adv-x="398" d="M79 619Q58 619 45 632T32 665Q32 685 45 698T79 711Q99 711 112 698T125 665Q125 645 112 632T79 619ZM320 619Q300 619 287 632T273 665Q273 685 286 698T320 711Q340 711 353 698T366 665Q366
645 353 632T320 619Z" />
<glyph unicode="&#xa9;" glyph-name="copyright" horiz-adv-x="855" d="M428 -2Q348 -2 280 26T160 104T80 221T51 365Q51 442 79 509T159 626T279 704T428 732Q508 732 576 704T696 626T775 509T804 365Q804 288 776 221T696 104T577 26T428 -2ZM444 140Q376
140 326 167T249 245T221 365Q221 434 248 484T326 562T444 590Q524 590 585 552L566 512Q512 547 445 547Q364 547 316 498T268 365Q268 281 316 232T445 183Q512 183 566 218L585 178Q524 140 444 140ZM428 36Q500 36 562 60T670 130T741 235T767 365Q767 435
742 495T670 600T562 669T428 694Q356 694 294 670T186 600T114 495T88 365Q88 295 114 235T185 130T293 61T428 36Z" />
<glyph unicode="&#xaa;" glyph-name="ordfeminine" horiz-adv-x="441" d="M171 306Q107 306 70 339T33 431Q33 502 92 539T263 577H328Q328 624 318 650T284 687T217 698Q174 698 133 689T54 661L43 700Q83 718 128 728T221 738Q306 738 340 702T374 575V314H330V371H328Q304
342 261 324T171 306ZM181 346Q222 346 255 362T308 405T328 465V539H267Q173 539 126 512T78 433Q78 392 105 369T181 346Z" />
<glyph unicode="&#xab;" glyph-name="guillemotleft" horiz-adv-x="421" d="M169 0L14 260L169 520H217L61 260L217 0H169ZM335 0L180 260L335 520H384L228 260L384 0H335Z" />
<glyph unicode="&#xac;" glyph-name="logicalnot" horiz-adv-x="742" d="M584 155V378H64V425H630V155H584Z" />
<glyph unicode="&#xad;" glyph-name="uni00AD" horiz-adv-x="411" d="M64 267V313H347V267H64Z" />
<glyph unicode="&#xae;" glyph-name="registered" horiz-adv-x="855" d="M428 -2Q348 -2 280 26T160 104T80 221T51 365Q51 442 79 509T159 626T279 704T428 732Q508 732 576 704T696 626T775 509T804 365Q804 288 776 221T696 104T577 26T428 -2ZM428 36Q500
36 562 60T670 130T741 235T767 365Q767 435 742 495T670 600T562 669T428 694Q356 694 294 670T186 600T114 495T88 365Q88 295 114 235T185 130T293 61T428 36ZM296 146V584H416Q510 584 552 554T595 456Q595 390 553 359T420 328H311V368H417Q487 368 517 388T548
455Q548 502 518 522T417 543H342V146H296ZM547 146L327 350H382L606 146H547Z" />
<glyph unicode="&#xaf;" glyph-name="overscore" horiz-adv-x="413" d="M32 644V686H381V644H32Z" />
<glyph unicode="&#xb0;" glyph-name="degree" horiz-adv-x="419" d="M209 414Q163 414 126 435T68 494T46 577Q46 624 67 661T126 719T209 740Q256 740 293 719T351 661T372 577Q372 531 351 494T293 436T209 414ZM209 454Q245 454 272 470T316 514T332 577Q332
613 316 640T273 684T209 700Q174 700 146 684T102 641T86 577Q86 542 102 514T146 470T209 454Z" />
<glyph unicode="&#xb1;" glyph-name="plusminus" horiz-adv-x="804" d="M379 162V423H112V469H379V730H425V469H692V423H425V162H379ZM112 0V45H692V0H112Z" />
<glyph unicode="&#xb2;" glyph-name="uni00B2" horiz-adv-x="367" d="M38 335Q105 390 150 430T222 502T260 559T272 609Q272 649 247 671T175 693Q108 693 47 649L29 687Q61 710 101 723T180 736Q244 736 281 704T319 614Q319 578 300 540T235 453T110 337V335H324V292H38V335Z"
/>
<glyph unicode="&#xb3;" glyph-name="uni00B3" horiz-adv-x="367" d="M165 286Q127 286 95 295T29 325L46 363Q76 346 103 338T164 329Q221 329 251 352T281 418Q281 463 246 482T129 502H98V545H129Q195 545 233 568T272 629Q272 660 247 676T175 693Q142 693
113 685T55 657L40 698Q75 718 107 727T177 736Q244 736 281 710T319 636Q319 596 292 568T214 527V526Q272 517 300 490T328 415Q328 354 285 320T165 286Z" />
<glyph unicode="&#xb4;" glyph-name="acute" horiz-adv-x="254" d="M103 570H51L162 790H224L103 570Z" />
<glyph unicode="&#xb5;" glyph-name="uni00B5" horiz-adv-x="564" d="M78 -220V520H127V207Q127 118 161 76T265 33Q319 33 360 55T425 115T449 204V520H498V0H449V79H447Q419 37 369 14T255 -10Q143 -10 103 69L127 98V-220H78Z" />
<glyph unicode="&#xb6;" glyph-name="paragraph" horiz-adv-x="594" d="M243 270Q180 270 128 301T44 384T13 500Q13 564 44 616T127 699T243 730H492V-110H448V689H287V-110H243V270Z" />
<glyph unicode="&#xb7;" glyph-name="middot" horiz-adv-x="220" d="M111 242Q90 242 77 255T64 289Q64 309 77 322T111 335Q131 335 144 322T157 289Q157 268 144 255T111 242Z" />
<glyph unicode="&#xb8;" glyph-name="cedilla" horiz-adv-x="372" d="M169 -219Q111 -219 64 -198L75 -158Q95 -167 118 -172T166 -177Q190 -177 211 -172T247 -155T261 -121Q261 -92 233 -61T151 0L197 15Q250 -16 279 -52T308 -127Q308 -149 296 -170T254 -205T169
-219Z" />
<glyph unicode="&#xb9;" glyph-name="uni00B9" horiz-adv-x="367" d="M188 292V669H186L30 539L11 581L188 730H235V292H188Z" />
<glyph unicode="&#xba;" glyph-name="ordmasculine" horiz-adv-x="478" d="M239 306Q148 306 95 364T42 522Q42 621 95 679T239 738Q330 738 383 680T436 522Q436 423 383 365T239 306ZM239 346Q310 346 350 393T391 522Q391 605 351 651T239 698Q169 698 128
652T87 522Q87 440 128 393T239 346Z" />
<glyph unicode="&#xbb;" glyph-name="guillemotright" horiz-adv-x="421" d="M253 0H204L360 260L204 520H253L408 260L253 0ZM86 0H37L193 260L37 520H86L241 260L86 0Z" />
<glyph unicode="&#xbc;" glyph-name="onequarter" horiz-adv-x="845" d="M194 0L608 730H658L244 0H194ZM216 292V669H214L58 539L38 581L216 730H263V292H216ZM674 0V87H431V130L678 438H721V130H794V87H721V0H674ZM484 129H676V368H674L484 131V129Z" />
<glyph unicode="&#xbd;" glyph-name="onehalf" horiz-adv-x="871" d="M194 0L608 730H658L244 0H194ZM216 292V669H214L58 539L38 581L216 730H263V292H216ZM514 43Q581 98 626 138T697 210T735 267T747 317Q747 357 722 379T650 401Q584 401 522 357L505 395Q537
418 576 431T655 444Q719 444 756 412T794 322Q794 286 775 248T710 161T585 45V43H799V0H514V43Z" />
<glyph unicode="&#xbe;" glyph-name="threequarters" horiz-adv-x="861" d="M210 0L624 730H674L260 0H210ZM690 0V87H447V130L694 438H737V130H810V87H737V0H690ZM500 129H692V368H690L500 131V129ZM187 286Q149 286 117 295T51 325L68 363Q98 346 125 338T186
329Q243 329 273 352T303 418Q303 463 268 482T151 502H120V545H151Q217 545 255 568T294 629Q294 660 269 676T197 693Q164 693 135 685T77 657L62 698Q97 718 129 727T199 736Q266 736 303 710T341 636Q341 596 314 568T236 527V526Q294 517 322 490T350 415Q350
354 307 320T187 286Z" />
<glyph unicode="&#xbf;" glyph-name="questiondown" horiz-adv-x="554" d="M324 323Q324 277 315 238T281 164T209 98Q144 55 117 19T89 -60Q89 -118 137 -146T288 -174Q344 -174 397 -165T504 -139L516 -183Q462 -201 403 -210T283 -220Q38 -220 38 -65Q38 -10
69 33T173 125Q215 153 237 183T266 247T274 323H324ZM299 526Q320 526 333 513T346 479Q346 459 333 446T299 433Q279 433 266 446T253 479Q253 500 266 513T299 526Z" />
<glyph unicode="&#xc0;" glyph-name="Agrave" horiz-adv-x="691" d="M19 0L312 730H380L672 0H618L347 686H345L74 0H19ZM138 219V266H553V219H138ZM325 780L204 1000H265L376 780H325Z" />
<glyph unicode="&#xc1;" glyph-name="Aacute" horiz-adv-x="691" d="M19 0L312 730H380L672 0H618L347 686H345L74 0H19ZM138 219V266H553V219H138ZM372 780H320L431 1000H493L372 780Z" />
<glyph unicode="&#xc2;" glyph-name="Acircumflex" horiz-adv-x="691" d="M19 0L312 730H380L672 0H618L347 686H345L74 0H19ZM138 219V266H553V219H138ZM158 780L314 1000H378L534 780H474L347 964H345L217 780H158Z" />
<glyph unicode="&#xc3;" glyph-name="Atilde" horiz-adv-x="691" d="M19 0L312 730H380L672 0H618L347 686H345L74 0H19ZM138 219V266H553V219H138ZM466 800Q442 800 413 815T340 861Q304 889 277 903T234 917Q213 917 203 892T192 811H146Q146 962 226 962Q250
962 280 948T352 901Q389 873 415 859T457 845Q479 845 489 871T499 951H546Q546 800 466 800Z" />
<glyph unicode="&#xc4;" glyph-name="Adieresis" horiz-adv-x="691" d="M19 0L312 730H380L672 0H618L347 686H345L74 0H19ZM138 219V266H553V219H138ZM225 829Q204 829 191 842T178 875Q178 895 191 908T225 921Q245 921 258 908T271 875Q271 855 258 842T225
829ZM466 829Q446 829 433 842T419 875Q419 895 432 908T466 921Q486 921 499 908T512 875Q512 855 499 842T466 829Z" />
<glyph unicode="&#xc5;" glyph-name="Aring" horiz-adv-x="691" d="M19 0L312 730H380L672 0H618L347 686H345L74 0H19ZM138 219V266H553V219H138ZM346 702Q309 702 279 720T230 768T212 835Q212 872 230 902T278 950T346 968Q383 968 413 950T461 902T479 835Q479
799 462 769T414 720T346 702ZM346 743Q384 743 410 770T437 835Q437 873 411 900T345 927Q308 927 281 900T254 835Q254 797 281 770T346 743Z" />
<glyph unicode="&#xc6;" glyph-name="AE" horiz-adv-x="914" d="M19 0L415 730H836V684H510V410H813V365H510V46H836V0H461V687H446L75 0H19ZM175 219V266H487V219H175Z" />
<glyph unicode="&#xc7;" glyph-name="Ccedilla" horiz-adv-x="719" d="M424 -10Q310 -10 227 36T97 166T51 365Q51 479 97 563T226 694T424 740Q555 740 658 677L641 633Q543 694 425 694Q327 694 254 654T142 540T102 365Q102 265 141 191T254 77T425 36Q542
36 641 97L658 53Q555 -10 424 -10ZM362 -219Q304 -219 257 -198L268 -158Q288 -167 311 -172T359 -177Q383 -177 404 -172T440 -155T454 -121Q454 -92 426 -61T344 0L390 15Q443 -16 472 -52T501 -127Q501 -149 489 -170T447 -205T362 -219Z" />
<glyph unicode="&#xc8;" glyph-name="Egrave" horiz-adv-x="626" d="M102 0V730H548V684H151V410H528V365H151V46H548V0H102ZM305 780L184 1000H245L356 780H305Z" />
<glyph unicode="&#xc9;" glyph-name="Eacute" horiz-adv-x="626" d="M102 0V730H548V684H151V410H528V365H151V46H548V0H102ZM351 780H299L410 1000H472L351 780Z" />
<glyph unicode="&#xca;" glyph-name="Ecircumflex" horiz-adv-x="626" d="M102 0V730H548V684H151V410H528V365H151V46H548V0H102ZM137 780L293 1000H357L513 780H453L326 964H324L196 780H137Z" />
<glyph unicode="&#xcb;" glyph-name="Edieresis" horiz-adv-x="626" d="M102 0V730H548V684H151V410H528V365H151V46H548V0H102ZM205 829Q184 829 171 842T158 875Q158 895 171 908T205 921Q225 921 238 908T251 875Q251 855 238 842T205 829ZM446 829Q426 829
413 842T399 875Q399 895 412 908T446 921Q466 921 479 908T492 875Q492 855 479 842T446 829Z" />
<glyph unicode="&#xcc;" glyph-name="Igrave" horiz-adv-x="275" d="M112 0V730H163V0H112ZM117 780L-4 1000H57L168 780H117Z" />
<glyph unicode="&#xcd;" glyph-name="Iacute" horiz-adv-x="275" d="M112 0V730H163V0H112ZM164 780H112L223 1000H285L164 780Z" />
<glyph unicode="&#xce;" glyph-name="Icircumflex" horiz-adv-x="275" d="M112 0V730H163V0H112ZM-50 780L106 1000H170L326 780H266L139 964H137L9 780H-50Z" />
<glyph unicode="&#xcf;" glyph-name="Idieresis" horiz-adv-x="275" d="M112 0V730H163V0H112ZM17 829Q-4 829 -17 842T-30 875Q-30 895 -17 908T17 921Q37 921 50 908T63 875Q63 855 50 842T17 829ZM258 829Q238 829 225 842T211 875Q211 895 224 908T258 921Q278
921 291 908T304 875Q304 855 291 842T258 829Z" />
<glyph unicode="&#xd0;" glyph-name="Eth" horiz-adv-x="759" d="M33 343V387H446V343H33ZM321 -10Q285 -10 244 -7T154 4V726Q202 734 243 737T321 740Q449 740 535 698T664 573T708 365Q708 241 665 158T535 32T321 -10ZM323 36Q436 36 509 72T620 181T657 365Q657
476 620 549T510 658T323 694Q290 694 254 691T175 681L204 707V23L175 49Q218 43 254 40T323 36Z" />
<glyph unicode="&#xd1;" glyph-name="Ntilde" horiz-adv-x="757" d="M102 0V730H162L603 73H605V730H655V0H595L153 657H151V0H102ZM498 800Q474 800 445 815T372 861Q336 889 309 903T266 917Q245 917 235 892T224 811H178Q178 962 258 962Q282 962 312 948T384
901Q421 873 447 859T489 845Q511 845 521 871T531 951H578Q578 800 498 800Z" />
<glyph unicode="&#xd2;" glyph-name="Ograve" horiz-adv-x="845" d="M423 -10Q311 -10 228 37T98 168T51 365Q51 478 97 562T227 693T423 740Q534 740 618 693T748 562T794 365Q794 253 748 169T618 37T423 -10ZM423 36Q520 36 592 77T704 192T744 365Q744 464
704 538T592 653T423 694Q326 694 254 653T142 538T102 365Q102 266 141 192T253 77T423 36ZM402 780L281 1000H342L453 780H402Z" />
<glyph unicode="&#xd3;" glyph-name="Oacute" horiz-adv-x="845" d="M423 -10Q311 -10 228 37T98 168T51 365Q51 478 97 562T227 693T423 740Q534 740 618 693T748 562T794 365Q794 253 748 169T618 37T423 -10ZM423 36Q520 36 592 77T704 192T744 365Q744 464
704 538T592 653T423 694Q326 694 254 653T142 538T102 365Q102 266 141 192T253 77T423 36ZM449 780H397L508 1000H570L449 780Z" />
<glyph unicode="&#xd4;" glyph-name="Ocircumflex" horiz-adv-x="845" d="M423 -10Q311 -10 228 37T98 168T51 365Q51 478 97 562T227 693T423 740Q534 740 618 693T748 562T794 365Q794 253 748 169T618 37T423 -10ZM423 36Q520 36 592 77T704 192T744 365Q744
464 704 538T592 653T423 694Q326 694 254 653T142 538T102 365Q102 266 141 192T253 77T423 36ZM235 780L391 1000H455L611 780H551L424 964H422L294 780H235Z" />
<glyph unicode="&#xd5;" glyph-name="Otilde" horiz-adv-x="845" d="M423 -10Q311 -10 228 37T98 168T51 365Q51 478 97 562T227 693T423 740Q534 740 618 693T748 562T794 365Q794 253 748 169T618 37T423 -10ZM423 36Q520 36 592 77T704 192T744 365Q744 464
704 538T592 653T423 694Q326 694 254 653T142 538T102 365Q102 266 141 192T253 77T423 36ZM543 800Q519 800 490 815T417 861Q381 889 354 903T311 917Q290 917 280 892T269 811H223Q223 962 303 962Q327 962 357 948T429 901Q466 873 492 859T534 845Q556 845
566 871T576 951H623Q623 800 543 800Z" />
<glyph unicode="&#xd6;" glyph-name="Odieresis" horiz-adv-x="845" d="M423 -10Q311 -10 228 37T98 168T51 365Q51 478 97 562T227 693T423 740Q534 740 618 693T748 562T794 365Q794 253 748 169T618 37T423 -10ZM423 36Q520 36 592 77T704 192T744 365Q744
464 704 538T592 653T423 694Q326 694 254 653T142 538T102 365Q102 266 141 192T253 77T423 36ZM302 829Q281 829 268 842T255 875Q255 895 268 908T302 921Q322 921 335 908T348 875Q348 855 335 842T302 829ZM543 829Q523 829 510 842T496 875Q496 895 509 908T543
921Q563 921 576 908T589 875Q589 855 576 842T543 829Z" />
<glyph unicode="&#xd7;" glyph-name="multiply" horiz-adv-x="586" d="M70 35L37 67L260 291L37 513L70 546L293 323L516 546L549 513L326 291L549 67L516 35L293 257L70 35Z" />
<glyph unicode="&#xd8;" glyph-name="Oslash" horiz-adv-x="797" d="M154 -23L119 3L180 84V84L621 674V674L680 753L715 727L655 646V646L213 56V56L154 -23ZM423 -10Q311 -10 228 37T98 168T51 365Q51 478 97 562T227 693T423 740Q534 740 618 693T748 562T794
365Q794 253 748 169T618 37T423 -10ZM423 36Q520 36 592 77T704 192T744 365Q744 464 704 538T592 653T423 694Q326 694 254 653T142 538T102 365Q102 266 141 192T253 77T423 36Z" />
<glyph unicode="&#xd9;" glyph-name="Ugrave" horiz-adv-x="737" d="M368 -10Q226 -10 159 61T92 283V730H141V290Q141 200 164 145T238 63T368 36Q448 36 498 62T572 144T595 290V730H645V283Q645 133 578 62T368 -10ZM348 780L227 1000H288L399 780H348Z" />
<glyph unicode="&#xda;" glyph-name="Uacute" horiz-adv-x="737" d="M368 -10Q226 -10 159 61T92 283V730H141V290Q141 200 164 145T238 63T368 36Q448 36 498 62T572 144T595 290V730H645V283Q645 133 578 62T368 -10ZM395 780H343L454 1000H516L395 780Z" />
<glyph unicode="&#xdb;" glyph-name="Ucircumflex" horiz-adv-x="737" d="M368 -10Q226 -10 159 61T92 283V730H141V290Q141 200 164 145T238 63T368 36Q448 36 498 62T572 144T595 290V730H645V283Q645 133 578 62T368 -10ZM180 780L336 1000H400L556 780H496L369
964H367L239 780H180Z" />
<glyph unicode="&#xdc;" glyph-name="Udieresis" horiz-adv-x="737" d="M368 -10Q226 -10 159 61T92 283V730H141V290Q141 200 164 145T238 63T368 36Q448 36 498 62T572 144T595 290V730H645V283Q645 133 578 62T368 -10ZM248 829Q227 829 214 842T201 875Q201
895 214 908T248 921Q268 921 281 908T294 875Q294 855 281 842T248 829ZM489 829Q469 829 456 842T442 875Q442 895 455 908T489 921Q509 921 522 908T535 875Q535 855 522 842T489 829Z" />
<glyph unicode="&#xdd;" glyph-name="Yacute" horiz-adv-x="673" d="M311 0V289L11 730H70L335 336H337L603 730H661L362 289V0H311ZM363 780H311L422 1000H484L363 780Z" />
<glyph unicode="&#xde;" glyph-name="Thorn" horiz-adv-x="630" d="M295 137Q259 137 221 140T127 151L129 197Q187 190 222 187T290 184Q427 184 487 229T548 375Q548 476 488 521T290 566Q258 566 223 564T129 553L127 599Q183 607 221 610T295 613Q451 613
524 555T598 375Q598 253 525 195T295 137ZM102 0V730H151V0H102Z" />
<glyph unicode="&#xdf;" glyph-name="germandbls" horiz-adv-x="597" d="M361 -10Q330 -10 289 -4T207 13L216 57Q251 47 289 41T355 35Q422 35 461 69T501 161Q501 186 492 207T458 256T387 330Q356 361 343 379T329 413Q329 426 339 442T375 487Q415 532 428
558T442 610Q442 662 409 688T310 715Q227 715 184 667T141 526V0H92V526Q92 642 147 701T309 760Q398 760 444 723T491 612Q491 580 476 550T419 472Q395 442 387 431T379 414Q379 407 389 395T432 350Q479 305 504 274T539 215T549 158Q549 81 498 36T361 -10Z"
/>
<glyph unicode="&#xe0;" glyph-name="agrave" horiz-adv-x="537" d="M210 -10Q131 -10 84 32T37 146Q37 235 111 282T325 329H414Q414 415 379 451T257 487Q202 487 156 474T65 433L53 474Q99 503 150 516T261 530Q334 530 378 510T443 444T464 326V0H416V82H414Q388
42 331 16T210 -10ZM223 32Q277 32 320 53T388 110T414 189V289H330Q209 289 148 253T86 149Q86 95 122 64T223 32ZM235 570L114 790H175L286 570H235Z" />
<glyph unicode="&#xe1;" glyph-name="aacute" horiz-adv-x="537" d="M210 -10Q131 -10 84 32T37 146Q37 235 111 282T325 329H414Q414 415 379 451T257 487Q202 487 156 474T65 433L53 474Q99 503 150 516T261 530Q334 530 378 510T443 444T464 326V0H416V82H414Q388
42 331 16T210 -10ZM223 32Q277 32 320 53T388 110T414 189V289H330Q209 289 148 253T86 149Q86 95 122 64T223 32ZM282 570H230L341 790H403L282 570Z" />
<glyph unicode="&#xe2;" glyph-name="acircumflex" horiz-adv-x="537" d="M210 -10Q131 -10 84 32T37 146Q37 235 111 282T325 329H414Q414 415 379 451T257 487Q202 487 156 474T65 433L53 474Q99 503 150 516T261 530Q334 530 378 510T443 444T464 326V0H416V82H414Q388
42 331 16T210 -10ZM223 32Q277 32 320 53T388 110T414 189V289H330Q209 289 148 253T86 149Q86 95 122 64T223 32ZM68 570L224 790H288L444 570H384L257 754H255L127 570H68Z" />
<glyph unicode="&#xe3;" glyph-name="atilde" horiz-adv-x="537" d="M210 -10Q131 -10 84 32T37 146Q37 235 111 282T325 329H414Q414 415 379 451T257 487Q202 487 156 474T65 433L53 474Q99 503 150 516T261 530Q334 530 378 510T443 444T464 326V0H416V82H414Q388
42 331 16T210 -10ZM223 32Q277 32 320 53T388 110T414 189V289H330Q209 289 148 253T86 149Q86 95 122 64T223 32ZM376 590Q352 590 323 605T250 651Q214 679 187 693T144 707Q123 707 113 682T102 601H56Q56 752 136 752Q160 752 190 738T262 691Q299 663 325
649T367 635Q389 635 399 661T409 741H456Q456 590 376 590Z" />
<glyph unicode="&#xe4;" glyph-name="adieresis" horiz-adv-x="537" d="M210 -10Q131 -10 84 32T37 146Q37 235 111 282T325 329H414Q414 415 379 451T257 487Q202 487 156 474T65 433L53 474Q99 503 150 516T261 530Q334 530 378 510T443 444T464 326V0H416V82H414Q388
42 331 16T210 -10ZM223 32Q277 32 320 53T388 110T414 189V289H330Q209 289 148 253T86 149Q86 95 122 64T223 32ZM135 619Q114 619 101 632T88 665Q88 685 101 698T135 711Q155 711 168 698T181 665Q181 645 168 632T135 619ZM376 619Q356 619 343 632T329 665Q329
685 342 698T376 711Q396 711 409 698T422 665Q422 645 409 632T376 619Z" />
<glyph unicode="&#xe5;" glyph-name="aring" horiz-adv-x="537" d="M210 -10Q131 -10 84 32T37 146Q37 235 111 282T325 329H414Q414 415 379 451T257 487Q202 487 156 474T65 433L53 474Q99 503 150 516T261 530Q334 530 378 510T443 444T464 326V0H416V82H414Q388
42 331 16T210 -10ZM223 32Q277 32 320 53T388 110T414 189V289H330Q209 289 148 253T86 149Q86 95 122 64T223 32ZM256 592Q219 592 189 610T140 658T122 725Q122 762 140 792T188 840T256 858Q293 858 323 840T371 792T389 725Q389 689 372 659T324 610T256 592ZM256
633Q294 633 320 660T347 725Q347 763 321 790T255 817Q218 817 191 790T164 725Q164 687 191 660T256 633Z" />
<glyph unicode="&#xe6;" glyph-name="ae" horiz-adv-x="922" d="M223 32Q277 32 320 53T388 110T414 189V289H330Q210 289 148 254T86 149Q86 96 122 64T223 32ZM217 -10Q133 -10 85 32T37 146Q37 235 111 282T325 329H414Q414 415 379 451T257 487Q211 487 171
479T94 452L80 492Q120 511 164 520T261 530Q334 530 378 510T443 444T463 326V210Q463 147 431 97T344 19T217 -10ZM666 -12Q545 -12 480 58T414 258Q414 384 478 456T655 528Q763 528 820 461T878 266Q878 259 878 253T877 242H441V283H843L831 268Q831 376 787
431T655 486Q564 486 514 428T463 261V251Q463 144 515 88T666 31Q716 31 761 44T842 84L856 44Q819 17 770 3T666 -12Z" />
<glyph unicode="&#xe7;" glyph-name="ccedilla" horiz-adv-x="533" d="M311 -10Q229 -10 170 22T78 115T46 260Q46 344 78 404T169 497T311 530Q351 530 387 522T460 494L447 454Q414 471 381 479T313 487Q211 487 154 427T96 260Q96 154 153 94T313 33Q348 33
381 41T447 66L460 26Q424 7 388 -1T311 -10ZM262 -219Q204 -219 157 -198L168 -158Q188 -167 211 -172T259 -177Q283 -177 304 -172T340 -155T354 -121Q354 -92 326 -61T244 0L290 15Q343 -16 372 -52T401 -127Q401 -149 389 -170T347 -205T262 -219Z" />
<glyph unicode="&#xe8;" glyph-name="egrave" horiz-adv-x="554" d="M298 -10Q177 -10 112 60T46 260Q46 386 110 458T287 530Q395 530 452 463T510 268Q510 261 510 255T509 244H73V285H475L463 270Q463 378 419 433T287 488Q196 488 146 430T95 263V253Q95 146
147 90T298 33Q348 33 393 46T474 86L488 46Q451 19 402 5T298 -10ZM259 570L138 790H199L310 570H259Z" />
<glyph unicode="&#xe9;" glyph-name="eacute" horiz-adv-x="554" d="M298 -10Q177 -10 112 60T46 260Q46 386 110 458T287 530Q395 530 452 463T510 268Q510 261 510 255T509 244H73V285H475L463 270Q463 378 419 433T287 488Q196 488 146 430T95 263V253Q95 146
147 90T298 33Q348 33 393 46T474 86L488 46Q451 19 402 5T298 -10ZM306 570H254L365 790H427L306 570Z" />
<glyph unicode="&#xea;" glyph-name="ecircumflex" horiz-adv-x="554" d="M298 -10Q177 -10 112 60T46 260Q46 386 110 458T287 530Q395 530 452 463T510 268Q510 261 510 255T509 244H73V285H475L463 270Q463 378 419 433T287 488Q196 488 146 430T95 263V253Q95
146 147 90T298 33Q348 33 393 46T474 86L488 46Q451 19 402 5T298 -10ZM92 570L248 790H312L468 570H408L281 754H279L151 570H92Z" />
<glyph unicode="&#xeb;" glyph-name="edieresis" horiz-adv-x="554" d="M298 -10Q177 -10 112 60T46 260Q46 386 110 458T287 530Q395 530 452 463T510 268Q510 261 510 255T509 244H73V285H475L463 270Q463 378 419 433T287 488Q196 488 146 430T95 263V253Q95
146 147 90T298 33Q348 33 393 46T474 86L488 46Q451 19 402 5T298 -10ZM159 619Q138 619 125 632T112 665Q112 685 125 698T159 711Q179 711 192 698T205 665Q205 645 192 632T159 619ZM400 619Q380 619 367 632T353 665Q353 685 366 698T400 711Q420 711 433
698T446 665Q446 645 433 632T400 619Z" />
<glyph unicode="&#xec;" glyph-name="igrave" horiz-adv-x="252" d="M101 0V520H151V0H101ZM362 570L241 790H302L413 570H362Z" />
<glyph unicode="&#xed;" glyph-name="iacute" horiz-adv-x="252" d="M101 0V520H151V0H101ZM152 570H100L211 790H273L152 570Z" />
<glyph unicode="&#xee;" glyph-name="icircumflex" horiz-adv-x="252" d="M101 0V520H151V0H101ZM194 570L350 790H414L570 570H510L383 754H381L253 570H194Z" />
<glyph unicode="&#xef;" glyph-name="idieresis" horiz-adv-x="252" d="M101 0V520H151V0H101ZM262 619Q241 619 228 632T215 665Q215 685 228 698T262 711Q282 711 295 698T308 665Q308 645 295 632T262 619ZM503 619Q483 619 470 632T456 665Q456 685 469 698T503
711Q523 711 536 698T549 665Q549 645 536 632T503 619Z" />
<glyph unicode="&#xf0;" glyph-name="eth" horiz-adv-x="581" d="M287 -10Q175 -10 111 56T46 238Q46 351 109 415T282 480Q335 480 377 465T448 422L450 423Q429 481 397 535T325 633T241 708T150 749L165 790Q222 776 275 738T375 645T455 524T509 386T529 244Q529
125 465 58T287 -10ZM287 33Q378 33 429 87T480 238Q480 333 430 385T287 437Q196 437 146 385T95 238Q95 142 146 88T287 33ZM113 511L96 551L536 726L553 686L113 511Z" />
<glyph unicode="&#xf1;" glyph-name="ntilde" horiz-adv-x="595" d="M92 0V520H141V436H143Q169 480 219 505T334 530Q429 530 475 473T522 300V0H472V293Q472 391 436 439T324 487Q270 487 229 464T164 399T141 303V0H92ZM423 590Q399 590 370 605T297 651Q261
679 234 693T191 707Q170 707 160 682T149 601H103Q103 752 183 752Q207 752 237 738T309 691Q346 663 372 649T414 635Q436 635 446 661T456 741H503Q503 590 423 590Z" />
<glyph unicode="&#xf2;" glyph-name="ograve" horiz-adv-x="586" d="M293 -10Q218 -10 163 23T77 117T46 260Q46 343 76 403T162 497T293 530Q369 530 424 497T509 404T540 260Q540 178 510 117T424 23T293 -10ZM293 33Q385 33 438 94T491 260Q491 366 438 426T293
487Q201 487 148 427T95 260Q95 155 148 94T293 33ZM273 570L152 790H213L324 570H273Z" />
<glyph unicode="&#xf3;" glyph-name="oacute" horiz-adv-x="586" d="M293 -10Q218 -10 163 23T77 117T46 260Q46 343 76 403T162 497T293 530Q369 530 424 497T509 404T540 260Q540 178 510 117T424 23T293 -10ZM293 33Q385 33 438 94T491 260Q491 366 438 426T293
487Q201 487 148 427T95 260Q95 155 148 94T293 33ZM319 570H267L378 790H440L319 570Z" />
<glyph unicode="&#xf4;" glyph-name="ocircumflex" horiz-adv-x="586" d="M293 -10Q218 -10 163 23T77 117T46 260Q46 343 76 403T162 497T293 530Q369 530 424 497T509 404T540 260Q540 178 510 117T424 23T293 -10ZM293 33Q385 33 438 94T491 260Q491 366 438
426T293 487Q201 487 148 427T95 260Q95 155 148 94T293 33ZM105 570L261 790H325L481 570H421L294 754H292L164 570H105Z" />
<glyph unicode="&#xf5;" glyph-name="otilde" horiz-adv-x="586" d="M293 -10Q218 -10 163 23T77 117T46 260Q46 343 76 403T162 497T293 530Q369 530 424 497T509 404T540 260Q540 178 510 117T424 23T293 -10ZM293 33Q385 33 438 94T491 260Q491 366 438 426T293
487Q201 487 148 427T95 260Q95 155 148 94T293 33ZM413 590Q389 590 360 605T287 651Q251 679 224 693T181 707Q160 707 150 682T139 601H93Q93 752 173 752Q197 752 227 738T299 691Q336 663 362 649T404 635Q426 635 436 661T446 741H493Q493 590 413 590Z"
/>
<glyph unicode="&#xf6;" glyph-name="odieresis" horiz-adv-x="586" d="M293 -10Q218 -10 163 23T77 117T46 260Q46 343 76 403T162 497T293 530Q369 530 424 497T509 404T540 260Q540 178 510 117T424 23T293 -10ZM293 33Q385 33 438 94T491 260Q491 366 438
426T293 487Q201 487 148 427T95 260Q95 155 148 94T293 33ZM173 619Q152 619 139 632T126 665Q126 685 139 698T173 711Q193 711 206 698T219 665Q219 645 206 632T173 619ZM414 619Q394 619 381 632T367 665Q367 685 380 698T414 711Q434 711 447 698T460 665Q460
645 447 632T414 619Z" />
<glyph unicode="&#xf7;" glyph-name="divide" horiz-adv-x="707" d="M64 267V313H644V267H64ZM354 13Q335 13 322 27T308 59Q308 78 321 91T354 105Q372 105 385 92T399 59Q399 41 386 27T354 13ZM354 475Q335 475 322 488T308 521Q308 540 321 553T354 567Q372
567 385 554T399 521Q399 502 386 489T354 475Z" />
<glyph unicode="&#xf8;" glyph-name="oslash" horiz-adv-x="557" d="M112 -22L80 2L127 66V66L432 478V478L480 542L512 518L464 454V454L159 42V42L112 -22ZM293 -10Q218 -10 163 23T77 117T46 260Q46 343 76 403T162 497T293 530Q369 530 424 497T509 404T540
260Q540 178 510 117T424 23T293 -10ZM293 33Q385 33 438 94T491 260Q491 366 438 426T293 487Q201 487 148 427T95 260Q95 155 148 94T293 33Z" />
<glyph unicode="&#xf9;" glyph-name="ugrave" horiz-adv-x="585" d="M257 -10Q166 -10 120 47T74 220V520H123V227Q123 129 159 81T267 33Q320 33 360 56T422 121T445 217V520H494V0H445L444 84H445Q420 40 370 15T257 -10ZM267 570L146 790H207L318 570H267Z" />
<glyph unicode="&#xfa;" glyph-name="uacute" horiz-adv-x="585" d="M257 -10Q166 -10 120 47T74 220V520H123V227Q123 129 159 81T267 33Q320 33 360 56T422 121T445 217V520H494V0H445L444 84H445Q420 40 370 15T257 -10ZM314 570H262L373 790H435L314 570Z" />
<glyph unicode="&#xfb;" glyph-name="ucircumflex" horiz-adv-x="585" d="M257 -10Q166 -10 120 47T74 220V520H123V227Q123 129 159 81T267 33Q320 33 360 56T422 121T445 217V520H494V0H445L444 84H445Q420 40 370 15T257 -10ZM99 570L255 790H319L475 570H415L288
754H286L158 570H99Z" />
<glyph unicode="&#xfc;" glyph-name="udieresis" horiz-adv-x="585" d="M257 -10Q166 -10 120 47T74 220V520H123V227Q123 129 159 81T267 33Q320 33 360 56T422 121T445 217V520H494V0H445L444 84H445Q420 40 370 15T257 -10ZM167 619Q146 619 133 632T120 665Q120
685 133 698T167 711Q187 711 200 698T213 665Q213 645 200 632T167 619ZM408 619Q388 619 375 632T361 665Q361 685 374 698T408 711Q428 711 441 698T454 665Q454 645 441 632T408 619Z" />
<glyph unicode="&#xfd;" glyph-name="yacute" horiz-adv-x="524" d="M52 -188Q102 -176 138 -153T201 -87T253 20L255 -18L20 520H73L270 55H272L457 520H510L296 1Q267 -70 234 -117T159 -191T62 -230L52 -188ZM287 570H235L346 790H408L287 570Z" />
<glyph unicode="&#xfe;" glyph-name="thorn" horiz-adv-x="593" d="M92 -240V760H141V430H143Q170 477 219 503T331 530Q435 530 491 460T547 260Q547 131 491 61T331 -10Q268 -10 219 16T143 90H141V-240H92ZM322 33Q405 33 451 92T498 260Q498 368 452 427T322
487Q267 487 226 462T163 390T141 283V237Q141 176 163 130T226 59T322 33Z" />
<glyph unicode="&#xff;" glyph-name="ydieresis" horiz-adv-x="524" d="M52 -188Q102 -176 138 -153T201 -87T253 20L255 -18L20 520H73L270 55H272L457 520H510L296 1Q267 -70 234 -117T159 -191T62 -230L52 -188ZM140 619Q119 619 106 632T93 665Q93 685 106
698T140 711Q160 711 173 698T186 665Q186 645 173 632T140 619ZM381 619Q361 619 348 632T334 665Q334 685 347 698T381 711Q401 711 414 698T427 665Q427 645 414 632T381 619Z" />
<glyph unicode="&#x2013;" glyph-name="endash" horiz-adv-x="500" d="M0 267V313H500V267H0Z" />
<glyph unicode="&#x2014;" glyph-name="emdash" horiz-adv-x="1000" d="M0 267V313H1000V267H0Z" />
<glyph unicode="&#x2018;" glyph-name="quoteleft" horiz-adv-x="240" d="M204 770L103 470H45L156 770H204Z" />
<glyph unicode="&#x2019;" glyph-name="quoteright" horiz-adv-x="240" d="M51 470L152 770H210L99 470H51Z" />
<glyph unicode="&#x201a;" glyph-name="quotesinglbase" horiz-adv-x="320" d="M56 -100L157 200H215L104 -100H56Z" />
<glyph unicode="&#x201c;" glyph-name="quotedblleft" horiz-adv-x="432" d="M204 770L103 470H45L156 770H204ZM396 770L295 470H237L348 770H396Z" />
<glyph unicode="&#x201d;" glyph-name="quotedblright" horiz-adv-x="432" d="M51 470L152 770H210L99 470H51ZM243 470L344 770H402L291 470H243Z" />
<glyph unicode="&#x201e;" glyph-name="quotedblbase" horiz-adv-x="512" d="M56 -100L157 200H215L104 -100H56ZM248 -100L349 200H407L296 -100H248Z" />
<glyph unicode="&#x2022;" glyph-name="bullet" horiz-adv-x="289" d="M145 235Q129 235 117 242T97 262T90 290Q90 305 97 318T116 338T145 345Q160 345 172 338T192 318T199 290Q199 275 192 263T173 243T145 235Z" />
<glyph unicode="&#x2039;" glyph-name="guilsinglleft" horiz-adv-x="256" d="M170 0L14 260L170 520H219L62 260L219 0H170Z" />
<glyph unicode="&#x203a;" glyph-name="guilsinglright" horiz-adv-x="256" d="M87 0H37L194 260L37 520H87L243 260L87 0Z" />
</font>
</defs>
</svg>
