<?xml version="1.0" standalone="no"?>
<!DOCTYPE svg PUBLIC "-//W3C//DTD SVG 1.1//EN" "http://www.w3.org/Graphics/SVG/1.1/DTD/svg11.dtd">
<svg xmlns="http://www.w3.org/2000/svg">
<defs >
<font id="MPLUS2" horiz-adv-x="968" ><font-face
    font-family="M PLUS 2 Black"
    units-per-em="1000"
    panose-1="0 0 0 0 0 0 0 0 0 0"
    ascent="1160"
    descent="-288"
    alphabetic="0" />
<glyph unicode=" " glyph-name="space" horiz-adv-x="260" />
<glyph unicode="!" glyph-name="exclam" horiz-adv-x="372" d="M96 250L66 730H306L276 250H96ZM186 -10Q134 -10 105 16T76 90Q76 137 105 163T186 190Q238 190 267 164T296 90Q296 43 267 17T186 -10Z" />
<glyph unicode="&quot;" glyph-name="quotedbl" horiz-adv-x="580" d="M90 470L60 770H270L240 470H90ZM340 470L310 770H520L490 470H340Z" />
<glyph unicode="#" glyph-name="numbersign" horiz-adv-x="693" d="M70 0L97 155H30V305H124L149 445H83V595H175L199 730H379L355 595H415L439 730H619L595 595H663V445H569L544 305H610V155H517L490 0H310L337 155H277L250 0H70ZM281 261L259 295H409L371 261L412
489L434 455H284L322 489L281 261Z" />
<glyph unicode="$" glyph-name="dollar" horiz-adv-x="657" d="M326 -10Q245 -10 173 10T53 64L93 229Q145 195 208 175T326 155Q372 155 396 169T421 210Q421 225 412 235T379 255T316 275Q214 308 153 343T64 423T36 525Q36 629 114 684T341 740Q410 740 477
727T591 690L551 525Q494 552 449 563T351 575Q294 575 265 563T236 525Q236 511 246 500T281 479T346 458Q448 423 508 388T595 312T621 215Q621 111 542 51T326 -10ZM254 -105V65H404V-105H254ZM254 65V365H404V65H254ZM254 365V665H404V365H254ZM254 665V835H404V665H254Z"
/>
<glyph unicode="%" glyph-name="percent" horiz-adv-x="970" d="M215 0L575 730H755L395 0H215ZM210 286Q116 286 73 340T30 511Q30 628 73 682T210 736Q304 736 347 682T390 511Q390 394 347 340T210 286ZM210 408Q230 408 238 430T247 511Q247 570 239 592T210
614Q190 614 182 592T173 511Q173 453 181 431T210 408ZM760 -6Q666 -6 623 48T580 219Q580 336 623 390T760 444Q854 444 897 390T940 219Q940 102 897 48T760 -6ZM760 116Q780 116 788 138T797 219Q797 278 789 300T760 322Q740 322 732 300T723 219Q723 161
731 139T760 116Z" />
<glyph unicode="&amp;" glyph-name="ampersand" horiz-adv-x="780" d="M315 -10Q228 -10 164 13T65 79T30 180Q30 223 52 260T123 336T255 420Q309 450 340 472T386 513T400 550Q400 577 382 591T328 605Q293 605 274 591T255 550Q255 537 258 526T274 498T311
457T381 390L800 0H590L181 365Q137 405 112 435T76 494T65 555Q65 643 133 691T325 740Q447 740 518 690T590 555Q590 512 568 474T494 396T355 310Q309 286 283 268T246 233T235 198Q235 168 257 154T325 140Q375 140 418 157T515 218V380H685V105Q605 63 543
38T426 1T315 -10Z" />
<glyph unicode="&apos;" glyph-name="quotesingle" horiz-adv-x="330" d="M90 470L60 770H270L240 470H90Z" />
<glyph unicode="(" glyph-name="parenleft" horiz-adv-x="414" d="M218 -110Q145 -27 105 89T64 330Q64 455 104 571T218 770H382Q312 671 278 564T244 330Q244 204 278 97T382 -110H218Z" />
<glyph unicode=")" glyph-name="parenright" horiz-adv-x="414" d="M196 -110H32Q103 -11 136 96T170 330Q170 456 137 563T32 770H196Q269 687 309 571T350 330Q350 205 310 89T196 -110Z" />
<glyph unicode="*" glyph-name="asterisk" horiz-adv-x="532" d="M192 300L70 388L152 493L24 529L71 673L195 627L191 760H341L337 627L461 673L508 529L380 493L462 388L340 300L266 410L192 300Z" />
<glyph unicode="+" glyph-name="plus" horiz-adv-x="676" d="M253 0V205H48V375H253V580H423V375H628V205H423V0H253Z" />
<glyph unicode="," glyph-name="comma" horiz-adv-x="336" d="M33 -170L93 200H303L183 -170H33Z" />
<glyph unicode="-" glyph-name="hyphen" horiz-adv-x="446" d="M48 205V375H398V205H48Z" />
<glyph unicode="." glyph-name="period" horiz-adv-x="352" d="M176 -10Q124 -10 95 18T66 96Q66 145 95 172T176 200Q228 200 257 173T286 96Q286 46 257 18T176 -10Z" />
<glyph unicode="/" glyph-name="slash" horiz-adv-x="551" d="M6 -40L365 770H545L186 -40H6Z" />
<glyph unicode="0" glyph-name="zero" horiz-adv-x="660" d="M330 -10Q174 -10 102 80T30 365Q30 560 102 650T330 740Q486 740 558 650T630 365Q630 170 558 80T330 -10ZM330 160Q382 160 403 207T425 365Q425 476 404 523T330 570Q278 570 257 523T235 365Q235
254 256 207T330 160Z" />
<glyph unicode="1" glyph-name="one" horiz-adv-x="660" d="M315 0V515H313L95 379L40 554L315 730H520V0H315Z" />
<glyph unicode="2" glyph-name="two" horiz-adv-x="660" d="M65 165Q148 225 207 274T303 363T357 437T375 500Q375 570 290 570Q211 570 81 493L33 651Q147 740 320 740Q448 740 514 685T580 520Q580 473 565 428T518 338T442 251T335 167V165H585V0H65V165Z" />
<glyph unicode="3" glyph-name="three" horiz-adv-x="660" d="M298 -10Q231 -10 166 4T30 50L82 204Q135 181 189 168T287 155Q337 155 363 172T390 222Q390 259 349 273T203 287H163V447H203Q295 447 340 466T385 522Q385 550 361 562T286 575Q258 575 231 571T170
556T87 526L45 680Q98 703 139 716T221 734T308 740Q447 740 516 695T585 560Q585 494 549 449T441 380V378Q515 370 555 326T595 210Q595 107 516 49T298 -10Z" />
<glyph unicode="4" glyph-name="four" horiz-adv-x="660" d="M330 0V120H10V285L330 730H530V285H640V120H530V0H330ZM191 275H340V483H338L191 277V275Z" />
<glyph unicode="5" glyph-name="five" horiz-adv-x="660" d="M285 -10Q221 -10 170 1T65 34L105 194Q157 173 196 164T275 155Q342 155 376 180T410 255Q410 290 393 307T340 325Q312 325 296 313T265 270H85L105 730H580V565H285L282 465H284Q309 473 329 476T375
480Q491 480 553 420T615 245Q615 119 532 55T285 -10Z" />
<glyph unicode="6" glyph-name="six" horiz-adv-x="660" d="M330 -10Q232 -10 168 21T72 117T40 280Q40 418 98 520T262 679T511 738L546 578Q435 581 368 555T263 466L265 464Q295 478 322 484T380 490Q455 490 508 461T591 379T620 250Q620 170 585 112T485
22T330 -10ZM330 145Q373 145 396 171T420 245Q420 293 397 319T330 345Q302 345 282 334T251 300T240 245Q240 213 250 191T281 157T330 145Z" />
<glyph unicode="7" glyph-name="seven" horiz-adv-x="660" d="M134 0Q160 82 184 148T235 277T298 406T379 555V560H55V730H605V560Q564 491 535 439T483 342T442 249T402 142T354 0H134Z" />
<glyph unicode="8" glyph-name="eight" horiz-adv-x="660" d="M330 -10Q236 -10 168 15T62 88T25 200Q25 253 53 292T146 366V368Q99 403 73 451T46 550Q46 608 81 650T179 716T330 740Q416 740 480 716T579 650T615 550Q615 504 589 466T506 392V390Q635 326
635 200Q635 134 599 87T495 15T330 -10ZM330 135Q378 135 407 155T437 210Q437 240 408 263T306 311Q224 268 224 210Q224 176 253 156T330 135ZM341 442Q383 462 402 483T422 530Q422 561 398 578T330 595Q287 595 263 578T239 530Q239 502 262 482T341 442Z"
/>
<glyph unicode="9" glyph-name="nine" horiz-adv-x="660" d="M330 740Q428 740 492 709T588 613T620 450Q620 313 562 211T399 51T149 -8L114 152Q225 149 292 175T397 264L395 266Q365 252 339 246T280 240Q206 240 152 269T69 352T40 480Q40 561 75 619T175
708T330 740ZM330 585Q287 585 264 559T240 485Q240 437 263 411T330 385Q359 385 379 396T409 430T420 485Q420 517 410 539T379 573T330 585Z" />
<glyph unicode=":" glyph-name="colon" horiz-adv-x="386" d="M193 320Q141 320 112 348T83 426Q83 475 112 502T193 530Q245 530 274 503T303 426Q303 376 274 348T193 320ZM193 -10Q141 -10 112 18T83 96Q83 145 112 172T193 200Q245 200 274 173T303 96Q303
46 274 18T193 -10Z" />
<glyph unicode=";" glyph-name="semicolon" horiz-adv-x="376" d="M33 -170L93 200H303L183 -170H33ZM193 320Q141 320 112 348T83 425Q83 475 112 502T193 530Q245 530 274 503T303 425Q303 376 274 348T193 320Z" />
<glyph unicode="&lt;" glyph-name="less" horiz-adv-x="688" d="M628 -10L48 180V400L628 590V410L199 291V289L628 170V-10Z" />
<glyph unicode="=" glyph-name="equal" horiz-adv-x="712" d="M66 335V500H646V335H66ZM66 80V245H646V80H66Z" />
<glyph unicode="&gt;" glyph-name="greater" horiz-adv-x="688" d="M60 -10V170L489 289V291L60 410V590L640 400V180L60 -10Z" />
<glyph unicode="?" glyph-name="question" horiz-adv-x="603" d="M179 250Q179 284 193 315T238 378T316 446Q353 473 361 492T369 530Q369 555 349 565T279 575Q236 575 180 565T64 535L29 700Q91 719 165 729T309 740Q579 740 579 560Q579 502 557 455T476 365Q449
346 428 326T395 287T379 250H179ZM279 -10Q227 -10 198 16T169 90Q169 137 198 163T279 190Q331 190 360 164T389 90Q389 43 360 17T279 -10Z" />
<glyph unicode="@" glyph-name="at" horiz-adv-x="830" d="M415 -115Q331 -115 261 -87T139 -9T59 110T30 260Q30 341 58 409T139 528T261 607T415 635Q499 635 569 607T691 529T771 410T800 260Q800 163 755 113T612 62Q565 62 527 74T464 108H462Q419 62 345
62Q293 62 257 89T205 161T199 260Q216 354 269 403T397 453Q416 453 438 445T471 428H473L478 453H613L571 222Q564 185 573 169T613 153Q653 153 671 179T690 260Q690 341 655 403T558 500T415 535Q334 535 272 500T175 403T140 260Q140 179 175 117T272 20T415
-15Q469 -15 515 1T596 46L662 -34Q613 -72 551 -93T415 -115ZM377 176Q405 176 426 197T455 260Q460 285 456 304T440 334T408 345Q380 345 359 323T330 260Q326 236 330 217T346 187T377 176Z" />
<glyph unicode="A" glyph-name="A" horiz-adv-x="732" d="M6 0L231 730H501L726 0H506L367 560H365L226 0H6ZM171 135V300H561V135H171Z" />
<glyph unicode="B" glyph-name="B" horiz-adv-x="680" d="M310 -10Q267 -10 199 -7T60 4V726Q99 730 142 733T226 738T300 740Q463 740 546 692T630 550Q630 484 591 441T480 386V384Q564 374 607 330T650 210Q650 103 563 47T310 -10ZM204 153Q230 149 264 147T320
145Q384 145 414 165T445 226Q445 265 416 282T320 300H160V450H320Q382 450 406 464T430 514Q430 552 405 568T320 585Q305 585 286 584T246 582T204 577L260 671V59L204 153Z" />
<glyph unicode="C" glyph-name="C" horiz-adv-x="706" d="M421 -10Q296 -10 209 33T76 161T30 365Q30 486 75 569T208 696T421 740Q562 740 670 684L627 514Q521 570 429 570Q368 570 326 546T261 477T238 365Q238 300 260 254T325 184T429 160Q521 160 627 216L670
46Q562 -10 421 -10Z" />
<glyph unicode="D" glyph-name="D" horiz-adv-x="710" d="M310 -10Q261 -10 193 -6T60 4V726Q125 732 193 736T310 740Q445 740 526 703T643 584T680 365Q680 229 644 147T526 27T310 -10ZM323 150Q385 150 418 167T463 231T475 365Q475 453 463 499T418 562T323
580Q302 580 267 579T170 572L260 660V70L170 158Q231 154 266 152T323 150Z" />
<glyph unicode="E" glyph-name="E" horiz-adv-x="641" d="M60 0V730H590V570H260V452H570V298H260V160H590V0H60Z" />
<glyph unicode="F" glyph-name="F" horiz-adv-x="645" d="M60 0V730H600V565H260V430H580V270H260V0H60Z" />
<glyph unicode="G" glyph-name="G" horiz-adv-x="761" d="M438 -10Q310 -10 219 34T79 163T30 365Q30 483 77 566T214 695T427 740Q496 740 555 726T663 684L621 524Q584 547 531 561T427 575Q366 575 325 551T262 481T240 365Q240 295 262 249T328 179T438 155Q467
155 488 160T533 177L510 131V281H350V446H710V50Q655 21 584 6T438 -10Z" />
<glyph unicode="H" glyph-name="H" horiz-adv-x="730" d="M470 0V730H670V0H470ZM60 0V730H260V0H60ZM160 290V460H570V290H160Z" />
<glyph unicode="I" glyph-name="I" horiz-adv-x="342" d="M66 0V730H276V0H66Z" />
<glyph unicode="J" glyph-name="J" horiz-adv-x="600" d="M243 -10Q120 -10 6 39L36 214Q108 187 150 176T230 165Q273 165 297 180T331 234T341 340V730H546V300Q546 141 472 66T243 -10Z" />
<glyph unicode="K" glyph-name="K" horiz-adv-x="732" d="M60 0V730H260V415H262L480 730H710L465 375L720 0H490L262 335H260V0H60Z" />
<glyph unicode="L" glyph-name="L" horiz-adv-x="634" d="M60 0V730H265V170H610V0H60Z" />
<glyph unicode="M" glyph-name="M" horiz-adv-x="890" d="M25 0L113 730H353L444 280H446L537 730H777L865 0H665L636 460H634L545 80H345L256 460H254L225 0H25Z" />
<glyph unicode="N" glyph-name="N" horiz-adv-x="740" d="M60 0V730H260L478 340H480V730H680V0H480L262 390H260V0H60Z" />
<glyph unicode="O" glyph-name="O" horiz-adv-x="820" d="M410 -10Q291 -10 206 34T75 163T30 365Q30 483 75 567T205 695T410 740Q530 740 615 696T745 567T790 365Q790 247 745 163T615 35T410 -10ZM410 160Q468 160 507 183T565 251T585 365Q585 433 566 478T507
547T410 570Q352 570 313 547T255 479T235 365Q235 297 254 252T313 183T410 160Z" />
<glyph unicode="P" glyph-name="P" horiz-adv-x="664" d="M60 726Q101 730 146 733T232 738T302 740Q471 740 555 671T640 465Q640 332 561 261T333 190Q299 190 254 193T160 204V364Q198 358 239 354T307 350Q373 350 404 378T435 465Q435 524 404 552T307 580Q282
580 247 577T170 566L260 660V0H60V726Z" />
<glyph unicode="Q" glyph-name="Q" horiz-adv-x="818" d="M640 -150Q606 -95 575 -65T505 -23T410 -10Q324 -10 254 16T134 92T57 211T30 365Q30 450 57 519T134 637T254 713T410 740Q496 740 566 714T686 638T763 519T790 365Q790 304 775 251T731 155T656 76V74Q697
60 737 29T800 -40L640 -150ZM410 160Q463 160 502 185T563 257T585 365Q585 427 564 473T503 544T410 570Q357 570 318 545T257 473T235 365Q235 303 256 257T317 186T410 160Z" />
<glyph unicode="R" glyph-name="R" horiz-adv-x="714" d="M60 726Q103 730 149 733T239 738T312 740Q481 740 560 681T640 496Q640 371 561 312T312 252Q279 252 238 254T162 258L170 412Q207 406 251 402T322 398Q381 398 408 420T435 489Q435 536 408 558T322
580Q295 580 251 576T170 566L260 660V0H60V726ZM462 0L203 327H421L690 0H462Z" />
<glyph unicode="S" glyph-name="S" horiz-adv-x="666" d="M317 -10Q235 -10 160 7T36 54L78 224Q113 205 157 189T247 164T330 155Q374 155 397 169T420 210Q420 223 413 233T389 253T342 273T264 297Q205 313 162 335T91 385T50 448T36 525Q36 629 116 684T347
740Q420 740 491 728T616 692L574 522Q520 548 461 561T344 575Q294 575 270 564T246 526Q246 512 252 501T274 479T318 458T392 434Q456 415 501 393T574 345T616 285T630 210Q630 104 549 47T317 -10Z" />
<glyph unicode="T" glyph-name="T" horiz-adv-x="668" d="M231 0V560H24V730H644V560H437V0H231Z" />
<glyph unicode="U" glyph-name="U" horiz-adv-x="728" d="M364 -10Q207 -10 131 66T54 300V730H254V340Q254 269 263 230T297 176T364 160Q408 160 431 175T464 230T474 340V730H674V300Q674 143 598 67T364 -10Z" />
<glyph unicode="V" glyph-name="V" horiz-adv-x="712" d="M226 0L6 730H226L355 200H357L486 730H706L486 0H226Z" />
<glyph unicode="W" glyph-name="W" d="M174 0L24 730H229L298 210H300L364 670H604L668 210H670L739 730H944L794 0H554L485 460H483L414 0H174Z" />
<glyph unicode="X" glyph-name="X" horiz-adv-x="712" d="M26 0L206 365L26 730H251L355 475H357L461 730H686L506 365L686 0H461L357 255H355L251 0H26Z" />
<glyph unicode="Y" glyph-name="Y" horiz-adv-x="708" d="M249 0V250L4 730H224L353 420H355L484 730H704L459 250V0H249Z" />
<glyph unicode="Z" glyph-name="Z" horiz-adv-x="636" d="M48 0V165L353 563V565H48V730H588V565L283 167V165H588V0H48Z" />
<glyph unicode="[" glyph-name="bracketleft" horiz-adv-x="498" d="M92 -110V770H452V640H262V20H452V-110H92Z" />
<glyph unicode="\" glyph-name="backslash" horiz-adv-x="551" d="M545 -40H365L6 770H186L545 -40Z" />
<glyph unicode="]" glyph-name="bracketright" horiz-adv-x="498" d="M406 -110H46V20H236V640H46V770H406V-110Z" />
<glyph unicode="^" glyph-name="asciicircum" horiz-adv-x="692" d="M6 280L216 730H476L686 280H466L347 590H345L226 280H6Z" />
<glyph unicode="_" glyph-name="underscore" horiz-adv-x="640" d="M0 -200V-70H640V-200H0Z" />
<glyph unicode="`" glyph-name="grave" horiz-adv-x="344" d="M388 570L268 790H498L558 570H388Z" />
<glyph unicode="a" glyph-name="a" horiz-adv-x="575" d="M182 -10Q109 -10 66 33T22 150Q22 236 90 283T282 330H336Q336 364 319 377T256 390Q209 390 161 379T64 344L43 484Q98 508 155 519T283 530Q375 530 429 511T508 447T532 330V0H346L344 60H342Q313
27 271 9T182 -10ZM258 125Q282 125 299 132T326 153T336 185V225H312Q253 225 226 212T198 170Q198 148 213 137T258 125Z" />
<glyph unicode="b" glyph-name="b" horiz-adv-x="641" d="M405 -10Q357 -10 319 6T244 60H242L240 0H54V730H250V460H252Q288 498 323 514T405 530Q506 530 560 461T614 260Q614 129 560 60T405 -10ZM334 140Q377 140 399 171T422 260Q422 319 400 349T334 380Q309
380 290 370T261 342T250 300V220Q250 196 260 178T290 150T334 140Z" />
<glyph unicode="c" glyph-name="c" horiz-adv-x="550" d="M332 -10Q235 -10 167 21T63 113T27 260Q27 347 62 407T166 498T332 530Q383 530 425 521T507 490L477 350Q441 370 410 380T347 390Q289 390 258 357T227 260Q227 196 258 163T347 130Q379 130 410 140T477
170L507 30Q467 9 425 0T332 -10Z" />
<glyph unicode="d" glyph-name="d" horiz-adv-x="641" d="M236 -10Q135 -10 81 59T27 260Q27 391 81 460T236 530Q283 530 318 514T389 460H391V730H587V0H401L399 60H397Q360 23 322 7T236 -10ZM307 140Q332 140 351 150T380 178T391 220V300Q391 324 381 342T351
370T307 380Q264 380 242 350T219 260Q219 202 241 171T307 140Z" />
<glyph unicode="e" glyph-name="e" horiz-adv-x="583" d="M327 -10Q183 -10 105 60T27 260Q27 386 99 458T297 530Q420 530 488 462T557 270Q557 252 556 230T553 200H137V315H398L375 280Q375 345 357 375T297 405Q257 405 238 375T219 280V220Q219 173 245 152T329
130Q373 130 422 141T507 168L527 28Q490 11 437 1T327 -10Z" />
<glyph unicode="f" glyph-name="f" horiz-adv-x="482" d="M127 0V360H16V500H127V550Q127 657 183 713T345 770Q372 770 404 767T466 755L446 610Q410 620 380 620Q349 620 337 606T325 550V500H461V360H325V0H127Z" />
<glyph unicode="g" glyph-name="g" horiz-adv-x="641" d="M275 -220Q209 -220 153 -206T59 -166L83 -26Q120 -51 165 -65T256 -80Q326 -80 358 -44T391 70V86H389Q352 50 318 35T236 20Q135 20 81 85T27 275Q27 399 81 464T236 530Q283 530 321 515T397 464H399L401
520H587V70Q587 -72 507 -146T275 -220ZM307 170Q332 170 350 179T380 204T391 240V310Q391 331 380 346T351 371T307 380Q265 380 242 353T219 275Q219 225 242 198T307 170Z" />
<glyph unicode="h" glyph-name="h" horiz-adv-x="627" d="M54 0V730H250V460H252Q287 498 323 514T409 530Q501 530 542 480T584 320V0H388V280Q388 329 375 349T329 370Q306 370 288 361T260 337T250 300V0H54Z" />
<glyph unicode="i" glyph-name="i" horiz-adv-x="338" d="M69 0V490H269V0H69ZM169 550Q117 550 88 576T59 650Q59 697 88 723T169 750Q221 750 250 724T279 650Q279 603 250 577T169 550Z" />
<glyph unicode="j" glyph-name="j" horiz-adv-x="358" d="M-81 -70Q-25 -65 9 -58T60 -36T83 4T89 70V490H289V70Q289 -7 273 -59T219 -144T114 -194T-51 -220L-81 -70ZM189 550Q137 550 108 576T79 650Q79 697 108 723T189 750Q241 750 270 724T299 650Q299 603
270 577T189 550Z" />
<glyph unicode="k" glyph-name="k" horiz-adv-x="625" d="M54 0V730H250V325H252L384 520H609L414 270L614 0H389L252 215H250V0H54Z" />
<glyph unicode="l" glyph-name="l" horiz-adv-x="318" d="M59 0V730H259V0H59Z" />
<glyph unicode="m" glyph-name="m" horiz-adv-x="867" d="M54 0V520H236L238 450H240Q270 491 305 510T384 530Q430 530 462 510T511 450H513Q549 494 585 512T673 530Q754 530 789 484T824 330V0H632V300Q632 335 622 352T591 370Q567 370 551 348T535 290V0H343V300Q343
335 333 352T302 370Q278 370 262 348T246 290V0H54Z" />
<glyph unicode="n" glyph-name="n" horiz-adv-x="627" d="M54 0V520H240L242 450H244Q279 494 317 512T409 530Q503 530 543 477T584 300V0H388V260Q388 319 375 344T329 370Q307 370 289 359T261 330T250 290V0H54Z" />
<glyph unicode="o" glyph-name="o" horiz-adv-x="614" d="M307 -10Q221 -10 158 23T61 116T27 260Q27 343 61 403T158 497T307 530Q393 530 456 497T553 404T587 260Q587 177 553 117T456 23T307 -10ZM307 130Q349 130 370 162T391 260Q391 325 370 357T307 390Q265
390 244 358T223 260Q223 195 244 163T307 130Z" />
<glyph unicode="p" glyph-name="p" horiz-adv-x="641" d="M405 530Q506 530 560 461T614 260Q614 129 560 60T405 -10Q359 -10 324 6T252 60H250V-210H54V520H240L242 460H244Q281 497 319 513T405 530ZM334 380Q309 380 290 370T261 342T250 300V220Q250 196
260 178T290 150T334 140Q377 140 399 171T422 260Q422 319 400 349T334 380Z" />
<glyph unicode="q" glyph-name="q" horiz-adv-x="641" d="M391 -210V60H389Q353 23 318 7T236 -10Q135 -10 81 59T27 260Q27 391 81 460T236 530Q284 530 322 514T397 460H399L401 520H587V-210H391ZM307 140Q332 140 351 150T380 178T391 220V300Q391 324 381
342T351 370T307 380Q264 380 242 350T219 260Q219 202 241 171T307 140Z" />
<glyph unicode="r" glyph-name="r" horiz-adv-x="480" d="M54 0V520H242L244 430H246Q276 463 310 485T384 519T464 530V370Q406 370 358 350T281 296T252 220V0H54Z" />
<glyph unicode="s" glyph-name="s" horiz-adv-x="524" d="M250 -10Q190 -10 133 0T31 30L51 170Q104 151 155 141T248 130Q276 130 286 136T297 159Q297 167 293 172T278 182T243 191Q167 210 120 234T50 293T27 372Q27 450 88 490T270 530Q324 530 374 521T479
492L459 352Q407 371 361 380T277 390Q250 390 239 385T227 365Q227 357 232 351T249 341T282 331Q337 318 377 301T444 263T484 214T497 153Q497 76 432 33T250 -10Z" />
<glyph unicode="t" glyph-name="t" horiz-adv-x="496" d="M315 -10Q207 -10 159 33T110 170V380H13V520H110V690H308V520H453V380H308V200Q308 166 319 153T360 140Q378 140 398 144T435 155L450 10Q413 0 382 -5T315 -10Z" />
<glyph unicode="u" glyph-name="u" horiz-adv-x="617" d="M213 -10Q122 -10 83 43T43 220V520H239V260Q239 202 252 176T293 150Q314 150 330 161T357 190T367 230V520H563V0H377L375 70H373Q339 27 303 9T213 -10Z" />
<glyph unicode="v" glyph-name="v" horiz-adv-x="578" d="M152 0L4 520H206L288 120H290L372 520H574L426 0H152Z" />
<glyph unicode="w" glyph-name="w" horiz-adv-x="822" d="M131 0L11 520H205L245 170H247L293 520H529L575 170H577L617 520H811L691 0H456L412 350H410L366 0H131Z" />
<glyph unicode="x" glyph-name="x" horiz-adv-x="580" d="M20 0L155 260L20 520H222L289 360H291L358 520H560L425 260L560 0H358L291 160H289L222 0H20Z" />
<glyph unicode="y" glyph-name="y" horiz-adv-x="598" d="M59 -80Q129 -70 167 -54T221 -6T237 77L247 -60L4 520H214L305 181H307L384 520H594L408 1Q382 -72 344 -118T247 -191T99 -230L59 -80Z" />
<glyph unicode="z" glyph-name="z" horiz-adv-x="568" d="M49 0V140L272 378V380H49V520H519V380L296 142V140H519V0H49Z" />
<glyph unicode="{" glyph-name="braceleft" horiz-adv-x="533" d="M348 -110Q257 -110 218 -71T178 60V140Q178 202 158 226T88 250H48V410H88Q138 410 158 434T178 520V600Q178 691 217 730T348 770H478V640H438Q396 640 377 635T353 611T348 550V505Q348 432
321 392T228 331V329Q293 308 320 269T348 155V110Q348 68 353 49T377 25T438 20H478V-110H348Z" />
<glyph unicode="|" glyph-name="bar" horiz-adv-x="354" d="M92 -210V810H262V-210H92Z" />
<glyph unicode="}" glyph-name="braceright" horiz-adv-x="533" d="M185 -110H55V20H95Q137 20 156 25T180 49T185 110V155Q185 229 212 268T305 329V331Q240 352 213 392T185 505V550Q185 592 180 611T156 635T95 640H55V770H185Q276 770 315 731T355 600V520Q355
459 375 435T445 410H485V250H445Q395 250 375 226T355 140V60Q355 -31 316 -70T185 -110Z" />
<glyph unicode="~" glyph-name="asciitilde" horiz-adv-x="736" d="M48 190Q48 319 89 374T208 430Q254 430 304 417T418 375Q447 362 467 356T498 350Q514 350 521 363T528 420H688Q688 339 670 289T616 214T528 190Q482 190 432 203T318 245Q289 259 269 264T238
270Q222 270 215 255T208 190H48Z" />
<glyph unicode="&#xa0;" glyph-name="uni00A0" horiz-adv-x="260" />
<glyph unicode="&#xa1;" glyph-name="exclamdown" horiz-adv-x="372" d="M96 270H276L306 -210H66L96 270ZM186 530Q238 530 267 504T296 430Q296 383 267 357T186 330Q134 330 105 356T76 430Q76 477 105 503T186 530Z" />
<glyph unicode="&#xa2;" glyph-name="cent" horiz-adv-x="590" d="M332 -10Q235 -10 167 21T63 113T27 260Q27 347 62 407T166 498T332 530Q390 530 446 520T547 490L517 350Q473 369 428 379T347 390Q284 390 251 357T217 260Q217 197 250 164T347 130Q383 130
428 140T517 170L547 30Q502 11 446 1T332 -10ZM296 -105V625H436V-105H296Z" />
<glyph unicode="&#xa3;" glyph-name="sterling" horiz-adv-x="657" d="M66 160Q95 162 115 178T145 225T156 298V520Q156 627 224 683T421 740Q501 740 586 715L561 555Q530 569 504 574T446 580Q395 580 376 563T356 500V298Q356 247 339 211T291 162V160H606V0H66V160ZM66
306V446H541V306H66Z" />
<glyph unicode="&#xa4;" glyph-name="currency" horiz-adv-x="702" d="M351 115Q282 115 226 149T135 239T101 365Q101 434 135 491T225 581T351 615Q420 615 477 582T567 491T601 365Q601 296 568 240T477 149T351 115ZM351 280Q375 280 394 291T424 322T436
365Q436 389 425 408T394 438T351 450Q328 450 309 439T278 408T266 365Q266 342 277 323T308 292T351 280ZM149 57L43 163L172 292L278 186L149 57ZM553 57L424 186L530 292L659 163L553 57ZM172 438L43 567L149 673L278 544L172 438ZM530 438L424 544L553 673L659
567L530 438Z" />
<glyph unicode="&#xa5;" glyph-name="yen" horiz-adv-x="708" d="M249 0V280L4 730H224L353 420H355L484 730H704L459 280V0H249ZM54 110V230H654V110H54ZM54 280V400H654V280H54Z" />
<glyph unicode="&#xa6;" glyph-name="brokenbar" horiz-adv-x="354" d="M92 370V810H262V370H92ZM92 -220V220H262V-220H92Z" />
<glyph unicode="&#xa7;" glyph-name="section" horiz-adv-x="596" d="M308 210Q339 210 361 231T383 285Q383 306 376 319T347 342T283 360Q190 379 139 403T68 462T48 550Q48 634 112 687T298 740Q357 740 417 730T533 700L498 550Q449 570 404 580T318 590Q272
590 253 579T233 550Q233 539 239 531T261 516T303 505Q432 486 487 438T543 310Q543 226 484 177T308 120V210ZM298 -120Q240 -120 180 -110T63 -80L98 70Q148 50 192 40T278 30Q324 30 343 42T363 70Q363 81 357 89T335 104T293 115Q164 135 109 183T53 310Q53
394 112 443T288 500V410Q257 410 235 389T213 335Q213 315 220 301T249 278T313 260Q407 241 457 217T528 158T548 70Q548 -14 484 -67T298 -120Z" />
<glyph unicode="&#xa8;" glyph-name="dieresis" horiz-adv-x="538" d="M134 560Q82 560 53 588T24 666Q24 715 53 742T134 770Q186 770 215 743T244 666Q244 616 215 588T134 560ZM404 560Q352 560 323 588T294 666Q294 715 323 742T404 770Q456 770 485 743T514
666Q514 616 485 588T404 560Z" />
<glyph unicode="&#xa9;" glyph-name="copyright" horiz-adv-x="830" d="M415 -10Q333 -10 263 18T141 98T59 217T30 365Q30 445 59 513T140 632T263 711T415 740Q497 740 567 712T689 632T771 513T800 365Q800 286 771 218T690 98T567 19T415 -10ZM438 140Q363
140 311 166T231 242T203 365Q203 438 230 488T310 564T438 590Q523 590 588 556L553 436Q493 468 443 468Q397 468 373 442T348 365Q348 315 372 289T443 262Q493 262 553 294L588 174Q523 140 438 140ZM415 75Q479 75 533 97T629 158T692 250T715 365Q715 427
693 480T629 572T534 633T415 655Q351 655 297 633T201 572T138 480T115 365Q115 303 137 250T201 158T296 97T415 75Z" />
<glyph unicode="&#xaa;" glyph-name="ordfeminine" horiz-adv-x="467" d="M148 306Q90 306 55 341T20 434Q20 503 74 540T228 578H261Q261 595 259 603T248 613T223 616Q189 616 148 611T71 596L52 717Q92 728 143 733T245 738Q345 738 386 702T428 578V314H269L268
352H266Q243 330 212 318T148 306ZM209 424Q226 424 237 428T255 442T261 462V484H252Q209 484 190 476T171 450Q171 437 180 431T209 424Z" />
<glyph unicode="&#xab;" glyph-name="guillemotleft" horiz-adv-x="600" d="M157 0L4 260L157 520H330L172 260L330 0H157ZM407 0L254 260L407 520H580L422 260L580 0H407Z" />
<glyph unicode="&#xac;" glyph-name="logicalnot" horiz-adv-x="714" d="M478 80V330H48V500H648V80H478Z" />
<glyph unicode="&#xad;" glyph-name="uni00AD" horiz-adv-x="446" d="M48 205V375H398V205H48Z" />
<glyph unicode="&#xae;" glyph-name="registered" horiz-adv-x="830" d="M415 -10Q333 -10 263 18T141 98T59 217T30 365Q30 445 59 513T140 632T263 711T415 740Q497 740 567 712T689 632T771 513T800 365Q800 286 771 218T690 98T567 19T415 -10ZM415 75Q479
75 533 97T629 158T692 250T715 365Q715 427 693 480T629 572T534 633T415 655Q351 655 297 633T201 572T138 480T115 365Q115 303 137 250T201 158T296 97T415 75ZM255 146V584H403Q507 584 557 548T607 438Q607 365 561 327T427 289H315V391H409Q437 391 450
401T464 432Q464 452 451 462T409 473H395V146H255ZM459 146L371 350H503L615 146H459Z" />
<glyph unicode="&#xaf;" glyph-name="overscore" horiz-adv-x="468" d="M24 595V735H444V595H24Z" />
<glyph unicode="&#xb0;" glyph-name="degree" horiz-adv-x="430" d="M215 364Q162 364 119 388T52 456T27 552Q27 606 51 648T119 715T215 740Q269 740 311 716T378 649T403 552Q403 499 379 456T312 389T215 364ZM215 479Q236 479 252 488T278 514T288 552Q288
573 279 589T253 615T215 625Q194 625 178 616T152 590T142 552Q142 531 151 515T177 489T215 479Z" />
<glyph unicode="&#xb1;" glyph-name="plusminus" horiz-adv-x="712" d="M271 215V390H66V555H271V730H441V555H646V390H441V215H271ZM66 0V165H646V0H66Z" />
<glyph unicode="&#xb2;" glyph-name="uni00B2" horiz-adv-x="400" d="M42 411Q88 441 120 465T171 508T199 544T208 575Q208 594 196 604T163 614Q125 614 57 571L23 683Q54 707 101 721T195 736Q267 736 309 701T351 604Q351 571 338 539T298 475T230 413V411H354V292H42V411Z"
/>
<glyph unicode="&#xb3;" glyph-name="uni00B3" horiz-adv-x="400" d="M179 286Q139 286 100 294T18 322L55 433Q85 420 117 413T172 405Q192 405 203 411T214 430Q214 444 195 449T122 454H98V570H122Q165 570 188 578T211 600Q211 608 202 612T172 617Q152 617
127 612T57 589L27 700Q74 721 108 728T185 736Q268 736 309 709T351 628Q351 588 329 561T265 520V519Q309 514 333 488T357 418Q357 357 310 322T179 286Z" />
<glyph unicode="&#xb4;" glyph-name="acute" horiz-adv-x="356" d="M212 570H42L102 790H332L212 570Z" />
<glyph unicode="&#xb5;" glyph-name="uni00B5" horiz-adv-x="622" d="M53 -220V520H249L250 240Q250 191 262 171T304 150Q326 150 342 159T368 184T378 220V520H574V0H388L386 60H384Q350 23 312 7T224 -10Q184 -10 151 1L249 81V-220H53Z" />
<glyph unicode="&#xb6;" glyph-name="paragraph" horiz-adv-x="700" d="M240 270Q177 270 125 301T41 384T10 500Q10 564 41 616T124 699T240 730H640V-110H480V590H400V-110H240V270Z" />
<glyph unicode="&#xb7;" glyph-name="middot" horiz-adv-x="316" d="M158 180Q106 180 77 208T48 286Q48 335 77 362T158 390Q210 390 239 363T268 286Q268 236 239 208T158 180Z" />
<glyph unicode="&#xb8;" glyph-name="cedilla" horiz-adv-x="436" d="M173 -220Q102 -220 48 -200L63 -65Q86 -74 112 -79T161 -85Q178 -85 189 -82T206 -72T212 -57Q212 -42 195 -28T140 0L315 50Q353 14 370 -16T388 -82Q388 -126 363 -157T290 -204T173 -220Z" />
<glyph unicode="&#xb9;" glyph-name="uni00B9" horiz-adv-x="400" d="M159 292V552H157L57 454L14 588L159 730H302V292H159Z" />
<glyph unicode="&#xba;" glyph-name="ordmasculine" horiz-adv-x="496" d="M248 306Q145 306 85 364T24 522Q24 622 84 680T248 738Q352 738 412 680T472 522Q472 422 412 364T248 306ZM247 428Q276 428 290 450T304 522Q304 571 290 593T247 616Q219 616 205
594T190 522Q190 473 204 451T247 428Z" />
<glyph unicode="&#xbb;" glyph-name="guillemotright" horiz-adv-x="600" d="M443 0H270L428 260L270 520H443L596 260L443 0ZM193 0H20L178 260L20 520H193L346 260L193 0Z" />
<glyph unicode="&#xbc;" glyph-name="onequarter" horiz-adv-x="916" d="M201 0L581 730H731L351 0H201ZM157 292V552H155L55 454L12 588L157 730H300V292H157ZM700 0V62H508V181L700 438H840V181H886V62H840V0H700ZM622 171H710V288H708L622 173V171Z" />
<glyph unicode="&#xbd;" glyph-name="onehalf" horiz-adv-x="946" d="M201 0L581 730H731L351 0H201ZM157 292V552H155L55 454L12 588L157 730H300V292H157ZM592 119Q638 149 670 173T721 216T749 252T758 283Q758 302 746 312T713 322Q675 322 607 279L573 391Q604
415 651 429T745 444Q817 444 859 409T901 312Q901 279 888 247T848 183T780 121V119H904V0H592V119Z" />
<glyph unicode="&#xbe;" glyph-name="threequarters" horiz-adv-x="937" d="M222 0L602 730H752L372 0H222ZM721 0V62H529V181L721 438H861V181H907V62H861V0H721ZM643 171H731V288H729L643 173V171ZM191 286Q151 286 112 294T30 322L67 433Q97 420 129 413T184
405Q204 405 215 411T226 430Q226 444 207 449T134 454H110V570H134Q177 570 200 578T223 600Q223 608 214 612T184 617Q164 617 139 612T69 589L39 700Q86 721 120 728T197 736Q280 736 321 709T363 628Q363 588 341 561T277 520V519Q321 514 345 488T369 418Q369
357 322 322T191 286Z" />
<glyph unicode="&#xbf;" glyph-name="questiondown" horiz-adv-x="603" d="M424 270Q424 236 410 205T365 142T287 74Q250 47 242 28T234 -10Q234 -35 254 -45T324 -55Q368 -55 423 -45T539 -15L574 -180Q512 -199 439 -209T294 -220Q24 -220 24 -40Q24 18 46
65T127 155Q154 175 175 194T209 233T224 270H424ZM324 530Q376 530 405 504T434 430Q434 383 405 357T324 330Q272 330 243 356T214 430Q214 477 243 503T324 530Z" />
<glyph unicode="&#xc0;" glyph-name="Agrave" horiz-adv-x="732" d="M6 0L231 730H501L726 0H506L367 560H365L226 0H6ZM171 135V300H561V135H171ZM285 780L165 1000H395L455 780H285Z" />
<glyph unicode="&#xc1;" glyph-name="Aacute" horiz-adv-x="732" d="M6 0L231 730H501L726 0H506L367 560H365L226 0H6ZM171 135V300H561V135H171ZM449 780H279L339 1000H569L449 780Z" />
<glyph unicode="&#xc2;" glyph-name="Acircumflex" horiz-adv-x="732" d="M6 0L231 730H501L726 0H506L367 560H365L226 0H6ZM171 135V300H561V135H171ZM96 780L256 1000H476L636 780H426L367 880H365L306 780H96Z" />
<glyph unicode="&#xc3;" glyph-name="Atilde" horiz-adv-x="732" d="M6 0L231 730H501L726 0H506L367 560H365L226 0H6ZM171 135V300H561V135H171ZM491 775Q460 775 422 788T343 827Q324 839 311 844T286 850Q273 850 269 837T264 780H116Q116 1005 241 1005Q273
1005 310 992T389 953Q409 941 422 936T446 930Q460 930 464 943T468 1000H616Q616 775 491 775Z" />
<glyph unicode="&#xc4;" glyph-name="Adieresis" horiz-adv-x="732" d="M6 0L231 730H501L726 0H506L367 560H365L226 0H6ZM171 135V300H561V135H171ZM231 770Q179 770 150 798T121 876Q121 925 150 952T231 980Q283 980 312 953T341 876Q341 826 312 798T231
770ZM501 770Q449 770 420 798T391 876Q391 925 420 952T501 980Q553 980 582 953T611 876Q611 826 582 798T501 770Z" />
<glyph unicode="&#xc5;" glyph-name="Aring" horiz-adv-x="732" d="M6 0L231 730H501L726 0H506L367 560H365L226 0H6ZM171 135V300H561V135H171ZM366 650Q319 650 281 673T219 734T196 820Q196 867 219 905T280 967T366 990Q413 990 451 967T513 906T536 820Q536
773 513 735T452 673T366 650ZM366 775Q385 775 398 788T411 820Q411 839 398 852T366 865Q347 865 334 852T321 820Q321 801 334 788T366 775Z" />
<glyph unicode="&#xc6;" glyph-name="AE" horiz-adv-x="907" d="M6 0L246 730H856V570H606V452H836V298H606V160H856V0H406V570H376L226 0H6ZM161 135V300H516V135H161Z" />
<glyph unicode="&#xc7;" glyph-name="Ccedilla" horiz-adv-x="706" d="M421 -10Q296 -10 209 33T76 161T30 365Q30 486 75 569T208 696T421 740Q562 740 670 684L627 514Q521 570 429 570Q368 570 326 546T261 477T238 365Q238 300 260 254T325 184T429 160Q521
160 627 216L670 46Q562 -10 421 -10ZM344 -220Q273 -220 219 -200L234 -65Q257 -74 283 -79T332 -85Q349 -85 360 -82T377 -72T383 -57Q383 -42 366 -28T311 0L486 50Q524 14 541 -16T559 -82Q559 -126 534 -157T461 -204T344 -220Z" />
<glyph unicode="&#xc8;" glyph-name="Egrave" horiz-adv-x="641" d="M60 0V730H590V570H260V452H570V298H260V160H590V0H60ZM244 780L124 1000H354L414 780H244Z" />
<glyph unicode="&#xc9;" glyph-name="Eacute" horiz-adv-x="641" d="M60 0V730H590V570H260V452H570V298H260V160H590V0H60ZM408 780H238L298 1000H528L408 780Z" />
<glyph unicode="&#xca;" glyph-name="Ecircumflex" horiz-adv-x="641" d="M60 0V730H590V570H260V452H570V298H260V160H590V0H60ZM55 780L215 1000H435L595 780H385L326 880H324L265 780H55Z" />
<glyph unicode="&#xcb;" glyph-name="Edieresis" horiz-adv-x="641" d="M60 0V730H590V570H260V452H570V298H260V160H590V0H60ZM190 770Q138 770 109 798T80 876Q80 925 109 952T190 980Q242 980 271 953T300 876Q300 826 271 798T190 770ZM460 770Q408 770 379
798T350 876Q350 925 379 952T460 980Q512 980 541 953T570 876Q570 826 541 798T460 770Z" />
<glyph unicode="&#xcc;" glyph-name="Igrave" horiz-adv-x="342" d="M66 0V730H276V0H66ZM90 780L-30 1000H200L260 780H90Z" />
<glyph unicode="&#xcd;" glyph-name="Iacute" horiz-adv-x="342" d="M66 0V730H276V0H66ZM254 780H84L144 1000H374L254 780Z" />
<glyph unicode="&#xce;" glyph-name="Icircumflex" horiz-adv-x="342" d="M66 0V730H276V0H66ZM-99 780L61 1000H281L441 780H231L172 880H170L111 780H-99Z" />
<glyph unicode="&#xcf;" glyph-name="Idieresis" horiz-adv-x="342" d="M66 0V730H276V0H66ZM36 770Q-16 770 -45 798T-74 876Q-74 925 -45 952T36 980Q88 980 117 953T146 876Q146 826 117 798T36 770ZM306 770Q254 770 225 798T196 876Q196 925 225 952T306
980Q358 980 387 953T416 876Q416 826 387 798T306 770Z" />
<glyph unicode="&#xd0;" glyph-name="Eth" horiz-adv-x="769" d="M19 295V435H445V295H19ZM369 -10Q320 -10 252 -6T119 4V726Q184 732 252 736T369 740Q504 740 585 703T702 584T739 365Q739 229 703 147T585 27T369 -10ZM382 150Q444 150 477 167T522 231T534
365Q534 453 522 499T477 562T382 580Q361 580 326 579T229 572L319 660V70L229 158Q290 154 325 152T382 150Z" />
<glyph unicode="&#xd1;" glyph-name="Ntilde" horiz-adv-x="740" d="M60 0V730H260L478 340H480V730H680V0H480L262 390H260V0H60ZM495 775Q464 775 426 788T347 827Q328 839 315 844T290 850Q277 850 273 837T268 780H120Q120 1005 245 1005Q277 1005 314 992T393
953Q413 941 426 936T450 930Q464 930 468 943T472 1000H620Q620 775 495 775Z" />
<glyph unicode="&#xd2;" glyph-name="Ograve" horiz-adv-x="820" d="M410 -10Q291 -10 206 34T75 163T30 365Q30 483 75 567T205 695T410 740Q530 740 615 696T745 567T790 365Q790 247 745 163T615 35T410 -10ZM410 160Q468 160 507 183T565 251T585 365Q585
433 566 478T507 547T410 570Q352 570 313 547T255 479T235 365Q235 297 254 252T313 183T410 160ZM329 780L209 1000H439L499 780H329Z" />
<glyph unicode="&#xd3;" glyph-name="Oacute" horiz-adv-x="820" d="M410 -10Q291 -10 206 34T75 163T30 365Q30 483 75 567T205 695T410 740Q530 740 615 696T745 567T790 365Q790 247 745 163T615 35T410 -10ZM410 160Q468 160 507 183T565 251T585 365Q585
433 566 478T507 547T410 570Q352 570 313 547T255 479T235 365Q235 297 254 252T313 183T410 160ZM493 780H323L383 1000H613L493 780Z" />
<glyph unicode="&#xd4;" glyph-name="Ocircumflex" horiz-adv-x="820" d="M410 -10Q291 -10 206 34T75 163T30 365Q30 483 75 567T205 695T410 740Q530 740 615 696T745 567T790 365Q790 247 745 163T615 35T410 -10ZM410 160Q468 160 507 183T565 251T585 365Q585
433 566 478T507 547T410 570Q352 570 313 547T255 479T235 365Q235 297 254 252T313 183T410 160ZM140 780L300 1000H520L680 780H470L411 880H409L350 780H140Z" />
<glyph unicode="&#xd5;" glyph-name="Otilde" horiz-adv-x="820" d="M410 -10Q291 -10 206 34T75 163T30 365Q30 483 75 567T205 695T410 740Q530 740 615 696T745 567T790 365Q790 247 745 163T615 35T410 -10ZM410 160Q468 160 507 183T565 251T585 365Q585
433 566 478T507 547T410 570Q352 570 313 547T255 479T235 365Q235 297 254 252T313 183T410 160ZM535 775Q504 775 466 788T387 827Q368 839 355 844T330 850Q317 850 313 837T308 780H160Q160 1005 285 1005Q317 1005 354 992T433 953Q453 941 466 936T490 930Q504
930 508 943T512 1000H660Q660 775 535 775Z" />
<glyph unicode="&#xd6;" glyph-name="Odieresis" horiz-adv-x="820" d="M410 -10Q291 -10 206 34T75 163T30 365Q30 483 75 567T205 695T410 740Q530 740 615 696T745 567T790 365Q790 247 745 163T615 35T410 -10ZM410 160Q468 160 507 183T565 251T585 365Q585
433 566 478T507 547T410 570Q352 570 313 547T255 479T235 365Q235 297 254 252T313 183T410 160ZM275 770Q223 770 194 798T165 876Q165 925 194 952T275 980Q327 980 356 953T385 876Q385 826 356 798T275 770ZM545 770Q493 770 464 798T435 876Q435 925 464
952T545 980Q597 980 626 953T655 876Q655 826 626 798T545 770Z" />
<glyph unicode="&#xd7;" glyph-name="multiply" horiz-adv-x="626" d="M140 -3L20 117L193 290L20 463L140 583L313 410L486 583L606 463L433 290L606 117L486 -3L313 170L140 -3Z" />
<glyph unicode="&#xd8;" glyph-name="Oslash" horiz-adv-x="814" d="M193 -55L73 35L135 118L147 109L583 693L571 702L633 785L753 695L691 612L679 621L243 37L255 28L193 -55ZM410 -10Q291 -10 206 34T75 163T30 365Q30 483 75 567T205 695T410 740Q530 740
615 696T745 567T790 365Q790 247 745 163T615 35T410 -10ZM410 160Q468 160 507 183T565 251T585 365Q585 433 566 478T507 547T410 570Q352 570 313 547T255 479T235 365Q235 297 254 252T313 183T410 160Z" />
<glyph unicode="&#xd9;" glyph-name="Ugrave" horiz-adv-x="728" d="M364 -10Q207 -10 131 66T54 300V730H254V340Q254 269 263 230T297 176T364 160Q408 160 431 175T464 230T474 340V730H674V300Q674 143 598 67T364 -10ZM283 780L163 1000H393L453 780H283Z" />
<glyph unicode="&#xda;" glyph-name="Uacute" horiz-adv-x="728" d="M364 -10Q207 -10 131 66T54 300V730H254V340Q254 269 263 230T297 176T364 160Q408 160 431 175T464 230T474 340V730H674V300Q674 143 598 67T364 -10ZM447 780H277L337 1000H567L447 780Z" />
<glyph unicode="&#xdb;" glyph-name="Ucircumflex" horiz-adv-x="728" d="M364 -10Q207 -10 131 66T54 300V730H254V340Q254 269 263 230T297 176T364 160Q408 160 431 175T464 230T474 340V730H674V300Q674 143 598 67T364 -10ZM94 780L254 1000H474L634 780H424L365
880H363L304 780H94Z" />
<glyph unicode="&#xdc;" glyph-name="Udieresis" horiz-adv-x="728" d="M364 -10Q207 -10 131 66T54 300V730H254V340Q254 269 263 230T297 176T364 160Q408 160 431 175T464 230T474 340V730H674V300Q674 143 598 67T364 -10ZM229 770Q177 770 148 798T119 876Q119
925 148 952T229 980Q281 980 310 953T339 876Q339 826 310 798T229 770ZM499 770Q447 770 418 798T389 876Q389 925 418 952T499 980Q551 980 580 953T609 876Q609 826 580 798T499 770Z" />
<glyph unicode="&#xdd;" glyph-name="Yacute" horiz-adv-x="708" d="M249 0V250L4 730H224L353 420H355L484 730H704L459 250V0H249ZM437 780H267L327 1000H557L437 780Z" />
<glyph unicode="&#xde;" glyph-name="Thorn" horiz-adv-x="664" d="M333 100Q299 100 254 103T160 114V274Q198 268 239 264T307 260Q373 260 404 288T435 375Q435 434 404 462T307 490Q280 490 239 486T160 476V636Q208 643 253 646T333 650Q482 650 561 580T640
375Q640 242 561 171T333 100ZM60 0V730H260V0H60Z" />
<glyph unicode="&#xdf;" glyph-name="germandbls" horiz-adv-x="628" d="M395 -10Q373 -10 348 -8T290 0L300 155Q320 150 335 148T360 145Q381 145 392 153T403 177Q403 187 399 198T382 228T349 274Q318 316 307 336T295 375Q295 394 306 415T347 474Q363 494
369 514T375 548Q375 573 361 586T322 600Q288 600 269 577T250 513V0H54V520Q54 633 123 696T314 760Q433 760 499 710T565 570Q565 548 561 523T535 465Q507 422 496 403T485 377Q485 368 500 343T539 288Q561 260 574 237T593 191T599 145Q599 72 546 31T395
-10Z" />
<glyph unicode="&#xe0;" glyph-name="agrave" horiz-adv-x="575" d="M182 -10Q109 -10 66 33T22 150Q22 236 90 283T282 330H336Q336 364 319 377T256 390Q209 390 161 379T64 344L43 484Q98 508 155 519T283 530Q375 530 429 511T508 447T532 330V0H346L344 60H342Q313
27 271 9T182 -10ZM258 125Q282 125 299 132T326 153T336 185V225H312Q253 225 226 212T198 170Q198 148 213 137T258 125ZM202 570L82 790H312L372 570H202Z" />
<glyph unicode="&#xe1;" glyph-name="aacute" horiz-adv-x="575" d="M182 -10Q109 -10 66 33T22 150Q22 236 90 283T282 330H336Q336 364 319 377T256 390Q209 390 161 379T64 344L43 484Q98 508 155 519T283 530Q375 530 429 511T508 447T532 330V0H346L344 60H342Q313
27 271 9T182 -10ZM258 125Q282 125 299 132T326 153T336 185V225H312Q253 225 226 212T198 170Q198 148 213 137T258 125ZM366 570H196L256 790H486L366 570Z" />
<glyph unicode="&#xe2;" glyph-name="acircumflex" horiz-adv-x="575" d="M182 -10Q109 -10 66 33T22 150Q22 236 90 283T282 330H336Q336 364 319 377T256 390Q209 390 161 379T64 344L43 484Q98 508 155 519T283 530Q375 530 429 511T508 447T532 330V0H346L344
60H342Q313 27 271 9T182 -10ZM258 125Q282 125 299 132T326 153T336 185V225H312Q253 225 226 212T198 170Q198 148 213 137T258 125ZM269 570L429 790H649L809 570H599L540 670H538L479 570H269Z" />
<glyph unicode="&#xe3;" glyph-name="atilde" horiz-adv-x="575" d="M182 -10Q109 -10 66 33T22 150Q22 236 90 283T282 330H336Q336 364 319 377T256 390Q209 390 161 379T64 344L43 484Q98 508 155 519T283 530Q375 530 429 511T508 447T532 330V0H346L344 60H342Q313
27 271 9T182 -10ZM258 125Q282 125 299 132T326 153T336 185V225H312Q253 225 226 212T198 170Q198 148 213 137T258 125ZM408 565Q377 565 339 578T260 617Q241 629 228 634T203 640Q190 640 186 627T181 570H33Q33 795 158 795Q190 795 227 782T306 743Q326
731 339 726T363 720Q377 720 381 733T385 790H533Q533 565 408 565Z" />
<glyph unicode="&#xe4;" glyph-name="adieresis" horiz-adv-x="575" d="M182 -10Q109 -10 66 33T22 150Q22 236 90 283T282 330H336Q336 364 319 377T256 390Q209 390 161 379T64 344L43 484Q98 508 155 519T283 530Q375 530 429 511T508 447T532 330V0H346L344
60H342Q313 27 271 9T182 -10ZM258 125Q282 125 299 132T326 153T336 185V225H312Q253 225 226 212T198 170Q198 148 213 137T258 125ZM148 560Q96 560 67 588T38 666Q38 715 67 742T148 770Q200 770 229 743T258 666Q258 616 229 588T148 560ZM418 560Q366 560
337 588T308 666Q308 715 337 742T418 770Q470 770 499 743T528 666Q528 616 499 588T418 560Z" />
<glyph unicode="&#xe5;" glyph-name="aring" horiz-adv-x="575" d="M182 -10Q109 -10 66 33T22 150Q22 236 90 283T282 330H336Q336 364 319 377T256 390Q209 390 161 379T64 344L43 484Q98 508 155 519T283 530Q375 530 429 511T508 447T532 330V0H346L344 60H342Q313
27 271 9T182 -10ZM258 125Q282 125 299 132T326 153T336 185V225H312Q253 225 226 212T198 170Q198 148 213 137T258 125ZM283 585Q236 585 198 608T136 669T113 755Q113 802 136 840T197 902T283 925Q330 925 368 902T430 841T453 755Q453 708 430 670T369 608T283
585ZM283 710Q302 710 315 723T328 755Q328 774 315 787T283 800Q264 800 251 787T238 755Q238 736 251 723T283 710Z" />
<glyph unicode="&#xe6;" glyph-name="ae" horiz-adv-x="891" d="M258 125Q282 125 299 132T326 153T336 185V225H312Q253 225 226 212T198 170Q198 148 213 137T258 125ZM222 -10Q128 -10 75 32T22 150Q22 236 90 283T282 330H336Q336 364 319 377T256 390Q216
390 173 383T87 361L67 501Q117 516 168 523T283 530Q373 530 426 511T503 447T527 330V310Q527 212 490 140T384 29T222 -10ZM635 -10Q491 -10 413 60T335 260Q335 386 407 458T605 530Q728 530 796 462T865 270Q865 252 864 230T861 200H445V315H706L683 280Q683
345 665 375T605 405Q565 405 546 375T527 280V220Q527 173 553 152T637 130Q681 130 730 141T815 168L835 28Q798 11 745 1T635 -10Z" />
<glyph unicode="&#xe7;" glyph-name="ccedilla" horiz-adv-x="550" d="M332 -10Q235 -10 167 21T63 113T27 260Q27 347 62 407T166 498T332 530Q383 530 425 521T507 490L477 350Q441 370 410 380T347 390Q289 390 258 357T227 260Q227 196 258 163T347 130Q379
130 410 140T477 170L507 30Q467 9 425 0T332 -10ZM265 -220Q194 -220 140 -200L155 -65Q178 -74 204 -79T253 -85Q270 -85 281 -82T298 -72T304 -57Q304 -42 287 -28T232 0L407 50Q445 14 462 -16T480 -82Q480 -126 455 -157T382 -204T265 -220Z" />
<glyph unicode="&#xe8;" glyph-name="egrave" horiz-adv-x="583" d="M327 -10Q183 -10 105 60T27 260Q27 386 99 458T297 530Q420 530 488 462T557 270Q557 252 556 230T553 200H137V315H398L375 280Q375 345 357 375T297 405Q257 405 238 375T219 280V220Q219
173 245 152T329 130Q373 130 422 141T507 168L527 28Q490 11 437 1T327 -10ZM216 570L96 790H326L386 570H216Z" />
<glyph unicode="&#xe9;" glyph-name="eacute" horiz-adv-x="583" d="M327 -10Q183 -10 105 60T27 260Q27 386 99 458T297 530Q420 530 488 462T557 270Q557 252 556 230T553 200H137V315H398L375 280Q375 345 357 375T297 405Q257 405 238 375T219 280V220Q219
173 245 152T329 130Q373 130 422 141T507 168L527 28Q490 11 437 1T327 -10ZM380 570H210L270 790H500L380 570Z" />
<glyph unicode="&#xea;" glyph-name="ecircumflex" horiz-adv-x="583" d="M327 -10Q183 -10 105 60T27 260Q27 386 99 458T297 530Q420 530 488 462T557 270Q557 252 556 230T553 200H137V315H398L375 280Q375 345 357 375T297 405Q257 405 238 375T219 280V220Q219
173 245 152T329 130Q373 130 422 141T507 168L527 28Q490 11 437 1T327 -10ZM27 570L187 790H407L567 570H357L298 670H296L237 570H27Z" />
<glyph unicode="&#xeb;" glyph-name="edieresis" horiz-adv-x="583" d="M327 -10Q183 -10 105 60T27 260Q27 386 99 458T297 530Q420 530 488 462T557 270Q557 252 556 230T553 200H137V315H398L375 280Q375 345 357 375T297 405Q257 405 238 375T219 280V220Q219
173 245 152T329 130Q373 130 422 141T507 168L527 28Q490 11 437 1T327 -10ZM162 560Q110 560 81 588T52 666Q52 715 81 742T162 770Q214 770 243 743T272 666Q272 616 243 588T162 560ZM432 560Q380 560 351 588T322 666Q322 715 351 742T432 770Q484 770 513
743T542 666Q542 616 513 588T432 560Z" />
<glyph unicode="&#xec;" glyph-name="igrave" horiz-adv-x="318" d="M59 0V520H259V0H59ZM334 570L214 790H444L504 570H334Z" />
<glyph unicode="&#xed;" glyph-name="iacute" horiz-adv-x="318" d="M59 0V520H259V0H59ZM242 570H72L132 790H362L242 570Z" />
<glyph unicode="&#xee;" glyph-name="icircumflex" horiz-adv-x="318" d="M59 0V520H259V0H59ZM-111 570L49 790H269L429 570H219L160 670H158L99 570H-111Z" />
<glyph unicode="&#xef;" glyph-name="idieresis" horiz-adv-x="318" d="M59 0V520H259V0H59ZM280 560Q228 560 199 588T170 666Q170 715 199 742T280 770Q332 770 361 743T390 666Q390 616 361 588T280 560ZM550 560Q498 560 469 588T440 666Q440 715 469 742T550
770Q602 770 631 743T660 666Q660 616 631 588T550 560Z" />
<glyph unicode="&#xf0;" glyph-name="eth" horiz-adv-x="615" d="M302 -10Q174 -10 101 59T27 250Q27 360 91 420T272 480Q298 480 321 478T362 470L364 471Q362 510 340 543T280 601T191 642T77 660L117 790Q208 786 281 763T409 697T502 595T558 455T577 280Q577
133 510 62T302 -10ZM302 125Q344 125 363 155T383 250Q383 315 364 345T302 375Q260 375 241 345T221 250Q221 185 240 155T302 125ZM122 468L67 598L507 773L562 643L122 468Z" />
<glyph unicode="&#xf1;" glyph-name="ntilde" horiz-adv-x="627" d="M54 0V520H240L242 450H244Q279 494 317 512T409 530Q503 530 543 477T584 300V0H388V260Q388 319 375 344T329 370Q307 370 289 359T261 330T250 290V0H54ZM441 565Q410 565 372 578T293 617Q274
629 261 634T236 640Q223 640 219 627T214 570H66Q66 795 191 795Q223 795 260 782T339 743Q359 731 372 726T396 720Q410 720 414 733T418 790H566Q566 565 441 565Z" />
<glyph unicode="&#xf2;" glyph-name="ograve" horiz-adv-x="614" d="M307 -10Q221 -10 158 23T61 116T27 260Q27 343 61 403T158 497T307 530Q393 530 456 497T553 404T587 260Q587 177 553 117T456 23T307 -10ZM307 130Q349 130 370 162T391 260Q391 325 370
357T307 390Q265 390 244 358T223 260Q223 195 244 163T307 130ZM226 570L106 790H336L396 570H226Z" />
<glyph unicode="&#xf3;" glyph-name="oacute" horiz-adv-x="614" d="M307 -10Q221 -10 158 23T61 116T27 260Q27 343 61 403T158 497T307 530Q393 530 456 497T553 404T587 260Q587 177 553 117T456 23T307 -10ZM307 130Q349 130 370 162T391 260Q391 325 370
357T307 390Q265 390 244 358T223 260Q223 195 244 163T307 130ZM390 570H220L280 790H510L390 570Z" />
<glyph unicode="&#xf4;" glyph-name="ocircumflex" horiz-adv-x="614" d="M307 -10Q221 -10 158 23T61 116T27 260Q27 343 61 403T158 497T307 530Q393 530 456 497T553 404T587 260Q587 177 553 117T456 23T307 -10ZM307 130Q349 130 370 162T391 260Q391 325
370 357T307 390Q265 390 244 358T223 260Q223 195 244 163T307 130ZM37 570L197 790H417L577 570H367L308 670H306L247 570H37Z" />
<glyph unicode="&#xf5;" glyph-name="otilde" horiz-adv-x="614" d="M307 -10Q221 -10 158 23T61 116T27 260Q27 343 61 403T158 497T307 530Q393 530 456 497T553 404T587 260Q587 177 553 117T456 23T307 -10ZM307 130Q349 130 370 162T391 260Q391 325 370
357T307 390Q265 390 244 358T223 260Q223 195 244 163T307 130ZM432 565Q401 565 363 578T284 617Q265 629 252 634T227 640Q214 640 210 627T205 570H57Q57 795 182 795Q214 795 251 782T330 743Q350 731 363 726T387 720Q401 720 405 733T409 790H557Q557 565
432 565Z" />
<glyph unicode="&#xf6;" glyph-name="odieresis" horiz-adv-x="614" d="M307 -10Q221 -10 158 23T61 116T27 260Q27 343 61 403T158 497T307 530Q393 530 456 497T553 404T587 260Q587 177 553 117T456 23T307 -10ZM307 130Q349 130 370 162T391 260Q391 325 370
357T307 390Q265 390 244 358T223 260Q223 195 244 163T307 130ZM172 560Q120 560 91 588T62 666Q62 715 91 742T172 770Q224 770 253 743T282 666Q282 616 253 588T172 560ZM442 560Q390 560 361 588T332 666Q332 715 361 742T442 770Q494 770 523 743T552 666Q552
616 523 588T442 560Z" />
<glyph unicode="&#xf7;" glyph-name="divide" horiz-adv-x="676" d="M48 205V375H628V205H48ZM338 -20Q297 -20 268 9T238 80Q238 121 267 150T338 180Q379 180 408 151T438 80Q438 39 409 10T338 -20ZM338 400Q297 400 268 429T238 500Q238 541 267 570T338 600Q379
600 408 571T438 500Q438 459 409 430T338 400Z" />
<glyph unicode="&#xf8;" glyph-name="oslash" horiz-adv-x="610" d="M154 -40L74 20L114 74L122 68L442 500L434 506L474 560L554 500L514 446L506 452L186 20L194 14L154 -40ZM307 -10Q221 -10 158 23T61 116T27 260Q27 343 61 403T158 497T307 530Q393 530 456
497T553 404T587 260Q587 177 553 117T456 23T307 -10ZM307 130Q349 130 370 162T391 260Q391 325 370 357T307 390Q265 390 244 358T223 260Q223 195 244 163T307 130Z" />
<glyph unicode="&#xf9;" glyph-name="ugrave" horiz-adv-x="617" d="M213 -10Q122 -10 83 43T43 220V520H239V260Q239 202 252 176T293 150Q314 150 330 161T357 190T367 230V520H563V0H377L375 70H373Q339 27 303 9T213 -10ZM225 570L105 790H335L395 570H225Z" />
<glyph unicode="&#xfa;" glyph-name="uacute" horiz-adv-x="617" d="M213 -10Q122 -10 83 43T43 220V520H239V260Q239 202 252 176T293 150Q314 150 330 161T357 190T367 230V520H563V0H377L375 70H373Q339 27 303 9T213 -10ZM389 570H219L279 790H509L389 570Z" />
<glyph unicode="&#xfb;" glyph-name="ucircumflex" horiz-adv-x="617" d="M213 -10Q122 -10 83 43T43 220V520H239V260Q239 202 252 176T293 150Q314 150 330 161T357 190T367 230V520H563V0H377L375 70H373Q339 27 303 9T213 -10ZM36 570L196 790H416L576 570H366L307
670H305L246 570H36Z" />
<glyph unicode="&#xfc;" glyph-name="udieresis" horiz-adv-x="617" d="M213 -10Q122 -10 83 43T43 220V520H239V260Q239 202 252 176T293 150Q314 150 330 161T357 190T367 230V520H563V0H377L375 70H373Q339 27 303 9T213 -10ZM171 560Q119 560 90 588T61 666Q61
715 90 742T171 770Q223 770 252 743T281 666Q281 616 252 588T171 560ZM441 560Q389 560 360 588T331 666Q331 715 360 742T441 770Q493 770 522 743T551 666Q551 616 522 588T441 560Z" />
<glyph unicode="&#xfd;" glyph-name="yacute" horiz-adv-x="598" d="M59 -80Q129 -70 167 -54T221 -6T237 77L247 -60L4 520H214L305 181H307L384 520H594L408 1Q382 -72 344 -118T247 -191T99 -230L59 -80ZM382 570H212L272 790H502L382 570Z" />
<glyph unicode="&#xfe;" glyph-name="thorn" horiz-adv-x="641" d="M54 -240V760H250V460H252Q286 497 322 513T405 530Q505 530 559 460T614 260Q614 131 560 61T405 -10Q359 -10 323 6T252 60H250V-240H54ZM334 140Q379 140 400 169T422 260Q422 321 401 350T334
380Q305 380 287 368T259 334T250 280V240Q250 209 259 187T286 152T334 140Z" />
<glyph unicode="&#xff;" glyph-name="ydieresis" horiz-adv-x="598" d="M59 -80Q129 -70 167 -54T221 -6T237 77L247 -60L4 520H214L305 181H307L384 520H594L408 1Q382 -72 344 -118T247 -191T99 -230L59 -80ZM164 560Q112 560 83 588T54 666Q54 715 83 742T164
770Q216 770 245 743T274 666Q274 616 245 588T164 560ZM434 560Q382 560 353 588T324 666Q324 715 353 742T434 770Q486 770 515 743T544 666Q544 616 515 588T434 560Z" />
<glyph unicode="&#x2013;" glyph-name="endash" horiz-adv-x="500" d="M0 205V375H500V205H0Z" />
<glyph unicode="&#x2014;" glyph-name="emdash" horiz-adv-x="1000" d="M0 205V375H1000V205H0Z" />
<glyph unicode="&#x2018;" glyph-name="quoteleft" horiz-adv-x="336" d="M294 770L234 470H24L144 770H294Z" />
<glyph unicode="&#x2019;" glyph-name="quoteright" horiz-adv-x="336" d="M42 470L102 770H312L192 470H42Z" />
<glyph unicode="&#x201a;" glyph-name="quotesinglbase" horiz-adv-x="336" d="M33 -100L93 200H303L183 -100H33Z" />
<glyph unicode="&#x201c;" glyph-name="quotedblleft" horiz-adv-x="586" d="M294 770L234 470H24L144 770H294ZM544 770L484 470H274L394 770H544Z" />
<glyph unicode="&#x201d;" glyph-name="quotedblright" horiz-adv-x="586" d="M42 470L102 770H312L192 470H42ZM292 470L352 770H562L442 470H292Z" />
<glyph unicode="&#x201e;" glyph-name="quotedblbase" horiz-adv-x="586" d="M33 -100L93 200H303L183 -100H33ZM283 -100L343 200H553L433 -100H283Z" />
<glyph unicode="&#x2022;" glyph-name="bullet" horiz-adv-x="426" d="M214 130Q167 130 131 150T74 207T53 291Q53 337 73 373T130 429T214 450Q260 450 296 430T352 373T373 291Q373 244 353 208T296 151T214 130Z" />
<glyph unicode="&#x2039;" glyph-name="guilsinglleft" horiz-adv-x="364" d="M164 0L4 260L164 520H344L179 260L344 0H164Z" />
<glyph unicode="&#x203a;" glyph-name="guilsinglright" horiz-adv-x="364" d="M200 0H20L185 260L20 520H200L360 260L200 0Z" />
</font>
</defs>
</svg>
